<svg width="61" height="60" viewBox="0 0 61 60" fill="none" xmlns="http://www.w3.org/2000/svg">
<g clip-path="url(#clip0_1297_13705)">
<path d="M52.0308 3.51013C52.5587 3.96761 52.7464 4.43681 52.6642 5.11716C52.5821 5.86789 51.9487 6.48959 51.1276 6.6069C50.6349 6.68901 50.5763 6.72419 50.6232 6.94707C50.6584 7.08783 51.1159 11.0644 51.6555 15.7916L52.6291 24.3781L53.6965 24.7417C56.0191 25.5394 59.5616 27.5922 60.2419 28.5423C60.4296 28.8004 60.5 29.0819 60.5 29.5159C60.5 30.9587 58.9633 31.7564 57.7786 30.9235C55.0103 28.9646 53.1335 28.0731 50.5528 27.4983C49.2156 27.1933 45.849 27.1347 44.3476 27.3693C38.201 28.3898 33.0397 32.73 31.0104 38.5951C30.2244 40.859 29.896 43.8033 30.1658 46.0085C30.3417 47.3575 30.2479 47.7798 29.6497 48.3076C29.1101 48.7768 28.5588 48.8707 27.8901 48.6126C27.1746 48.3428 26.8931 47.9088 26.7289 46.8179L26.5881 45.9147L24.594 45.8795L22.5998 45.856L22.2127 44.9176C21.4737 43.0877 19.8784 41.0819 18.2597 39.9206C17.2743 39.2168 15.8902 38.5481 14.6351 38.161C13.638 37.8561 13.4503 37.8326 11.4093 37.8326C9.36821 37.8326 9.1688 37.8561 8.19519 38.161C6.14241 38.7827 4.41808 39.8385 2.95181 41.3634C2.17762 42.161 1.14536 43.6156 0.863838 44.3076C0.781731 44.5188 0.664429 44.6478 0.605778 44.6126C0.547127 44.5774 0.500206 40.859 0.500206 36.0848C0.500206 26.642 0.465015 27.0995 1.30959 26.5364C1.69668 26.2784 1.77879 26.2667 4.73479 26.2667H7.77291V22.8884C7.77291 20.3664 7.73772 19.4632 7.62041 19.3224C7.51484 19.1699 7.19813 19.123 6.28318 19.0878C5.30957 19.0526 5.02805 19.0057 4.75826 18.8063C3.66735 17.9852 3.64389 16.5775 4.71133 15.862C5.07497 15.6157 5.25092 15.5922 6.55297 15.5922C7.71426 15.5922 8.12481 15.6391 8.64094 15.8268C9.35648 16.0966 10.2362 16.8239 10.6468 17.469C11.2333 18.3957 11.292 18.8884 11.292 22.7124V26.2667H15.9136H20.5353L20.7699 25.3517C21.1805 23.815 25.4855 6.8063 25.4855 6.73592C25.4855 6.70073 25.2391 6.67728 24.9224 6.67728C24.0192 6.66555 23.4913 6.48959 23.0339 6.04385C22.635 5.64502 22.6116 5.57464 22.6116 4.84737C22.6116 4.09664 22.6233 4.07318 23.1042 3.6157L23.5969 3.15823H37.6144H51.632L52.0308 3.51013ZM35.4561 16.472V26.2667H36.2186C36.8989 26.2667 37.1101 26.208 38.0719 25.7271C40.7112 24.3898 43.8314 23.686 47.022 23.686H48.9458V23.4045C48.9458 23.123 47.2566 8.19047 47.1159 7.16994L47.0455 6.67728H41.2508H35.4561V16.472ZM29.1218 6.72419C29.1218 6.74765 28.0074 11.1347 26.6585 16.472C25.2978 21.8092 24.1951 26.1963 24.1951 26.2197C24.1951 26.2432 25.9312 26.2667 28.0661 26.2667H31.937V16.472V6.67728H30.5294C29.7552 6.67728 29.1218 6.70073 29.1218 6.72419Z" fill="#FFCB58"/>
<path d="M49.8724 30.9702C55.151 32.108 59.2683 36.3191 60.3358 41.6916C60.5469 42.7238 60.5469 45.6681 60.3475 46.6182C59.761 49.3631 58.4824 51.7678 56.6056 53.6329C53.9076 56.2956 50.8109 57.5859 47.0689 57.5859C43.3153 57.5859 40.2302 56.3073 37.544 53.6446C34.1423 50.2663 32.8168 45.3631 34.0484 40.671C35.2449 36.0845 39.0103 32.3309 43.632 31.111C45.2508 30.6887 48.2419 30.6183 49.8724 30.9702ZM45.3681 37.9496C42.6701 38.6417 40.6173 41.3397 40.6173 44.1549C40.6173 47.0757 42.8343 49.8323 45.6496 50.4423C46.5763 50.6417 48.3827 50.5244 49.239 50.2194C52.0894 49.1754 53.8607 46.2429 53.4267 43.2399C53.1334 41.2106 51.7845 39.3221 49.9663 38.4306C49.5088 38.196 48.9106 37.9614 48.6525 37.891C47.89 37.715 46.1305 37.7385 45.3681 37.9496Z" fill="#FFCB58"/>
<path d="M48.242 41.468C48.7698 41.7026 49.3681 42.2774 49.6848 42.8639C50.0367 43.5208 50.0367 44.7876 49.6848 45.4562C49.3915 46.0075 48.7229 46.641 48.1716 46.8638C47.6555 47.0867 46.459 47.075 45.9194 46.8404C44.9341 46.4298 44.1364 45.2334 44.1364 44.1542C44.1364 43.075 44.9341 41.8785 45.9194 41.468C46.4707 41.2334 47.7024 41.2334 48.242 41.468Z" fill="#FFCB58"/>
<path d="M13.3448 41.4452C16.2656 42.2663 18.3067 44.1901 19.2333 46.9701C19.5031 47.7913 19.55 48.0962 19.55 49.4335C19.55 50.7707 19.5031 51.0757 19.2333 51.8968C18.7876 53.234 18.1659 54.2311 17.1336 55.2634C16.4181 55.9789 16.0075 56.2722 15.1395 56.6944C14.5413 56.9877 13.7319 57.3161 13.3448 57.41C12.4416 57.6446 10.3771 57.6446 9.48557 57.41C6.63514 56.671 4.51198 54.6769 3.5853 51.8968C3.3155 51.0757 3.26858 50.7707 3.26858 49.4335C3.26858 48.0962 3.3155 47.7913 3.5853 46.9701C4.40641 44.4951 6.24804 42.5831 8.65273 41.7033C9.48557 41.3983 9.76709 41.3631 11.1747 41.3279C12.2891 41.2927 12.9342 41.3279 13.3448 41.4452ZM10.4592 48.0024C10.0017 48.3074 9.64979 48.9291 9.64979 49.4335C9.64979 49.9379 10.0017 50.5596 10.4592 50.8646C11.292 51.4276 12.512 51.0992 12.9577 50.1959C13.5442 49.0464 12.7114 47.7326 11.4093 47.7326C11.0339 47.7326 10.729 47.8147 10.4592 48.0024Z" fill="#FFCB58"/>
</g>
<defs>
<clipPath id="clip0_1297_13705">
<rect width="60" height="60" fill="white" transform="translate(0.5)"/>
</clipPath>
</defs>
</svg>
