<svg width="61" height="60" viewBox="0 0 61 60" fill="none" xmlns="http://www.w3.org/2000/svg">
<path d="M14.34 9.29829C14.4685 9.18049 16.4603 8.39875 18.7841 7.55276C21.0972 6.70677 23.0997 6.0107 23.239 6.0107C23.8815 5.98929 24.2456 6.42835 24.3848 7.39214C24.6097 8.93419 25.3379 10.4334 26.3017 11.3222C27.3618 12.3074 28.5826 12.7465 30.2425 12.7465C33.0482 12.7465 35.0507 11.0866 35.8003 8.15245C35.9074 7.71339 36.0038 7.24221 36.0038 7.11371C36.0038 6.56757 36.5178 6 37.0425 6C37.1496 6 39.1628 6.68536 41.5188 7.52064L45.8023 9.04128L51.1031 13.7531C54.0159 16.3339 56.6502 18.6898 56.9608 18.9897C57.5283 19.5465 57.7104 19.9428 57.5711 20.3711C57.5283 20.4996 55.4294 22.7056 52.9128 25.2543L48.3188 29.9019V42.4525C48.3188 54.1679 48.2974 55.0032 48.126 55.2173C48.0297 55.3458 47.8369 55.5065 47.7084 55.5707C47.3764 55.7421 13.0657 55.7421 12.7337 55.5707C12.6052 55.5065 12.4124 55.3458 12.3161 55.2173C12.1447 55.0032 12.1233 54.1679 12.1233 42.4525V29.9019L7.52925 25.2543C5.0127 22.7056 2.91379 20.4996 2.87096 20.3711C2.73174 19.9321 2.91379 19.5465 3.5349 18.9361C3.86687 18.6149 6.38342 16.3553 9.12485 13.9245C11.8663 11.4936 14.2115 9.40538 14.34 9.29829Z" fill="#FFCB58"/>
</svg>
