<svg width="61" height="60" viewBox="0 0 61 60" fill="none" xmlns="http://www.w3.org/2000/svg">
<path d="M29.9219 3.17649C29.39 3.43699 27.9899 4.7829 27.4906 5.51013C26.2206 7.39874 25.6128 9.75408 25.819 12.0117L25.895 12.8149H30.66H35.4249L35.5009 12.0117C35.7723 9.04857 34.7085 6.13967 32.592 4.1208C31.474 3.04625 30.7251 2.77489 29.9219 3.17649Z" fill="#FFCB58"/>
<path d="M16.8535 6.46537C16.3433 6.73672 16.0068 7.36626 16.0068 8.03921C16.0068 9.71075 16.9837 12.0118 18.3622 13.5965L18.6661 13.9438L19.86 13.6833C20.5221 13.5422 21.423 13.3686 21.8789 13.2926L22.693 13.1732L22.5953 12.5111C22.4542 11.5342 22.5844 9.38512 22.8449 8.32142C22.9643 7.81128 23.0294 7.36626 22.986 7.3337C22.8341 7.19259 21.5316 6.80185 20.4787 6.57391C19.936 6.45451 18.9809 6.32427 18.3622 6.30256C17.3853 6.24829 17.2116 6.27 16.8535 6.46537Z" fill="#FFCB58"/>
<path d="M42.2738 6.32438C41.1776 6.44377 38.5726 7.10587 38.3338 7.32295C38.2904 7.36637 38.3555 7.81139 38.4749 8.32153C38.7354 9.38523 38.8657 11.5343 38.7246 12.5112L38.6269 13.1733L39.4409 13.2927C39.8968 13.3687 40.8085 13.5315 41.4598 13.6726L42.6537 13.9331L42.9577 13.5858C44.7269 11.5886 45.7689 8.43007 45.0959 7.11673C44.7052 6.35694 43.9562 6.13986 42.2738 6.32438Z" fill="#FFCB58"/>
<path d="M25.7756 16.1364C16.7884 16.6791 11.4156 19.8485 9.93949 25.4818C8.71297 30.1708 10.1023 37.15 13.4996 43.3911C15.4534 46.9621 17.6568 49.9253 20.5005 52.7582C23.3335 55.5802 25.7865 57.2518 28.4132 58.1527C29.3032 58.4674 29.542 58.5 30.66 58.5C31.7779 58.5 32.0167 58.4674 32.9068 58.1527C35.5552 57.2409 38.0082 55.5694 40.8737 52.7148C46.9086 46.6799 51.0114 38.6044 51.7061 31.3864C52.162 26.6866 51.2177 23.3653 48.6886 20.7603C46.4201 18.4158 42.8926 16.9722 37.9322 16.3535C35.4032 16.0387 29.2815 15.9302 25.7756 16.1364ZM18.3948 26.1113C19.1546 26.5021 19.2632 26.8711 19.2632 29.1505C19.2632 31.4299 19.1546 31.7989 18.3948 32.1896C17.8413 32.4719 17.3854 32.461 16.8536 32.1679C16.0938 31.7338 16.0069 31.419 16.0069 29.1288C16.0178 26.8603 16.0938 26.5998 16.8318 26.1548C17.3528 25.84 17.8304 25.8291 18.3948 26.1113ZM31.4198 26.1113C32.1796 26.5021 32.2881 26.8711 32.2881 29.1505C32.2881 31.4299 32.1796 31.7989 31.4198 32.1896C30.8662 32.4719 30.4103 32.461 29.8785 32.1679C29.1187 31.7338 29.0319 31.419 29.0319 29.1288C29.0427 26.8603 29.1187 26.5998 29.8568 26.1548C30.3778 25.84 30.8553 25.8291 31.4198 26.1113ZM44.4447 26.1113C45.2045 26.5021 45.313 26.8711 45.313 29.1505C45.313 31.4299 45.2045 31.7989 44.4447 32.1896C43.8911 32.4719 43.4353 32.461 42.9034 32.1679C42.1436 31.7338 42.0568 31.419 42.0568 29.1288C42.0676 26.8603 42.1436 26.5998 42.8817 26.1548C43.4027 25.84 43.8803 25.8291 44.4447 26.1113ZM24.9073 35.88C25.6671 36.2708 25.7756 36.6398 25.7756 38.9192C25.7756 41.1986 25.6671 41.5676 24.9073 41.9583C24.3537 42.2405 23.8979 42.2297 23.366 41.9366C22.6062 41.5025 22.5194 41.1877 22.5194 38.8975C22.5303 36.629 22.6062 36.3685 23.3443 35.9235C23.8653 35.6087 24.3429 35.5978 24.9073 35.88ZM37.9322 35.88C38.692 36.2708 38.8006 36.6398 38.8006 38.9192C38.8006 41.1986 38.692 41.5676 37.9322 41.9583C37.3787 42.2405 36.9228 42.2297 36.3909 41.9366C35.6312 41.5025 35.5443 41.1877 35.5443 38.8975C35.5552 36.629 35.6312 36.3685 36.3692 35.9235C36.8902 35.6087 37.3678 35.5978 37.9322 35.88ZM31.4198 45.6487C32.1796 46.0395 32.2881 46.4085 32.2881 48.6879C32.2881 50.9673 32.1796 51.3363 31.4198 51.727C30.8662 52.0092 30.4103 51.9984 29.8785 51.7053C29.1187 51.2712 29.0319 50.9564 29.0319 48.6662C29.0427 46.3977 29.1187 46.1372 29.8568 45.6922C30.3778 45.3774 30.8553 45.3665 31.4198 45.6487Z" fill="#FFCB58"/>
</svg>
