<svg width="61" height="60" viewBox="0 0 61 60" fill="none" xmlns="http://www.w3.org/2000/svg">
<path fill-rule="evenodd" clip-rule="evenodd" d="M29.2651 17.953C31.25 18.3218 32.7742 17.9838 32.7742 17.9838L33.318 17.7376C34.7955 17.0912 37.0835 16.5474 38.3763 16.5474L38.3821 16.5473C39.4516 16.5371 41.7548 16.5489 44.4299 17.4092L45.774 18.0864C47.4465 18.9175 48.5648 19.7178 49.7858 20.9183C51.684 22.8062 52.946 25.1866 53.5308 27.9876C54.9878 34.9852 51.8174 44.2811 45.8766 50.3962C43.9374 52.3867 42.3779 53.5667 40.4386 54.5106C38.561 55.4135 37.1656 55.7521 35.2777 55.7521C33.9541 55.7521 32.651 55.4854 31.5327 54.9826C31.0504 54.7774 30.8863 54.7466 30.7221 54.8287C30.3527 55.0236 29.0702 55.4443 28.3314 55.5982C27.2336 55.8342 25.8792 55.8855 24.9968 55.7419C20.6157 55.0031 15.2495 50.5809 11.9046 44.948C9.62683 41.1106 8.37507 37.1604 8.06726 32.851C7.93388 31.0452 7.99544 29.7627 8.28273 28.2955C8.97017 24.8685 10.9094 21.7904 13.7618 19.6152C18.0198 16.3729 23.4373 15.6137 28.2186 17.5631C28.7829 17.7889 29.2549 17.9633 29.2651 17.953ZM17.753 24.8173C18.8303 23.9965 19.805 23.545 21.0978 23.2577C21.97 23.0628 23.037 23.0833 23.4577 23.2988C24.1965 23.6579 24.4837 24.8071 24.0015 25.4637C23.6219 25.9665 23.3141 26.1101 22.4419 26.2025C21.3851 26.3051 20.7592 26.5103 20 27.0028C19.2612 27.485 18.6251 28.1622 18.266 28.8804C17.8966 29.6089 17.8248 29.8859 17.7119 30.912C17.6504 31.4763 17.5478 31.8662 17.4246 32.0303C16.7269 32.964 15.4854 32.9743 14.8698 32.0509C14.6749 31.7636 14.6338 31.5686 14.6338 30.9222C14.6441 28.6342 15.8548 26.2538 17.753 24.8173Z" fill="#FFCB58"/>
<path d="M32.7742 17.9838L32.8154 18.0749L32.806 18.0792L32.7958 18.0814L32.7742 17.9838ZM29.2651 17.953L29.1944 17.8823L29.2316 17.8451L29.2834 17.8547L29.2651 17.953ZM33.318 17.7376L33.2767 17.6465L33.2779 17.6459L33.318 17.7376ZM38.3763 16.5474L38.3773 16.6474H38.3763V16.5474ZM38.3821 16.5473L38.3811 16.4473H38.3811L38.3821 16.5473ZM44.4299 17.4092L44.4605 17.314L44.468 17.3164L44.4749 17.3199L44.4299 17.4092ZM45.774 18.0864L45.7295 18.176L45.729 18.1757L45.774 18.0864ZM49.7858 20.9183L49.8559 20.847L49.8563 20.8474L49.7858 20.9183ZM53.5308 27.9876L53.6287 27.9672L53.6287 27.9673L53.5308 27.9876ZM45.8766 50.3962L45.9484 50.4659L45.9483 50.466L45.8766 50.3962ZM40.4386 54.5106L40.4824 54.6005L40.482 54.6008L40.4386 54.5106ZM31.5327 54.9826L31.5718 54.8906L31.5737 54.8914L31.5327 54.9826ZM30.7221 54.8287L30.6754 54.7402L30.6774 54.7393L30.7221 54.8287ZM28.3314 55.5982L28.3104 55.5005L28.311 55.5003L28.3314 55.5982ZM24.9968 55.7419L24.9808 55.8406L24.9802 55.8405L24.9968 55.7419ZM11.9046 44.948L11.8186 44.999L11.8186 44.999L11.9046 44.948ZM8.06726 32.851L8.16699 32.8437L8.16701 32.8439L8.06726 32.851ZM8.28273 28.2955L8.18459 28.2762L8.18468 28.2758L8.28273 28.2955ZM13.7618 19.6152L13.7011 19.5357L13.7012 19.5356L13.7618 19.6152ZM28.2186 17.5631L28.1814 17.656L28.1808 17.6557L28.2186 17.5631ZM21.0978 23.2577L21.1197 23.3553L21.1195 23.3554L21.0978 23.2577ZM17.753 24.8173L17.8136 24.8969L17.8133 24.8971L17.753 24.8173ZM23.4577 23.2988L23.414 23.3887L23.4121 23.3878L23.4577 23.2988ZM24.0015 25.4637L24.0821 25.5229L24.0813 25.524L24.0015 25.4637ZM22.4419 26.2025L22.4525 26.3019L22.4516 26.302L22.4419 26.2025ZM20 27.0028L19.9453 26.919L19.9456 26.9189L20 27.0028ZM18.266 28.8804L18.3554 28.9251L18.3552 28.9256L18.266 28.8804ZM17.7119 30.912L17.6125 30.9011L17.6125 30.901L17.7119 30.912ZM17.4246 32.0303L17.3445 31.9705L17.3446 31.9703L17.4246 32.0303ZM14.8698 32.0509L14.9526 31.9947L14.953 31.9954L14.8698 32.0509ZM14.6338 30.9222H14.5338L14.5338 30.9218L14.6338 30.9222ZM32.7742 17.9838C32.7958 18.0814 32.7958 18.0814 32.7958 18.0814C32.7957 18.0815 32.7957 18.0815 32.7957 18.0815C32.7956 18.0815 32.7955 18.0815 32.7953 18.0815C32.7951 18.0816 32.7948 18.0817 32.7943 18.0818C32.7934 18.082 32.7922 18.0822 32.7906 18.0826C32.7874 18.0832 32.7827 18.0842 32.7766 18.0855C32.7644 18.088 32.7465 18.0915 32.7232 18.0959C32.6765 18.1046 32.608 18.1166 32.5197 18.1298C32.3433 18.1561 32.0878 18.1871 31.7701 18.2065C31.1347 18.2453 30.249 18.2375 29.2469 18.0513L29.2834 17.8547C30.2661 18.0373 31.135 18.0449 31.7579 18.0069C32.0693 17.9879 32.3189 17.9575 32.4903 17.9319C32.5759 17.9192 32.642 17.9076 32.6864 17.8993C32.7086 17.8952 32.7254 17.8918 32.7365 17.8895C32.7421 17.8884 32.7462 17.8875 32.7489 17.887C32.7502 17.8867 32.7512 17.8865 32.7518 17.8863C32.7521 17.8863 32.7523 17.8862 32.7524 17.8862C32.7525 17.8862 32.7525 17.8862 32.7525 17.8862C32.7526 17.8862 32.7525 17.8862 32.7526 17.8862C32.7525 17.8862 32.7525 17.8862 32.7742 17.9838ZM33.3592 17.8286L32.8154 18.0749L32.7329 17.8927L33.2767 17.6465L33.3592 17.8286ZM38.3763 16.6474C37.1006 16.6474 34.8263 17.1868 33.358 17.8292L33.2779 17.6459C34.7646 16.9955 37.0664 16.4474 38.3763 16.4474V16.6474ZM38.383 16.6473L38.3773 16.6473L38.3754 16.4474L38.3811 16.4473L38.383 16.6473ZM44.3993 17.5044C41.7395 16.649 39.4491 16.6372 38.383 16.6473L38.3811 16.4473C39.4542 16.4371 41.7701 16.4488 44.4605 17.314L44.3993 17.5044ZM45.729 18.1757L44.3849 17.4985L44.4749 17.3199L45.819 17.9971L45.729 18.1757ZM49.7157 20.9896C48.5025 19.7968 47.3929 19.0025 45.7295 18.176L45.8185 17.9968C47.5 18.8325 48.6271 19.6388 49.8559 20.847L49.7157 20.9896ZM53.433 28.0081C52.8518 25.2248 51.5987 22.8623 49.7153 20.9892L49.8563 20.8474C51.7693 22.75 53.0402 25.1483 53.6287 27.9672L53.433 28.0081ZM45.8049 50.3266C51.7276 44.23 54.8818 34.9665 53.4329 28.008L53.6287 27.9673C55.0938 35.0038 51.9072 44.3322 45.9484 50.4659L45.8049 50.3266ZM40.3949 54.4207C42.3212 53.483 43.8716 52.311 45.805 50.3265L45.9483 50.466C44.0032 52.4625 42.4345 53.6503 40.4824 54.6005L40.3949 54.4207ZM35.2777 55.6521C37.1489 55.6521 38.5296 55.3177 40.3953 54.4205L40.482 54.6008C38.5924 55.5094 37.1822 55.8521 35.2777 55.8521V55.6521ZM31.5737 54.8914C32.6781 55.3879 33.967 55.6521 35.2777 55.6521V55.8521C33.9412 55.8521 32.624 55.5828 31.4917 55.0738L31.5737 54.8914ZM30.6774 54.7393C30.7815 54.6872 30.8863 54.6731 31.0267 54.6997C31.1604 54.725 31.3311 54.7881 31.5718 54.8906L31.4935 55.0746C31.252 54.9719 31.0995 54.917 30.9895 54.8962C30.8863 54.8766 30.8269 54.8881 30.7668 54.9181L30.6774 54.7393ZM28.311 55.5003C28.6754 55.4244 29.1769 55.282 29.6345 55.1337C30.0942 54.9848 30.4994 54.8332 30.6754 54.7403L30.7688 54.9171C30.5754 55.0192 30.1546 55.1754 29.6961 55.324C29.2353 55.4733 28.7262 55.6181 28.3518 55.6961L28.311 55.5003ZM25.0129 55.6432C25.8809 55.7845 27.2225 55.7343 28.3104 55.5005L28.3525 55.696C27.2447 55.9341 25.8776 55.9866 24.9808 55.8406L25.0129 55.6432ZM11.9906 44.8969C13.6572 47.7036 15.8275 50.2085 18.1257 52.1031C20.4253 53.9987 22.8462 55.2778 25.0135 55.6433L24.9802 55.8405C22.7662 55.4672 20.3136 54.1658 17.9985 52.2574C15.6822 50.348 13.4969 47.8253 11.8186 44.999L11.9906 44.8969ZM8.16701 32.8439C8.47368 37.1373 9.72051 41.0725 11.9906 44.8969L11.8186 44.999C9.53316 41.1487 8.27647 37.1835 7.96752 32.8582L8.16701 32.8439ZM8.38087 28.3147C8.0956 29.7716 8.03413 31.045 8.16699 32.8437L7.96753 32.8584C7.83362 31.0454 7.89528 29.7538 8.18459 28.2762L8.38087 28.3147ZM13.8224 19.6947C10.9889 21.8555 9.06332 24.9126 8.38078 28.3151L8.18468 28.2758C8.87702 24.8244 10.8299 21.7253 13.7011 19.5357L13.8224 19.6947ZM28.1808 17.6557C23.4335 15.7201 18.0533 16.4731 13.8223 19.6948L13.7012 19.5356C17.9863 16.2727 23.441 15.5072 28.2563 17.4705L28.1808 17.6557ZM29.3358 18.0237C29.3142 18.0453 29.2898 18.0504 29.2824 18.0517C29.2723 18.0536 29.2641 18.0535 29.2599 18.0534C29.2511 18.0531 29.2436 18.0519 29.2397 18.0511C29.231 18.0495 29.2216 18.0471 29.2132 18.0447C29.1957 18.0398 29.1723 18.0323 29.1446 18.0229C29.0887 18.004 29.01 17.9757 28.9148 17.9403C28.724 17.8694 28.4642 17.7691 28.1814 17.656L28.2557 17.4703C28.5373 17.5829 28.7956 17.6826 28.9845 17.7528C29.079 17.788 29.1556 17.8155 29.2087 17.8334C29.2355 17.8425 29.255 17.8487 29.2675 17.8522C29.2741 17.8541 29.2765 17.8546 29.2761 17.8545C29.2758 17.8544 29.2748 17.8543 29.2734 17.8541C29.2721 17.8539 29.2694 17.8536 29.2658 17.8535C29.2628 17.8534 29.2555 17.8533 29.2462 17.855C29.2396 17.8562 29.2157 17.861 29.1944 17.8823L29.3358 18.0237ZM21.1195 23.3554C19.841 23.6395 18.8795 24.0847 17.8136 24.8969L17.6924 24.7378C18.7811 23.9082 19.7691 23.4506 21.0761 23.1601L21.1195 23.3554ZM23.4121 23.3878C23.2233 23.2911 22.8709 23.232 22.4453 23.2243C22.0242 23.2168 21.5474 23.2597 21.1197 23.3553L21.076 23.1602C21.5204 23.0608 22.0132 23.0166 22.4489 23.0244C22.8799 23.0321 23.2715 23.091 23.5033 23.2098L23.4121 23.3878ZM23.9209 25.4045C24.1401 25.1061 24.1891 24.6872 24.0905 24.294C23.9919 23.9008 23.7505 23.5523 23.414 23.3887L23.5014 23.2089C23.9037 23.4044 24.1753 23.81 24.2845 24.2453C24.3936 24.6806 24.3452 25.1647 24.0821 25.5229L23.9209 25.4045ZM22.4314 26.103C22.8656 26.057 23.1464 25.9993 23.3637 25.8966C23.5773 25.7956 23.7375 25.6475 23.9217 25.4035L24.0813 25.524C23.8859 25.7827 23.7024 25.9578 23.4491 26.0774C23.1996 26.1953 22.8904 26.2555 22.4525 26.3019L22.4314 26.103ZM19.9456 26.9189C20.7204 26.4163 21.3623 26.2068 22.4323 26.1029L22.4516 26.302C21.408 26.4033 20.7981 26.6043 20.0544 27.0867L19.9456 26.9189ZM18.1765 28.8357C18.5448 28.0992 19.1941 27.4094 19.9453 26.919L20.0546 27.0865C19.3284 27.5606 18.7054 28.2251 18.3554 28.9251L18.1765 28.8357ZM17.6125 30.901C17.669 30.388 17.7158 30.0553 17.7962 29.7584C17.8771 29.46 17.991 29.2015 18.1768 28.8352L18.3552 28.9256C18.1715 29.2878 18.0648 29.532 17.9893 29.8108C17.9133 30.0911 17.8678 30.4099 17.8113 30.9229L17.6125 30.901ZM17.3446 31.9703C17.3941 31.9043 17.4467 31.7814 17.4945 31.5962C17.5417 31.4137 17.5821 31.1802 17.6125 30.9011L17.8113 30.9228C17.7802 31.208 17.7385 31.4516 17.6882 31.6462C17.6386 31.8381 17.5783 31.9922 17.5046 32.0903L17.3446 31.9703ZM14.953 31.9954C15.2424 32.4295 15.6753 32.6406 16.1156 32.637C16.5567 32.6334 17.013 32.4142 17.3445 31.9705L17.5047 32.0902C17.1386 32.5802 16.6253 32.8329 16.1173 32.837C15.6085 32.8411 15.1128 32.5957 14.7866 32.1063L14.953 31.9954ZM14.7338 30.9222C14.7338 31.2454 14.7443 31.4464 14.7766 31.6007C14.8079 31.7502 14.8603 31.8588 14.9526 31.9947L14.7871 32.107C14.6843 31.9556 14.6188 31.8231 14.5808 31.6417C14.5439 31.4651 14.5338 31.2454 14.5338 30.9222H14.7338ZM17.8133 24.8971C15.939 26.3154 14.7439 28.667 14.7338 30.9227L14.5338 30.9218C14.5442 28.6014 15.7706 26.1921 17.6926 24.7376L17.8133 24.8971Z" fill="#FFCB58"/>
<path fill-rule="evenodd" clip-rule="evenodd" d="M45.0748 3.10304C42.7662 3.34929 40.591 3.96492 38.6108 4.92939C37.0409 5.69892 35.7994 6.5813 34.5477 7.81254C33.378 8.97196 32.6084 9.96722 31.7466 11.4858L31.1002 12.6144L30.6179 11.6191C29.6124 9.59785 27.6527 7.00198 26.7395 6.49922C26.2163 6.22219 25.9187 6.21193 25.3646 6.48896C25.0466 6.64287 24.8721 6.81729 24.7182 7.13536C24.3181 7.95619 24.4207 8.31531 25.4262 9.41316C27.2833 11.4755 28.5864 14.0098 29.1199 16.6159C29.2225 17.1597 29.3046 17.6112 29.2841 17.6317C29.2808 17.635 29.3299 18.0214 29.398 18.5573C29.5414 19.6856 29.769 21.4769 29.769 21.7505C29.769 21.7505 31.5341 22.1867 33.1728 20.5619C34.032 19.7099 36.1267 19.5218 38.3205 19.3247C40.7923 19.1026 43.3899 18.8692 44.4879 17.6625C46.5605 15.3847 48.5428 10.4289 48.9224 6.4274C49.0763 4.80626 49.0558 4.34455 48.8198 3.86231C48.4915 3.19539 48.0297 2.99018 46.8601 3.00044C46.3265 3.0107 45.5262 3.05174 45.0748 3.10304ZM45.793 6.75573C45.5159 9.13613 44.6336 11.7012 43.546 13.3326C42.9303 14.256 41.8222 15.3026 41.0527 15.7028C40.3755 16.0413 39.4623 16.2158 38.3953 16.226C37.1025 16.226 34.8144 16.7698 33.3369 17.4162L32.7931 17.6625L32.8547 17.2726C32.8957 17.0674 33.0394 16.4928 33.1728 16.0106C34.6297 10.8701 38.5184 7.40213 43.9974 6.3761C44.531 6.27349 45.1774 6.18115 45.4236 6.18115L45.8648 6.17089L45.793 6.75573Z" fill="#FFCB58"/>
<path d="M38.6108 4.92939L38.5667 4.8396L38.567 4.83949L38.6108 4.92939ZM45.0748 3.10304L45.0861 3.20241L45.0854 3.20248L45.0748 3.10304ZM34.5477 7.81254L34.4773 7.74152L34.4775 7.74125L34.5477 7.81254ZM31.7466 11.4858L31.8335 11.5351L31.8334 11.5355L31.7466 11.4858ZM31.1002 12.6144L31.187 12.6641L31.0928 12.8285L31.0102 12.658L31.1002 12.6144ZM30.6179 11.6191L30.7075 11.5746L30.7079 11.5755L30.6179 11.6191ZM26.7395 6.49922L26.7863 6.41083L26.7878 6.41162L26.7395 6.49922ZM25.3646 6.48896L25.4094 6.57841L25.4082 6.57898L25.3646 6.48896ZM24.7182 7.13536L24.8083 7.17892L24.8081 7.17918L24.7182 7.13536ZM25.4262 9.41316L25.5 9.34562L25.5005 9.34625L25.4262 9.41316ZM29.1199 16.6159L29.2179 16.5959L29.2182 16.5974L29.1199 16.6159ZM29.2841 17.6317L29.2134 17.561L29.2134 17.561L29.2841 17.6317ZM29.398 18.5573L29.4972 18.5447V18.5447L29.398 18.5573ZM29.769 21.7505L29.745 21.8475L29.669 21.8287V21.7505H29.769ZM33.1728 20.5619L33.2432 20.6329L33.1728 20.5619ZM38.3205 19.3247L38.3294 19.4243L38.3205 19.3247ZM44.4879 17.6625L44.5619 17.7298V17.7298L44.4879 17.6625ZM48.9224 6.4274L48.8228 6.41796L48.8228 6.41795L48.9224 6.4274ZM48.8198 3.86231L48.9095 3.81815L48.9096 3.81836L48.8198 3.86231ZM46.8601 3.00044L46.8581 2.90046L46.8592 2.90045L46.8601 3.00044ZM43.546 13.3326L43.4628 13.2771L43.546 13.3326ZM45.793 6.75573L45.6936 6.74417L45.6937 6.74354L45.793 6.75573ZM41.0527 15.7028L41.0988 15.7915L41.0974 15.7922L41.0527 15.7028ZM38.3953 16.226L38.3962 16.326H38.3953V16.226ZM33.3369 17.4162L33.2957 17.3251L33.2968 17.3246L33.3369 17.4162ZM32.7931 17.6625L32.8344 17.7536L32.6654 17.8301L32.6943 17.6469L32.7931 17.6625ZM32.8547 17.2726L32.7558 17.257L32.7566 17.253L32.8547 17.2726ZM33.1728 16.0106L33.0764 15.9839L33.0765 15.9833L33.1728 16.0106ZM43.9974 6.3761L44.0163 6.4743L44.0158 6.47439L43.9974 6.3761ZM45.4236 6.18115L45.4259 6.28115H45.4236V6.18115ZM45.8648 6.17089L45.8625 6.07092L45.9782 6.06823L45.9641 6.18308L45.8648 6.17089ZM33.3369 17.4162L33.2957 17.3251L33.2969 17.3246L33.3369 17.4162ZM32.7931 17.6625L32.8344 17.7536L32.6654 17.8301L32.6943 17.6469L32.7931 17.6625ZM38.567 4.83949C40.5581 3.86969 42.7446 3.25102 45.0642 3.00361L45.0854 3.20248C42.7877 3.44756 40.6238 4.06015 38.6545 5.01929L38.567 4.83949ZM34.4775 7.74125C35.7369 6.50256 36.9872 5.6139 38.5667 4.8396L38.6548 5.01918C37.0947 5.78393 35.862 6.66004 34.6178 7.88384L34.4775 7.74125ZM31.6596 11.4364C32.526 9.90993 33.3011 8.90738 34.4773 7.74152L34.6181 7.88356C33.4549 9.03655 32.6909 10.0245 31.8335 11.5351L31.6596 11.4364ZM31.0134 12.5647L31.6598 11.4361L31.8334 11.5355L31.187 12.6641L31.0134 12.5647ZM30.7079 11.5755L31.1902 12.5708L31.0102 12.658L30.5279 11.6627L30.7079 11.5755ZM26.7878 6.41162C27.0303 6.54515 27.3328 6.81122 27.6619 7.15825C27.993 7.50729 28.3574 7.94509 28.7239 8.42939C29.4565 9.39766 30.2014 10.5572 30.7075 11.5746L30.5284 11.6637C30.029 10.6598 29.2913 9.51075 28.5644 8.55007C28.201 8.06989 27.8414 7.63813 27.5168 7.29589C27.1903 6.95162 26.9054 6.70468 26.6913 6.58682L26.7878 6.41162ZM25.3199 6.39952C25.6027 6.25813 25.8325 6.18348 26.0649 6.18633C26.2973 6.18918 26.5193 6.26946 26.7863 6.41084L26.6927 6.5876C26.4365 6.45196 26.2481 6.38859 26.0624 6.38631C25.8766 6.38403 25.6806 6.44277 25.4094 6.57841L25.3199 6.39952ZM24.6282 7.0918C24.7086 6.9257 24.7966 6.79245 24.9092 6.67989C25.0217 6.56732 25.155 6.47932 25.3211 6.39895L25.4082 6.57898C25.2562 6.65251 25.1432 6.72867 25.0506 6.82131C24.958 6.91395 24.8818 7.02695 24.8083 7.17892L24.6282 7.0918ZM25.3525 9.4807C24.8516 8.9338 24.5584 8.55403 24.4495 8.19976C24.3369 7.83332 24.4247 7.50923 24.6284 7.09154L24.8081 7.17918C24.6116 7.58232 24.5507 7.8482 24.6407 8.14099C24.7344 8.44595 24.9953 8.79467 25.4999 9.34562L25.3525 9.4807ZM29.022 16.636C28.4922 14.0482 27.1977 11.5299 25.3519 9.48008L25.5005 9.34625C27.3689 11.4211 28.6806 13.9714 29.2179 16.5959L29.022 16.636ZM29.2134 17.561C29.1968 17.5776 29.1913 17.5952 29.19 17.5997C29.188 17.6062 29.1875 17.6109 29.1874 17.612C29.1871 17.6142 29.1874 17.6134 29.1872 17.6076C29.1868 17.5966 29.1853 17.5786 29.1822 17.5527C29.1761 17.5014 29.1649 17.4279 29.1496 17.3366C29.119 17.1543 29.073 16.9065 29.0217 16.6345L29.2182 16.5974C29.2695 16.8692 29.3158 17.1189 29.3468 17.3035C29.3623 17.3955 29.3741 17.4728 29.3808 17.5289C29.3841 17.5567 29.3865 17.5815 29.3871 17.6013C29.3874 17.6109 29.3874 17.6224 29.3862 17.6338C29.3856 17.6394 29.3843 17.6479 29.3815 17.6574C29.3792 17.6648 29.3727 17.6845 29.3548 17.7024L29.2134 17.561ZM29.2988 18.5699C29.2647 18.302 29.2354 18.0713 29.215 17.9071C29.2048 17.8251 29.1968 17.7593 29.1916 17.7138C29.189 17.6912 29.187 17.673 29.1857 17.6601C29.1851 17.6539 29.1846 17.6479 29.1843 17.6429C29.1841 17.6407 29.1839 17.637 29.1839 17.6329C29.1839 17.6312 29.184 17.6267 29.1846 17.6212C29.1849 17.6186 29.1856 17.6129 29.1874 17.6059C29.1881 17.6034 29.1935 17.5809 29.2134 17.561L29.3548 17.7024C29.3747 17.6826 29.38 17.6602 29.3806 17.6577C29.3825 17.6509 29.3831 17.6454 29.3834 17.6431C29.3839 17.638 29.3839 17.6342 29.3839 17.6333C29.3839 17.6309 29.3838 17.6296 29.3839 17.6306C29.384 17.6319 29.3842 17.6351 29.3848 17.6408C29.3858 17.6518 29.3877 17.6685 29.3903 17.6909C29.3954 17.7355 29.4033 17.8005 29.4135 17.8824C29.4339 18.0463 29.4631 18.2767 29.4972 18.5447L29.2988 18.5699ZM29.669 21.7505C29.669 21.6214 29.6133 21.1137 29.5379 20.4863C29.4632 19.8637 29.3705 19.1341 29.2988 18.5699L29.4972 18.5447C29.5689 19.1088 29.6616 19.839 29.7365 20.4625C29.8108 21.0813 29.869 21.6059 29.869 21.7505H29.669ZM33.2432 20.6329C32.4067 21.4623 31.5351 21.7678 30.8707 21.8644C30.5391 21.9127 30.2596 21.9089 30.0623 21.8929C29.9636 21.8849 29.8853 21.8738 29.8312 21.8646C29.8042 21.86 29.7832 21.8559 29.7686 21.8528C29.7614 21.8513 29.7557 21.85 29.7518 21.8491C29.7498 21.8487 29.7482 21.8483 29.7471 21.848C29.7465 21.8479 29.746 21.8478 29.7457 21.8477C29.7455 21.8477 29.7454 21.8476 29.7452 21.8476C29.7452 21.8476 29.7451 21.8476 29.7451 21.8476C29.745 21.8475 29.745 21.8475 29.769 21.7505C29.7929 21.6534 29.7929 21.6534 29.7929 21.6534C29.7929 21.6534 29.7928 21.6533 29.7928 21.6533C29.7928 21.6533 29.7928 21.6533 29.7929 21.6533C29.7929 21.6534 29.7931 21.6534 29.7934 21.6535C29.794 21.6536 29.795 21.6539 29.7964 21.6542C29.7992 21.6548 29.8037 21.6558 29.8097 21.6571C29.8219 21.6596 29.8404 21.6633 29.8648 21.6674C29.9136 21.6758 29.9861 21.6861 30.0784 21.6936C30.2633 21.7086 30.5275 21.7123 30.8419 21.6665C31.4698 21.5752 32.3002 21.2863 33.1024 20.4909L33.2432 20.6329ZM38.3294 19.4243C37.231 19.5229 36.1646 19.6189 35.2655 19.7958C34.3622 19.9736 33.6501 20.2294 33.2432 20.6329L33.1024 20.4909C33.5547 20.0424 34.3195 19.7782 35.2268 19.5996C36.1383 19.4202 37.2161 19.3235 38.3116 19.2251L38.3294 19.4243ZM44.5619 17.7298C43.9908 18.3575 43.0402 18.7227 41.9405 18.9606C40.8377 19.1991 39.5638 19.3134 38.3294 19.4243L38.3116 19.2251C39.549 19.1139 40.8098 19.0005 41.8982 18.7651C42.9898 18.529 43.8871 18.1743 44.414 17.5952L44.5619 17.7298ZM49.0219 6.43684C48.8311 8.44882 48.2378 10.6974 47.433 12.7282C46.6286 14.7577 45.6095 16.5784 44.5619 17.7298L44.414 17.5952C45.4389 16.4687 46.4472 14.6727 47.2471 12.6545C48.0464 10.6376 48.6341 8.40751 48.8228 6.41796L49.0219 6.43684ZM48.9096 3.81836C49.1601 4.33018 49.1753 4.8213 49.0219 6.43685L48.8228 6.41795C48.9773 4.79123 48.9515 4.35892 48.73 3.90627L48.9096 3.81836ZM46.8592 2.90045C47.4469 2.89529 47.8727 2.94355 48.1958 3.08593C48.5254 3.23118 48.7379 3.46959 48.9095 3.81815L48.7301 3.90648C48.5733 3.58812 48.3909 3.39046 48.1151 3.26894C47.8328 3.14455 47.4429 3.09533 46.8609 3.10044L46.8592 2.90045ZM45.0635 3.00368C45.5193 2.95189 46.3231 2.91075 46.8581 2.90046L46.862 3.10042C46.33 3.11066 45.5331 3.1516 45.0861 3.20241L45.0635 3.00368ZM43.4628 13.2771C44.54 11.6613 45.4181 9.11202 45.6936 6.74417L45.8923 6.76729C45.6138 9.16024 44.7271 11.7411 43.6292 13.3881L43.4628 13.2771ZM41.0066 15.614C41.3797 15.42 41.8414 15.0653 42.2882 14.6414C42.7343 14.2182 43.16 13.7313 43.4628 13.2771L43.6292 13.3881C43.3163 13.8574 42.8801 14.3555 42.4259 14.7865C41.9723 15.2167 41.4952 15.5854 41.0988 15.7915L41.0066 15.614ZM38.3943 16.126C39.4527 16.1159 40.3492 15.9427 41.008 15.6133L41.0974 15.7922C40.4018 16.14 39.472 16.3157 38.3962 16.326L38.3943 16.126ZM33.2968 17.3246C34.7836 16.6742 37.0854 16.126 38.3953 16.126V16.326C37.1195 16.326 34.8452 16.8655 33.377 17.5078L33.2968 17.3246ZM32.7519 17.5714L33.2957 17.3251L33.3782 17.5073L32.8344 17.7536L32.7519 17.5714ZM32.9535 17.2882L32.8919 17.6781L32.6943 17.6469L32.7559 17.257L32.9535 17.2882ZM33.2691 16.0372C33.1359 16.519 32.993 17.0907 32.9527 17.2922L32.7566 17.253C32.7984 17.044 32.9429 16.4666 33.0764 15.9839L33.2691 16.0372ZM44.0158 6.47439C38.5722 7.49379 34.7151 10.9358 33.269 16.0378L33.0765 15.9833C34.5444 10.8045 38.4646 7.31047 43.979 6.2778L44.0158 6.47439ZM45.4236 6.28115C45.1881 6.28115 44.5505 6.37157 44.0163 6.4743L43.9785 6.27789C44.5114 6.17542 45.1666 6.08115 45.4236 6.08115V6.28115ZM45.8671 6.27086L45.4259 6.28112L45.4213 6.08118L45.8625 6.07092L45.8671 6.27086ZM45.6937 6.74354L45.7655 6.1587L45.9641 6.18308L45.8922 6.76792L45.6937 6.74354ZM38.3953 16.326C37.1195 16.326 34.8453 16.8655 33.377 17.5078L33.2969 17.3246C34.7836 16.6742 37.0854 16.126 38.3953 16.126V16.326ZM33.3782 17.5073L32.8344 17.7536L32.7519 17.5714L33.2957 17.3251L33.3782 17.5073ZM32.6943 17.6469L32.7559 17.257L32.9535 17.2882L32.8919 17.6781L32.6943 17.6469Z" fill="#FFCB58"/>
</svg>
