<svg width="61" height="60" viewBox="0 0 61 60" fill="none" xmlns="http://www.w3.org/2000/svg">
<path fill-rule="evenodd" clip-rule="evenodd" d="M6.13672 25.5853V34.4716V43.1938C6.13672 43.7461 6.58443 44.1938 7.13672 44.1938H53.8633C54.4156 44.1938 54.8633 43.7461 54.8633 43.1938V34.4716V25.7459C54.8633 25.195 54.4177 24.7478 53.8667 24.7459L7.14016 24.5854C6.58653 24.5835 6.13672 25.0317 6.13672 25.5853ZM16.0507 33.085C18.0757 30.4242 21.2398 28.5635 24.6992 28.0146C25.8171 27.8378 28.3589 27.8285 29.5085 28.0053C32.0398 28.396 34.3918 29.4659 36.3218 31.1034L37.2394 31.8849L38.3468 30.4242C38.948 29.6148 39.5808 28.8798 39.7496 28.7868C40.0132 28.6286 40.2769 28.61 42.3125 28.61C44.8121 28.61 44.9386 28.6379 45.3816 29.224C45.5714 29.4845 45.582 29.7543 45.582 34.4713C45.582 39.1882 45.5714 39.458 45.3816 39.7185C44.9386 40.3046 44.8121 40.3325 42.3125 40.3325C40.2769 40.3325 40.0132 40.3139 39.7496 40.1557C39.5808 40.0627 38.948 39.3277 38.3468 38.5276L37.2394 37.067L36.2902 37.8578C34.6132 39.2719 32.6726 40.2302 30.4472 40.7605C29.0339 41.0861 26.4183 41.1791 24.8679 40.9466C21.282 40.4069 18.1179 38.5834 16.0507 35.8575C15.4601 35.0667 15.4179 34.983 15.4179 34.4713C15.4179 33.9596 15.4601 33.8758 16.0507 33.085ZM23.7078 33.2528C23.2227 33.5412 23.0117 33.8948 23.0117 34.4716C23.0117 35.0484 23.2227 35.402 23.7078 35.6904C24.1086 35.923 25.0262 35.9323 25.4586 35.6997C26.45 35.188 26.45 33.7552 25.4586 33.2342C25.0262 33.0109 24.1086 33.0202 23.7078 33.2528Z" fill="#FFCB58"/>
<path d="M7.19142 11.1192C7.7504 9.50039 9.13204 8.27232 10.9777 7.7141C11.6316 7.51873 11.8531 7.50942 14.627 7.50012C17.8859 7.50012 17.9281 7.50942 18.3816 8.11415C18.6559 8.48629 18.6559 9.2864 18.3711 9.68645C17.9809 10.2447 17.7594 10.2819 14.8379 10.3191C12.3172 10.347 12.1801 10.3563 11.7266 10.561C10.7352 11.0169 10.25 11.6867 10.25 12.6171C10.25 13.5381 10.7141 14.1987 11.6738 14.6453L12.2012 14.8965L33.7695 14.943L55.3379 14.9895L55.7703 15.1942C56.477 15.5291 56.8356 15.8454 57.1731 16.4502L57.5 17.0177V17.825V20.123L57.152 20.7091C56.7617 21.3789 56.1922 21.8162 55.3906 22.0674L54.8633 22.2349L6.13673 22.0674H5.60938C4.80782 21.8162 4.23829 21.3789 3.84806 20.7091L3.50001 20.123V17.8343L3.5 16.5001C3.85859 15.821 4.48087 15.5477 5.2086 15.2314C5.76759 14.9802 5.96798 14.943 6.69571 14.943C7.44454 14.943 7.51837 14.9244 7.45509 14.7755C6.92774 13.6591 6.81173 12.1798 7.19142 11.1192Z" fill="#FFCB58"/>
<path d="M5.87305 46.5H54.8633L55.3906 46.6429C56.1922 46.8571 56.7617 47.2302 57.152 47.8016L57.5 48.3016V50.254C57.5 52.1429 57.4895 52.2302 57.2469 52.6111C56.8883 53.1905 56.5191 53.4841 55.7914 53.754L55.148 54H30.5105H5.87305L5.3457 53.8095C4.57578 53.5397 4.18555 53.2619 3.82695 52.7143L3.5 52.2302V50.2619V48.3016L3.84805 47.8016C4.23828 47.2302 5.07148 46.7143 5.87305 46.5Z" fill="#FFCB58"/>
</svg>
