<svg width="61" height="60" viewBox="0 0 61 60" fill="none" xmlns="http://www.w3.org/2000/svg">
<path d="M7.18238 3.15647C5.49452 3.63677 4.08093 5.04565 3.64842 6.67866C3.51128 7.18031 3.47963 7.63926 3.51128 8.42908C3.54293 9.40036 3.58512 9.56045 3.95434 10.3076C4.76663 11.9726 6.15911 12.9546 8.04741 13.1894L8.55377 13.2534L8.54322 11.5991V9.95537L8.10015 9.82729C7.29842 9.61382 6.76041 8.92006 6.76041 8.07687C6.76041 7.46849 6.96085 7.05223 7.4672 6.66799L7.84697 6.36914L19.008 6.31577C30.1267 6.2624 30.1689 6.2624 30.4643 6.03826C30.6226 5.92086 30.8757 5.65403 31.0023 5.45123C31.4981 4.72545 31.1289 3.49802 30.3272 3.15647C29.8314 2.94301 7.92082 2.95368 7.18238 3.15647Z" fill="#FFCB58"/>
<path d="M11.645 11.8337C11.7189 14.4701 12.0564 15.8576 13.143 18.1097C15.1473 22.2936 19.0822 25.3782 23.6183 26.3281C24.9475 26.6163 26.6248 26.7017 30.9499 26.7017H35.0325V24.5883C35.0325 23.425 35.0008 19.6466 34.9586 16.2098L34.8953 9.94457H23.2385H11.5923L11.645 11.8337ZM23.2596 15.484C24.1985 16.1137 24.1985 17.4372 23.2596 18.067C22.6161 18.4939 21.5085 18.2057 21.1603 17.5226C20.9599 17.117 20.9599 16.4233 21.1603 16.0177C21.519 15.3239 22.6056 15.0464 23.2596 15.484Z" fill="#FFCB58"/>
<path d="M38.0382 18.7182L38.112 27.5023L38.3441 27.6838C38.4602 27.7905 38.65 27.8972 38.745 27.9293C38.9138 27.9933 54.4421 20.9596 54.6953 20.7141C54.8219 20.5967 54.5687 20.1377 53.6826 18.8676C51.7732 16.1246 49.2308 13.8832 46.3087 12.3462C43.7242 11.0014 41.5511 10.3396 38.5762 9.9981L37.9644 9.92339L38.0382 18.7182Z" fill="#FFCB58"/>
<path d="M48.4825 26.9687C44.3683 28.8686 40.9926 30.4696 40.9926 30.5123C41.0031 30.555 41.1297 31.0032 41.2879 31.4942C41.8154 33.1165 41.7627 34.7816 41.1403 36.2972C41.0137 36.596 40.9293 36.8629 40.9504 36.8842C41.0242 36.9589 54.1473 42.8293 54.179 42.7972C54.3478 42.5411 55.044 41.2816 55.3921 40.5879C56.3627 38.624 57.0378 36.3933 57.3543 34.1092C57.618 32.1773 57.5125 28.7298 57.1327 26.9154C56.8268 25.4424 56.2466 23.5746 56.0778 23.5426C56.0251 23.5319 52.6072 25.0689 48.4825 26.9687Z" fill="#FFCB58"/>
<path d="M17.5096 36.0831C16.518 36.4033 16.4652 36.5741 16.4652 39.157C16.4652 40.6086 16.518 41.5052 16.6234 42.0175C16.7817 42.7646 17.3302 44.0668 17.7417 44.6431L17.9526 44.9526H21.3178H24.683L24.799 44.4937C25.3792 42.1989 26.7401 40.2564 28.6706 39.0076C29.0187 38.7728 29.4617 38.5166 29.6411 38.4419C29.8204 38.3672 29.9681 38.2711 29.9681 38.2285C29.9681 38.079 28.6917 37.1611 28.0376 36.8196C26.6557 36.1151 26.2232 36.0618 21.7925 36.0298C19.5878 36.0084 17.6573 36.0298 17.5096 36.0831Z" fill="#FFCB58"/>
<path d="M38.3867 39.5833L37.9858 39.8608V46.0727C37.9858 49.4881 38.0069 52.3059 38.0386 52.3272C38.123 52.4126 39.6421 52.2312 40.8341 51.9857C43.8828 51.3666 46.8893 49.9577 49.4528 47.9512C50.5499 47.0973 52.1533 45.5177 52.1006 45.3576C52.0689 45.2828 38.777 39.2311 38.777 39.3058C38.777 39.3058 38.5977 39.4339 38.3867 39.5833Z" fill="#FFCB58"/>
<path d="M31.9308 40.8433C29.8737 41.4197 28.228 43.1487 27.7533 45.262C27.5529 46.1159 27.6689 47.7276 27.9854 48.5921C28.3441 49.5634 29.1247 50.6307 29.8842 51.2071C31.0763 52.093 32.1417 52.4238 33.8507 52.4238H34.9267V46.5535V40.6832L33.6925 40.6939C33.0068 40.6939 32.2156 40.7686 31.9308 40.8433Z" fill="#FFCB58"/>
<path d="M17.7418 48.4323C17.362 48.9232 16.8979 49.9906 16.6658 50.8978C16.4759 51.6663 16.4548 52.0398 16.4864 54.0144L16.5181 56.2665L16.8662 56.608L17.2038 56.9602L21.3707 56.9923C25.2633 57.0136 25.6009 57.0029 26.4448 56.8001C27.4892 56.5547 28.7445 55.9249 29.4724 55.2952L29.9788 54.8576L29.1032 54.356C28.0166 53.7476 26.4132 52.1786 25.8224 51.1433C25.411 50.4175 24.989 49.3715 24.7992 48.603L24.6831 48.1548H21.3179H17.9528L17.7418 48.4323Z" fill="#FFCB58"/>
</svg>
