<svg width="61" height="60" viewBox="0 0 61 60" fill="none" xmlns="http://www.w3.org/2000/svg">
<path d="M5.01389 26.5546C5.06226 22.6656 5.1203 22.1916 5.80717 20.1309C6.02212 19.4851 6.28361 18.8516 6.58872 18.2326C6.85196 17.6985 7.53991 17.5524 8.04218 17.8721C10.6662 19.5425 18.639 24 29 24C41.0817 24 48.8521 19.6319 51.4291 17.9235C51.9402 17.5846 52.6553 17.7279 52.9257 18.2783C53.5222 19.4922 53.9647 20.7687 54.2365 22.0948C54.43 23.0332 54.459 23.4976 54.4977 26.6127C54.5364 30.2986 54.459 31.6143 54.1204 33.2976C53.2013 37.7671 50.3087 42.4398 46.4487 45.6903C44.3687 47.451 42.2791 48.67 38.748 50.2082C34.5784 52.0269 33.4659 52.6654 31.5407 54.3971C29.8961 55.8676 29.6058 55.8676 27.9612 54.3971C26.036 52.6654 24.9235 52.0269 20.7539 50.2082C17.2228 48.67 15.1332 47.451 13.0532 45.6903C9.19316 42.4398 6.30056 37.7671 5.38151 33.2976C5.03323 31.5949 4.96551 30.2889 5.01389 26.5546Z" fill="#FFCB58"/>
<path d="M47.5466 9.4593C43.3943 6.70733 38.2428 5.05216 32.4696 4.60347C25.02 4.03513 17.4371 5.8299 11.9748 9.44933C10.7979 10.2271 8.76169 11.6928 8.21108 12.6818C8.00251 13.0565 7.86505 13.3636 8.21108 13.6479C10.6869 15.682 14.7282 17.4161 19.2357 18.4132C22.9772 19.2408 25.4641 19.5 29.7496 19.5C34.0351 19.5 36.522 19.2408 40.2634 18.4132C44.771 17.4161 48.8122 15.6712 51.288 13.6371C51.7321 13.2782 51.3503 12.6713 51.288 12.48C50.9661 11.491 48.7012 10.2271 47.5466 9.4593Z" fill="#FFCB58"/>
</svg>
