<svg width="28" height="34" viewBox="0 0 28 34" fill="none" xmlns="http://www.w3.org/2000/svg">
<path d="M2.95178 0.483154C1.84501 0.860756 0.972616 1.8243 0.744751 2.92456C0.640584 3.41935 0.640584 30.5938 0.744751 31.0756C0.985636 32.1954 1.90361 33.198 3.00387 33.5365C3.41402 33.6667 3.62887 33.6667 14.2148 33.6667C24.8007 33.6667 25.0156 33.6667 25.4257 33.5365C26.2395 33.2891 27.0143 32.6316 27.3919 31.8829C27.776 31.1147 27.7565 31.7071 27.7565 20.5092C27.7565 13.5235 27.7369 10.1772 27.6914 10.0535C27.6132 9.84513 18.3815 0.574299 18.108 0.424561C17.9583 0.346436 16.858 0.333412 10.6536 0.333412L3.37496 0.339924L2.95178 0.483154ZM16.5716 6.66154C16.5911 10.7957 16.5976 10.9194 16.7213 11.0886C16.7929 11.1863 16.9557 11.323 17.0859 11.3946C17.3203 11.5313 17.3984 11.5313 21.4674 11.5313H25.608V21.0691C25.608 30.4701 25.608 30.6134 25.4778 30.8673C25.3151 31.1928 25.0026 31.4272 24.6315 31.5118C24.2278 31.6029 4.20178 31.6029 3.79814 31.5118C3.42704 31.4272 3.11454 31.1928 2.95178 30.8673C2.82157 30.6134 2.82157 30.4636 2.82157 17.0001C2.82157 3.53654 2.82157 3.3868 2.95178 3.13289C3.10803 2.82039 3.43355 2.56649 3.77209 2.48836C3.91532 2.45581 6.72131 2.42977 10.289 2.42326L16.5586 2.41675L16.5716 6.66154ZM21.4088 6.71362L24.0781 9.38289H21.3893H18.707V6.71362C18.707 5.24227 18.7135 4.04435 18.7265 4.04435C18.733 4.04435 19.944 5.24227 21.4088 6.71362Z" fill="black"/>
</svg>
