<svg width="61" height="60" viewBox="0 0 61 60" fill="none" xmlns="http://www.w3.org/2000/svg">
<path d="M10.0561 46.9417C10.2222 46.537 13.6056 40.0527 16.7267 33.9735C16.8951 33.6456 17.23 33.4368 17.5986 33.4302L20.5662 33.3769C20.5662 33.4089 25.0415 33.441 30.4995 33.441C35.9682 33.441 40.4328 33.4089 40.4328 33.3769H43.3886C43.7639 33.3769 44.1075 33.587 44.2787 33.921C47.3888 39.991 50.7769 46.5373 50.9429 46.9417C52.4382 50.6266 50.8254 54.9524 47.2793 56.7575C45.4422 57.6974 46.7452 57.6334 30.4995 57.6334C18.7398 57.6334 16.0268 57.612 15.5462 57.4838C14.6169 57.2595 13.0895 56.4905 12.3632 55.8817C9.72503 53.6814 8.79579 50.0606 10.0561 46.9417Z" fill="#FFCB58"/>
<path d="M20.1492 5.22933C20.1492 4.59834 20.3934 4.16452 20.9012 3.91804C21.1941 3.77015 22.1805 3.75044 30.8229 3.75044C41.4477 3.75044 40.852 3.711 41.3207 4.38143C41.6235 4.80538 41.6235 5.65327 41.3207 6.07722C40.9789 6.56033 40.559 6.70822 39.5434 6.70822H38.6548V14.7139V22.7197L42.1572 30.0341C42.3161 30.3659 42.0742 30.75 41.7062 30.75H39.5434H22.1414H19.3561C18.9735 30.75 18.7326 30.3376 18.9207 30.0043L23.0301 22.7197V14.7139V6.70822H22.1414C20.7156 6.70822 20.1492 6.28427 20.1492 5.22933Z" fill="#FFCB58"/>
</svg>
