<svg width="61" height="60" viewBox="0 0 61 60" fill="none" xmlns="http://www.w3.org/2000/svg">
<path d="M27.5263 1.6599C26.8974 1.74664 26.3336 1.83338 26.2577 1.8659C26.0951 1.92012 25.4879 3.1128 25.0216 4.27295C24.0241 6.75589 23.5145 9.3581 23.5145 11.9711C23.5145 12.8385 23.5362 12.9903 23.6772 12.947C23.7639 12.9036 24.2843 12.5892 24.8373 12.2422C27.8515 10.3231 31.332 9.08703 34.9534 8.63165C36.5147 8.43648 39.5723 8.45817 41.1228 8.68586C42.5757 8.89187 44.343 9.32557 45.7959 9.83517C46.9669 10.2363 49.5366 11.4832 50.4908 12.1013C50.8594 12.3506 51.2172 12.5458 51.2823 12.5458C51.4124 12.5458 50.6968 11.4832 49.9486 10.5725C47.9753 8.17626 45.9261 6.39808 43.3564 4.8476C40.6132 3.18869 37.3821 2.07191 34.1077 1.64905C32.5138 1.44305 29.0984 1.45389 27.5263 1.6599Z" fill="#FFCB58"/>
<path d="M16.7272 5.9425C14.7972 7.29782 12.7372 9.30368 11.2626 11.2987C8.75796 14.6707 7.18579 18.5415 6.65451 22.6617C6.4485 24.3206 6.4485 27.4432 6.65451 29.1022C7.72792 37.375 12.954 44.466 20.7498 48.2284C22.6256 49.1392 24.5447 49.7463 27.2553 50.2885C27.7215 50.3861 31.1261 50.4403 39.3447 50.4836C50.5342 50.5487 50.7945 50.5487 51.1414 50.7655C51.6402 51.0583 51.9221 51.557 51.9221 52.1209C51.9221 52.6847 51.6402 53.1834 51.1414 53.4762C50.7945 53.6822 50.5342 53.693 45.3624 53.7472C40.4941 53.7906 39.9194 53.8231 39.6809 53.9858C39.2255 54.3111 39.0195 54.7339 39.0195 55.3736C39.0195 56.0459 39.2363 56.4579 39.7351 56.794C40.0278 56.9892 40.3423 57 45.6985 57C51.0113 57 51.38 56.9892 51.9546 56.794C54.0147 56.0784 55.2833 54.3002 55.2833 52.1209C55.2833 49.9415 54.0147 48.1633 51.9546 47.4477C51.3908 47.2634 51.0113 47.2417 47.2706 47.2309C44.0721 47.2309 43.2372 47.1983 43.3999 47.1008C45.5141 45.7563 47.9646 43.5769 49.7102 41.4735C50.6427 40.3567 51.4342 39.2182 51.2824 39.2182C51.2173 39.2182 50.8595 39.4134 50.4909 39.6628C49.5367 40.2808 46.967 41.5277 45.7961 41.9289C44.4082 42.4168 42.6409 42.8505 41.188 43.0782C39.4749 43.3492 36.0703 43.3492 34.368 43.089C28.1553 42.124 22.7557 39.0448 18.8957 34.2632C16.0984 30.7936 14.3852 26.8578 13.6913 22.3039C13.4636 20.7859 13.4311 17.5115 13.6371 16.0152C14.1575 12.2095 15.3936 8.82661 17.4211 5.73649C17.6488 5.37869 17.4537 5.44374 16.7272 5.9425Z" fill="#FFCB58"/>
<path d="M20.4788 6.8205C15.1226 14.4211 15.3394 24.483 21.0318 31.9643C21.3787 32.4197 22.1594 33.298 22.7774 33.9268C27.9168 39.1421 35.4415 41.2889 42.6626 39.5975C45.113 39.0228 47.3466 38.047 49.5693 36.5724C50.6427 35.8568 50.9897 35.5424 50.5452 35.6833C50.4367 35.7159 49.8838 35.8351 49.3199 35.9544C46.2624 36.5833 42.565 36.5507 39.4099 35.846C37.957 35.5315 35.7234 34.7509 34.3356 34.0895C27.7758 30.9668 23.0268 25.2094 21.1836 18.1401C20.2403 14.5187 20.121 10.5395 20.8691 7.26505C21.0101 6.62534 21.1077 6.09405 21.086 6.06152C21.0535 6.03984 20.7824 6.37596 20.4788 6.8205Z" fill="#FFCB58"/>
<path d="M35.7885 11.6892C31.6466 12.0904 27.6566 13.7276 24.3279 16.4165L24.0352 16.6659L24.2195 17.4466C24.5339 18.7152 25.0977 20.1898 25.8675 21.7402C26.2687 22.5317 26.6265 23.204 26.6916 23.2473C26.7458 23.2799 27.2554 22.8353 27.83 22.2607C31.5924 18.5308 36.3631 16.2105 41.7302 15.5275C44.1481 15.213 47.5743 15.3973 50.0247 15.9612C50.4259 16.0587 50.7729 16.113 50.7945 16.0913C50.8596 16.0262 49.2657 14.9094 48.3658 14.3998C44.6468 12.253 40.093 11.2663 35.7885 11.6892Z" fill="#FFCB58"/>
<path d="M42.3807 18.5848C41.6543 18.6607 39.605 19.0619 38.8569 19.2788C36.4932 19.9618 34.1946 21.1111 32.0911 22.6725C30.9744 23.4965 28.7191 25.6542 28.7191 25.8927C28.7191 26.0662 30.6382 27.9853 31.484 28.6684C32.1128 29.1672 33.2947 29.9803 33.544 30.0671C33.6633 30.1105 33.8476 29.9803 34.1187 29.6659C34.6825 29.0154 36.6775 27.3239 37.8052 26.5541C40.8411 24.4832 44.3432 23.117 48.0188 22.564C49.3741 22.358 52.6052 22.293 54.1882 22.4448L55.0882 22.5315L55.0231 22.0111C54.9038 21.1654 54.8713 21.122 53.9497 20.6558C52.0089 19.6908 49.7536 18.9969 47.4875 18.6824C46.3816 18.5198 43.465 18.4656 42.3807 18.5848Z" fill="#FFCB58"/>
<path d="M49.3742 25.5672C45.4926 25.9792 41.7953 27.4213 38.7594 29.709C37.7185 30.5006 36.5583 31.5848 36.6451 31.6824C36.8077 31.845 38.8461 32.4956 39.9954 32.745C44.636 33.775 49.732 33.1895 53.7654 31.1728L54.9039 30.5981L55.034 29.7849C55.1099 29.3404 55.2075 28.2561 55.24 27.3887L55.3159 25.8057L54.9473 25.7298C53.4727 25.4588 51.0657 25.3937 49.3742 25.5672Z" fill="#FFCB58"/>
</svg>
