<svg width="61" height="60" viewBox="0 0 61 60" fill="none" xmlns="http://www.w3.org/2000/svg">
<path fill-rule="evenodd" clip-rule="evenodd" d="M10.2835 6.21764C9.77204 6.53321 9.5 7.04464 9.5 7.68666C9.5 8.12193 9.68499 8.69866 10.3705 10.4071L11.2411 12.5725V30.375V48.1775L10.3705 50.3429C9.68499 52.0513 9.5 52.6281 9.5 53.0633C9.5 53.7054 9.77204 54.2168 10.2835 54.5324C10.6426 54.75 10.882 54.75 30.3929 54.75C49.9037 54.75 50.1431 54.75 50.5022 54.5324C51.0246 54.2168 51.2857 53.7162 51.2857 53.0307C51.2857 52.5628 51.1225 52.0513 50.4152 50.2994L49.5446 48.1339V30.375V12.6161L50.4152 10.4506C51.1225 8.69866 51.2857 8.18722 51.2857 7.71931C51.2857 7.03376 51.0246 6.53321 50.5022 6.21764C50.1431 6 49.9037 6 30.3929 6C10.882 6 10.6426 6 10.2835 6.21764ZM18.2054 14.7054C18.2054 13.998 18.4665 13.5084 18.9888 13.1819C19.3371 12.9643 19.5656 12.9643 30.3929 12.9643C41.2201 12.9643 41.4487 12.9643 41.7969 13.1819C42.3192 13.5084 42.5804 13.998 42.5804 14.7054C42.5804 15.4127 42.3192 15.9023 41.7969 16.2288C41.4487 16.4464 41.2201 16.4464 30.3929 16.4464C19.5656 16.4464 19.3371 16.4464 18.9888 16.2288C18.4665 15.9023 18.2054 15.4127 18.2054 14.7054ZM27.803 20.1137C27.1174 20.451 26.791 21.2562 26.9651 22.1703C27.0195 22.4859 27.2371 22.7906 27.8465 23.4108L28.6518 24.2378V25.7286C28.6518 26.5447 28.63 27.2194 28.5974 27.2194C28.4885 27.2194 26.0402 25.7721 25.9531 25.6524C25.8987 25.5872 25.7463 25.1192 25.6158 24.6078C25.3437 23.5958 25.0826 23.1605 24.6473 22.932C23.8312 22.5294 23.015 22.66 22.4274 23.2802C21.9486 23.7917 21.8181 24.3358 22.003 25.0213C22.0683 25.2825 22.101 25.5327 22.0683 25.5763C22.0466 25.6307 21.7963 25.7286 21.5243 25.8048C20.8605 25.9898 20.3164 26.5992 20.2184 27.2629C20.1532 27.6656 20.1858 27.8614 20.3926 28.2749C20.8931 29.2869 21.5895 29.4828 23.2327 29.0584L24.1032 28.8408L25.3981 29.5807C26.1054 29.9834 26.6931 30.3425 26.6931 30.3751C26.6931 30.4077 26.1054 30.7668 25.3981 31.1695L24.1032 31.9094L23.2 31.6809C21.6331 31.2783 20.8387 31.485 20.3817 32.3991C20.1205 32.9323 20.1096 33.3785 20.3381 33.9661C20.5449 34.4666 20.9366 34.7931 21.6004 34.9889C22.003 35.0978 22.0683 35.1631 22.0357 35.3916C22.0139 35.533 21.9922 35.9357 21.9813 36.273C21.9595 36.9694 22.1445 37.3176 22.7865 37.7529C23.0912 37.9705 23.2653 38.0032 23.8094 37.9705C24.8649 37.9052 25.2893 37.4482 25.6593 35.9792C25.7681 35.5548 25.8987 35.1631 25.9531 35.0978C26.0402 34.9781 28.4885 33.5308 28.5974 33.5308C28.63 33.5308 28.6518 34.2055 28.6518 35.0325V36.5341L27.9336 37.2306C27.1392 38.0141 26.9107 38.4167 26.9107 39.0913C26.9107 40.6801 28.7497 41.4091 29.9684 40.3101L30.4037 39.9184L30.7519 40.2448C31.2525 40.7236 31.5028 40.8215 32.1557 40.8215C33.2112 40.8215 33.875 40.1578 33.875 39.1022C33.875 38.3623 33.7226 38.1011 32.8521 37.2306L32.1339 36.5341V35.0325C32.1339 34.2055 32.1557 33.5308 32.1883 33.5308C32.2971 33.5308 34.7455 34.9781 34.8326 35.0978C34.887 35.1631 35.0176 35.5548 35.1264 35.9792C35.4963 37.4482 35.9207 37.9052 36.9763 37.9705C37.8033 38.0249 38.2712 37.742 38.652 36.9694C38.9023 36.4797 38.9132 36.3927 38.7935 35.8377C38.7282 35.5113 38.6956 35.2066 38.7173 35.1631C38.75 35.1195 38.9785 35.0216 39.2397 34.9563C39.8926 34.7931 40.4693 34.1619 40.5672 33.4873C40.6325 33.0846 40.5999 32.8888 40.3931 32.4753C39.8926 31.4633 39.1961 31.2674 37.553 31.6918L36.6825 31.9094L35.3875 31.1695C34.6802 30.7668 34.0926 30.4077 34.0926 30.3751C34.0926 30.3425 34.6802 29.9834 35.3984 29.5699L36.7042 28.8299L37.553 29.0584C39.1635 29.4937 39.8817 29.2869 40.3931 28.2749C40.5999 27.8614 40.6325 27.6656 40.5672 27.2629C40.4693 26.5992 39.9252 25.9898 39.2614 25.8048C38.9894 25.7286 38.7391 25.6307 38.7173 25.5872C38.6847 25.5327 38.7173 25.2498 38.7935 24.9451C39.1526 23.3673 37.6183 22.1921 36.1384 22.932C35.7031 23.1605 35.4419 23.5958 35.1699 24.6078C35.0393 25.1192 34.887 25.5872 34.8326 25.6524C34.7455 25.7721 32.2971 27.2194 32.1883 27.2194C32.1557 27.2194 32.1339 26.5447 32.1339 25.7177V24.2161L32.8521 23.5196C33.2438 23.1279 33.6356 22.6817 33.7226 22.5185C33.9294 22.1268 33.9185 21.2998 33.7009 20.8427C33.2112 19.8199 31.7313 19.6131 30.8172 20.4401L30.382 20.8319L30.0337 20.4945C29.8379 20.3095 29.5441 20.1028 29.3808 20.0484C28.9347 19.8743 28.2165 19.9069 27.803 20.1137ZM35.6161 46.0446C35.6161 45.3373 35.8772 44.8477 36.3996 44.5212C36.726 44.3253 36.9545 44.3036 39.0982 44.3036C41.2419 44.3036 41.4704 44.3253 41.7969 44.5212C42.3192 44.8477 42.5804 45.3373 42.5804 46.0446C42.5804 46.752 42.3192 47.2416 41.7969 47.5681C41.4704 47.7639 41.2419 47.7857 39.0982 47.7857C36.9545 47.7857 36.726 47.7639 36.3996 47.5681C35.8772 47.2416 35.6161 46.752 35.6161 46.0446Z" fill="#FFCB58"/>
</svg>
