<svg width="61" height="60" viewBox="0 0 61 60" fill="none" xmlns="http://www.w3.org/2000/svg">
<g clip-path="url(#clip0_1297_13703)">
<path d="M16.2026 0.165274C8.79726 1.33754 2.8237 6.77686 1.00464 13.998C0.816869 14.7131 0.629095 15.6744 0.593887 16.1433L0.5 16.9873H19.1366H37.7614L37.6793 16.3074C37.3389 13.4588 36.3296 10.7743 34.6162 8.16013C33.6656 6.71825 31.3654 4.36199 29.8866 3.33039C27.7038 1.80645 24.9224 0.669348 22.2818 0.223886C20.7092 -0.0457344 17.7283 -0.0809021 16.2026 0.165274Z" fill="#FFCB58"/>
<path d="M0.594114 21.1723C0.711473 22.2508 1.23959 24.3492 1.69729 25.4863C3.93884 31.1014 8.77402 35.3451 14.4894 36.7401C16.2498 37.1621 17.2356 37.2793 19.1368 37.2793C21.5544 37.2793 23.2326 36.998 25.4976 36.2008C31.9759 33.9149 36.7876 27.9246 37.6795 20.9965L37.7616 20.3869H19.1368H0.511963L0.594114 21.1723Z" fill="#FFCB58"/>
<path d="M41.0946 21.2315C41.0712 21.3839 40.9303 22.1107 40.7895 22.8493C40.3553 25.229 39.3577 27.8314 38.0785 29.9766C36.3064 32.9308 33.6306 35.6153 30.6027 37.4909C28.15 39.0031 24.7583 40.2105 22.1647 40.5036L21.4253 40.5857V41.289C21.4253 42.9771 22.0238 45.814 22.7867 47.7482C23.2444 48.897 24.2184 50.7375 24.6527 51.2885L24.9226 51.6284L25.2042 51.3822C25.3451 51.2533 31.9758 45.7671 39.9093 39.2024C47.8545 32.6377 54.4735 27.1515 54.6261 26.9991L54.9195 26.7295L54.6261 26.413C53.4525 25.1352 50.6594 23.3064 48.5938 22.439C46.5401 21.5715 43.8526 20.9854 41.9983 20.9736C41.212 20.9736 41.1416 20.9971 41.0946 21.2315Z" fill="#FFCB58"/>
<path d="M42.1272 41.7343C33.9356 48.51 27.1874 54.1017 27.1288 54.1604C26.9997 54.2776 28.0559 55.274 29.2647 56.1884C31.8114 58.1109 35.1444 59.4473 38.5243 59.9045C40.0265 60.1037 43.4299 59.9748 44.8969 59.67C47.1267 59.2128 49.603 58.2281 51.4572 57.0559C56.3042 54.008 59.6489 48.8265 60.3882 43.1645C60.6112 41.5468 60.4821 37.7369 60.1653 36.3888C59.7545 34.5952 59.0386 32.6258 58.4283 31.5356C57.6655 30.1875 57.1843 29.4138 57.1022 29.4138C57.0552 29.4138 50.3189 34.9586 42.1272 41.7343Z" fill="#FFCB58"/>
</g>
<defs>
<clipPath id="clip0_1297_13703">
<rect width="60" height="60" fill="white" transform="translate(0.5)"/>
</clipPath>
</defs>
</svg>
