<svg width="61" height="60" viewBox="0 0 61 60" fill="none" xmlns="http://www.w3.org/2000/svg">
<path d="M16.5896 3.94364C15.831 4.43571 14.9494 5.91191 14.7034 7.11132C14.2933 9.02834 14.7649 10.7506 16.1488 12.4216C17.379 13.8978 17.4098 15.1177 16.2411 16.5529C15.9233 16.9424 15.8823 17.0654 15.8823 17.578C15.8823 18.5724 16.4359 19.1362 17.3995 19.1362C18.1069 19.1362 18.4452 18.9312 19.0295 18.1623C20.4134 16.3376 20.6595 13.9695 19.6856 11.9397C19.5216 11.5809 19.0807 10.9351 18.7014 10.484C17.461 8.99758 17.4303 7.77767 18.5989 6.34247C18.9167 5.95291 18.9577 5.8299 18.9577 5.31733C18.9577 4.66124 18.7629 4.27168 18.2811 3.95389C17.8916 3.6976 16.9587 3.68735 16.5896 3.94364Z" fill="#FFCB58"/>
<path d="M25.8159 3.94364C25.0471 4.44596 24.1859 5.90166 23.9297 7.12158C23.5196 9.02834 23.9912 10.7608 25.3648 12.4113C26.6053 13.8978 26.636 15.1177 25.4674 16.5529C25.1496 16.9424 25.1086 17.0654 25.1086 17.578C25.1086 18.5724 25.6621 19.1362 26.6258 19.1362C27.3331 19.1362 27.6714 18.9312 28.2557 18.1623C29.6397 16.3376 29.8857 13.9695 28.9118 11.9397C28.7478 11.5809 28.307 10.9351 27.9277 10.484C26.6873 8.99758 26.6565 7.77767 27.8252 6.34247C28.143 5.95291 28.184 5.8299 28.184 5.31733C28.184 4.66124 27.9892 4.27168 27.5074 3.95389C27.1178 3.6976 26.185 3.68735 25.8159 3.94364Z" fill="#FFCB58"/>
<path d="M35.0422 3.94364C34.2733 4.44596 33.4122 5.90166 33.1559 7.12158C32.7459 9.02834 33.2174 10.7608 34.5911 12.4113C35.8315 13.8978 35.8623 15.1177 34.6936 16.5529C34.3758 16.9424 34.3348 17.0654 34.3348 17.578C34.3348 18.5724 34.8884 19.1362 35.852 19.1362C36.5594 19.1362 36.8977 18.9312 37.482 18.1623C38.8659 16.3376 39.112 13.9695 38.1381 11.9397C37.9741 11.5809 37.5333 10.9351 37.154 10.484C35.9135 8.99758 35.8828 7.77767 37.0514 6.34247C37.3692 5.95291 37.4102 5.8299 37.4102 5.31733C37.4102 4.66124 37.2155 4.27168 36.7337 3.95389C36.3441 3.6976 35.4112 3.68735 35.0422 3.94364Z" fill="#FFCB58"/>
<path d="M9.69303 49.8H40.2183H43.8034C47.7594 49.8 47.8213 49.8063 48.2642 50.198C48.6042 50.5076 48.5733 50.9498 48.1921 51.3983C46.4408 53.4389 42.9586 54.9867 39.1778 55.391C37.8076 55.5363 15.6992 55.5363 14.329 55.391C11.0838 55.0436 8.03438 53.8559 6.11818 52.1943C4.99525 51.2214 4.748 50.6529 5.2425 50.198C5.68549 49.8063 5.74731 49.8 9.69303 49.8Z" fill="#FFCB58"/>
<path fill-rule="evenodd" clip-rule="evenodd" d="M5.69234 22.5094C5.52832 22.6221 5.30279 22.8477 5.19002 23.0322C4.99525 23.3295 4.99525 23.473 5.0465 25.4208C5.10801 27.7171 5.28229 29.2958 5.7436 31.5921C6.88151 37.2817 9.13682 42.1921 12.4275 46.0671C12.9344 46.6715 13.6827 47.0205 14.4714 47.0205H26.6462H39.3263C39.7838 47.0205 40.2199 46.8268 40.5266 46.4874C40.7829 46.1901 41.357 45.4725 41.7876 44.9087L42.5667 43.8733L44.2171 43.8118C46.6365 43.7298 48.5125 43.2172 50.491 42.0793C53.8945 40.1316 56.1908 37.0869 57.1647 33.2324C57.5132 31.8177 57.6157 29.4701 57.3492 28.6602C56.8776 27.1943 55.791 26.0871 54.3558 25.5848C53.8432 25.4105 53.4844 25.39 51.0241 25.39H48.2767V24.3341C48.2767 23.186 48.1639 22.8887 47.6001 22.5094C47.3131 22.3249 46.7082 22.3146 26.6462 22.3146C6.49195 22.3146 5.97938 22.3249 5.69234 22.5094ZM54.2943 30.7823C54.3661 29.4906 54.243 29.142 53.6177 28.7422C53.2691 28.527 53.1256 28.5167 50.6653 28.486L48.0819 28.445L48.0307 28.7935C47.9999 28.978 47.8769 29.7264 47.7641 30.4645C47.3233 33.2221 46.3494 36.5026 45.2833 38.8706C45.0065 39.4857 44.7092 40.1521 44.6272 40.3366L44.4734 40.6851L45.068 40.6134C45.9599 40.5006 47.3028 40.0906 48.2665 39.6292C51.7109 37.9993 54.0893 34.5035 54.2943 30.7823Z" fill="#FFCB58"/>
</svg>
