<svg width="61" height="60" viewBox="0 0 61 60" fill="none" xmlns="http://www.w3.org/2000/svg">
<path d="M14.5038 6.09022C13.9037 6.1733 13.4883 6.42255 13.276 6.82874C13.0821 7.21647 12.9621 8.38888 12.9621 10.0136C12.9621 15.7372 14.7807 20.0299 18.1687 22.2824C20.532 23.8518 23.523 24.6365 27.2434 24.6734L28.7481 24.6826V30.1847V35.6867L28.0927 35.7513C25.6278 35.9821 22.6368 37.173 20.4489 38.7977L19.7843 39.287L18.5657 39.3424C16.0916 39.4439 13.9868 40.1271 11.9466 41.4841C11.0419 42.0842 9.23255 43.8843 8.65096 44.7613C7.28468 46.8107 6.5 49.2479 6.5 51.4542C6.5 52.4697 6.60155 52.7467 7.10928 53.079C7.36777 53.2452 7.99552 53.2544 30.1329 53.2544C52.2702 53.2544 52.898 53.2452 53.1564 53.079C53.6549 52.7467 53.7657 52.4697 53.7657 51.5004C53.7657 49.2479 52.9903 46.82 51.6148 44.7613C51.0055 43.8474 49.2053 42.0657 48.2729 41.4472C46.2604 40.1271 44.1372 39.4439 41.7 39.3424L40.4815 39.287L39.8168 38.7977C37.6289 37.1637 34.6471 35.9821 32.173 35.7513L31.5176 35.6867V30.1847V24.6826L33.0223 24.6734C39.2167 24.618 43.4817 22.4486 45.5958 18.2574C46.4358 16.605 46.999 14.5002 47.2205 12.22C47.3498 10.9368 47.2759 7.70574 47.1098 7.14262C46.9897 6.71796 46.5097 6.22869 46.1312 6.13637C45.6235 6.00713 41.6262 5.96097 40.6384 6.07175C38.4967 6.32101 36.6596 6.82874 35.1087 7.61343C33.8901 8.22271 33.2531 8.66583 32.33 9.57976L31.5176 10.3644V17.4543V24.5442H30.1329H28.7481V17.4543V10.3644L27.945 9.57976C27.0126 8.67506 26.3664 8.21348 25.194 7.63189C23.6523 6.85644 22.0737 6.39486 20.0427 6.12714C18.8611 5.97944 15.4546 5.95174 14.5038 6.09022Z" fill="#FFCB58"/>
</svg>
