<svg width="61" height="60" viewBox="0 0 61 60" fill="none" xmlns="http://www.w3.org/2000/svg">
<path d="M9.73784 13.7654C10.995 8.18166 13.9171 4.18361 17.4961 3.1756C18.4475 2.90377 20.271 3.00571 21.2563 3.39079C25.4016 4.97643 28.6861 11.0924 28.6861 17.2198C28.6861 21.8408 25.408 25.3631 22.1574 27.1866L21.4665 27.5717L22.1574 41.4573C23 54.75 23 57 23 57C23 57.75 21.834 58.2197 21.2337 58.3896C20.69 58.5368 17.7827 58.5368 17.2391 58.3896C16.6388 58.2197 15.5 57.75 15.5 57C15.5 57 15.5 56.25 15.9721 41.4573L16.6516 27.5717L15.9721 27.1866C13.6842 25.8954 10.576 23.6982 9.8058 20.8441C9.52265 19.7794 9.5 19.5529 9.5 17.2764C9.5 15.2038 9.53398 14.6828 9.73784 13.7654Z" fill="#FFCB58"/>
<path d="M33.0013 4.18361C33.1259 3.7872 33.5903 3.30019 34.0093 3.13029C34.4284 2.97173 35.2212 2.98306 35.5723 3.16427C35.9121 3.34549 36.2972 3.73057 36.4784 4.093C36.5464 4.22891 37.7809 15.712 37.7809 15.712C37.8035 15.7234 38.064 10.8999 38.3585 8.6347C38.9701 4.0477 39.0607 3.71925 39.8535 3.25488C40.4312 2.9151 41.3825 2.94908 41.9035 3.32284C42.5491 3.77588 42.6624 4.22891 43.2513 8.6347C43.5458 10.8999 43.8063 15.7234 43.8289 15.712L45.1541 4.03637C45.6298 3.13029 46.6831 2.75654 47.6458 3.16427C48.0309 3.32284 48.5405 3.90046 48.6538 4.3082C48.6991 4.43278 49.1068 7.35487 49.5825 10.8093C50.3414 16.393 50.432 17.2764 50.432 18.862C50.432 20.946 50.2394 21.9087 49.5372 23.3358C48.7104 25.0007 45.9872 26.2012 44.2317 27.0847L43.2237 27.5943L43.2463 28.4098C43.2577 28.8628 44 42 44 42L44.75 57.0531C44.3196 57.6194 43.5798 58.2197 42.9795 58.3896C42.4358 58.5368 39.174 58.5368 38.6303 58.3896C38.0301 58.2197 36.5 57.9266 36.5 57C36.5 57 37.25 55.5 38 42L38.3975 27.5943L37.3781 27.0847C35.5773 26.1786 32.8767 24.9894 32.0273 23.2225C31.3477 21.8068 31.1779 20.946 31.1779 18.8281C31.1779 17.2877 31.2798 16.3477 32.0273 10.8093C32.503 7.35487 32.9334 4.37615 33.0013 4.18361Z" fill="#FFCB58"/>
</svg>
