<?xml version="1.0" encoding="utf-8"?>
<svg viewBox="0 0 871 410" xmlns="http://www.w3.org/2000/svg"
    xmlns:xlink="http://www.w3.org/1999/xlink">
    <style>:root>svg{display:none}:root>svg:target{display:block}</style>
    <svg viewBox="0 0 16 13" id="arrow" xmlns="http://www.w3.org/2000/svg">
        <path d="M1 6.5h14m0 0L9.457 1M15 6.5 9.457 12" />
    </svg>
    <svg fill="none" viewBox="0 0 62 66" id="business--box" xmlns="http://www.w3.org/2000/svg">
        <path d="M42.731 24.108 13.646 9.784l7.814-3.907 28.65 14.325v12.155l-7.38 3.473V24.109Z"
            fill="#FECA57" />
        <path
            d="M15.9 7.47C7.682 11.44.89 14.797.788 14.925c-.14.19-.165 3.383-.165 17.872 0 16.613.012 17.656.229 17.898.241.292 29.956 14.654 30.313 14.654.343 0 30.045-14.362 30.287-14.654.216-.242.229-1.285.229-17.91 0-16.627-.013-17.67-.216-17.911C61.172 14.543 31.482.22 31.114.232 30.96.232 24.117 3.49 15.9 7.47Zm29.079 1.438c7.416 3.587 13.484 6.538 13.458 6.55-.025.026-1.793.904-3.943 1.934L50.6 19.288l-1.997-.992c-1.094-.535-7.225-3.499-13.598-6.577-6.386-3.066-11.614-5.622-11.614-5.66 0-.153 7.696-3.791 7.887-3.728.102.038 6.271 2.99 13.7 6.577Zm-10.19 4.82c7.442 3.588 13.535 6.552 13.535 6.59 0 .064-5.355 2.671-5.495 2.671-.063 0-6.424-3.053-21.892-10.532l-5.444-2.633.42-.191c.229-.102 1.45-.687 2.696-1.298 1.26-.623 2.366-1.12 2.468-1.12.102 0 6.271 2.94 13.713 6.514Zm-7.135 4.084L41.9 24.707l.038 5.915c.025 5.851.025 5.902.305 6.194.153.166.407.293.585.293.356 0 7.709-3.51 7.938-3.79.127-.14.178-1.642.229-6.17l.063-5.979 4.313-2.073c2.378-1.145 4.337-2.086 4.363-2.086.025 0 .038 7.314.038 16.256v16.257l-13.687 6.602a5475.705 5475.705 0 0 1-13.802 6.653c-.064.025-.115-6.793-.115-16.219V30.29l3.015-1.45c1.667-.8 3.193-1.551 3.41-1.653.533-.267.762-.789.546-1.234a1.288 1.288 0 0 0-.521-.521c-.344-.166-.484-.115-2.926 1.056a256.892 256.892 0 0 1-3.562 1.691l-.98.458-1.182-.547a35.64 35.64 0 0 0-1.514-.687c-.496-.203-1.005.013-1.196.497-.267.648-.025.915 1.501 1.704l1.374.7V46.56c0 8.943-.05 16.244-.102 16.22-.063-.014-6.27-3.016-13.801-6.654l-13.7-6.614V33.267c0-8.942.025-16.256.05-16.256.026 0 4.783 2.29 10.584 5.088 6.182 2.99 10.672 5.088 10.889 5.088.19 0 .47-.114.61-.254.318-.318.331-1.03.038-1.31-.127-.102-2.862-1.463-6.08-3.015-10.264-4.948-10.9-5.254-12.871-6.233l-1.934-.954 4.669-2.252c2.57-1.234 4.732-2.251 4.796-2.251.076 0 6.538 3.103 14.374 6.894Zm21.434 9.35v4.948l-2.532 1.221c-1.399.687-2.57 1.234-2.607 1.234-.039 0-.077-2.226-.077-4.961v-4.948l2.455-1.209c1.336-.661 2.519-1.208 2.608-1.208.114-.013.153 1.056.153 4.923Z"
            fill="#000" />
        <path
            d="M4.96 39.475c-.305.382-.343.79-.102 1.107.217.305 8.74 4.414 9.134 4.414.788 0 1.22-.992.674-1.526-.382-.382-8.663-4.325-9.083-4.325-.241 0-.445.114-.623.33Zm.242 4.287a.892.892 0 0 0-.382 1.208c.255.446 4.542 2.608 5.203 2.608.801.026 1.209-.98.623-1.526-.292-.28-4.376-2.277-4.859-2.392-.153-.038-.407.013-.585.102Z"
            fill="#000" />
    </svg>
    <svg fill="none" viewBox="0 0 81 54" id="business--ship" xmlns="http://www.w3.org/2000/svg">
        <path d="M32.295 11.651v20h31.627v-10H53.225v-10h-20.93Z" fill="#FECA57" />
        <path
            d="m15.448.953-.406.406v6.266h-5.75l-.47.453c-.265.281-.5.703-.546 1.063-.062.328-.11 2.437-.11 4.687v4.078l-2.03.063c-1.97.047-2.032.062-2.454.484-.437.422-.437.438-.437 2.547v2.125l.515.453c.282.25.61.453.735.453.203 0 .234.5.234 3.438v3.437H3.401c-1.547 0-2.125.22-2.516.97-.953 1.843 1.579 7.905 5.063 12.155.531.64.969 1.313.969 1.5 0 .172-.5 1.375-1.11 2.657-1 2.14-1.093 2.39-1.031 3.156.047.594.156.922.438 1.219.843.906-1.422.843 32.25.843 33.078 0 31.624.032 32.296-.718.141-.172 2.641-5.329 5.532-11.47 5.625-11.968 5.718-12.171 5.156-13.265-.156-.265-.484-.64-.766-.797-.469-.297-.828-.312-6.25-.312-5.39 0-5.781.015-6.344.312-.593.297-1.39 1.11-1.453 1.453-.015.11-.062-1.359-.109-3.25-.094-3.734-.125-3.859-1.063-4.468-.406-.266-.828-.297-5-.297h-4.578v-4.531c0-3.172-.062-4.641-.187-4.922-.39-.875-.14-.86-11.594-.86-7.562 0-10.656.047-10.937.172-.875.406-.875.344-.875 10.828v9.625h-3.438V27.47c0-2.938.031-3.438.235-3.438.125 0 .453-.203.734-.453l.515-.453V21c0-2.11 0-2.125-.437-2.547-.422-.422-.469-.437-2.531-.484l-2.11-.063V8.594l-.484-.485-.484-.484h-5.75v-3.11c0-3.5-.063-3.702-1.125-3.859-.47-.078-.641-.03-.97.297Zm6.312 13.078v3.907H10.667v-7.813H21.76v3.906Zm20.157 2.657v3.906h-8.125V12.78h8.125v3.907Zm10.468 0v3.906h-7.968V12.78h7.968v3.907Zm-25.468 4.296v.547h-6.72c-4.702 0-6.827.047-7.093.172-.562.266-.812 1.078-.5 1.672.125.25.36.5.485.563.14.046 2.968.093 6.265.093h6v6.875H7.23v-6.875h.703c1.172 0 1.75-.797 1.313-1.765-.25-.563-.781-.735-2.25-.735H5.667v-1.093h21.25v.546Zm15 6.016v3.906h-8.125v-7.812h8.125V27Zm10.468 0v3.906h-7.968v-7.812h7.968V27Zm10.625 0v3.906h-8.125v-7.812h8.125V27Zm14.97 2.469c-.017.078-1.563 3.344-3.407 7.265l-3.344 7.141H65.26c-5.797 0-5.968.016-6.375.328-.546.422-.562 1.344-.046 1.828.359.328.468.344 5.75.375l5.406.047-1.032 2.219-1.03 2.234H37.666c-16.657 0-30.282-.03-30.282-.047 0-.03.407-.937.907-2 .515-1.062.968-2.062 1.015-2.218.094-.25 1.313-.266 22.688-.266h22.594l.375-.39c.515-.5.515-1.22 0-1.72l-.375-.39H8.995l-.375-.531c-.203-.281-.922-1.25-1.594-2.125-1.375-1.813-3.047-5.031-3.516-6.797l-.296-1.094 30.453.047c20.468.031 30.75-.016 31.343-.125 1.516-.281 2.375-1.11 2.703-2.656.094-.469.25-.953.329-1.063.125-.14 1.328-.187 5.078-.187 2.703 0 4.89.062 4.86.125Z"
            fill="#000" />
    </svg>
    <svg fill="none" viewBox="0 0 65 64" id="business--world" xmlns="http://www.w3.org/2000/svg">
        <path
            d="m35.5 10.766 8.134 8.134c0-1.808.452-3.615.452-3.615s10.62-1.356 18.527 14.46c2.061 4.122-.904-12.653-9.038-20.335-1.682-1.59-6.928-2.862-9.489-3.163V2.632L35.5 10.766Zm-6.145 42.667-8.134-8.134c0 1.808-.452 3.615-.452 3.615s-10.62 1.356-18.527-14.46c-2.061-4.122.904 12.653 9.037 20.335 1.683 1.589 6.93 2.862 9.49 3.163v3.615l8.586-8.134Z"
            fill="#FECA57" />
        <path
            d="M28.306.561c-4.938.675-9.347 2.33-13.452 5.058-7.308 4.846-12.247 12.42-13.81 21.158-.45 2.502-.45 6.765-.013 9.334 1.377 7.957 3.92 13.677 7.825 17.623 1.708 1.721 3.204 2.78 5.045 3.575 1.35.582 3.469 1.138 4.833 1.257l.993.093v1.827c0 1.669.026 1.867.264 2.105.186.186.437.265.821.265.57 0 .57 0 5.032-4.475l4.475-4.462v-1.192l-4.475-4.461c-4.462-4.476-4.462-4.476-5.032-4.476-.384 0-.635.08-.82.265-.239.239-.265.437-.265 2.066v1.813l-.755-.092c-6.05-.715-11.572-5.667-15.187-13.624l-.463-1.02h14.246l.08 2.211c.08 2.317.41 5.707.635 6.554.146.556.437.768 1.046.768 1.02 0 1.245-.503.993-2.343-.264-1.88-.463-4.502-.463-5.945v-1.245h25.156v1.218c0 3.059-.807 9.11-1.588 12.049l-.146.503h-6.21c-6.05 0-6.236.013-6.487.265-.173.172-.265.437-.265.794 0 .358.092.623.265.795.251.251.436.264 6.156.264 3.774 0 5.892.053 5.892.133 0 .516-1.483 4.224-2.317 5.799-2.502 4.7-5.521 7.017-8.606 6.62-.94-.119-2.423-.807-3.217-1.47-.424-.357-.702-.49-1.033-.49-.636 0-1.112.49-1.112 1.14 0 .397.092.569.543.979.754.689 1.999 1.404 3.032 1.748.662.225 1.284.291 2.753.344 3.893.106 8.104-.728 12.168-2.436 5.442-2.278 10.394-6.303 13.744-11.175.436-.622.913-1.258 1.085-1.417.172-.158.305-.384.305-.503 0-.106.265-.688.596-1.297 2.939-5.442 4.21-12.168 3.376-17.967-1.152-8.143-3.853-14.445-7.931-18.55-2.847-2.873-5.76-4.316-9.573-4.793l-1.297-.145V3.778c0-1.655-.027-1.853-.265-2.092-.185-.185-.437-.264-.82-.264-.57 0-.57 0-5.032 4.475l-4.475 4.462v1.191l4.475 4.462c4.462 4.476 4.462 4.476 5.031 4.476.384 0 .636-.08.821-.265.238-.239.265-.437.265-2.066v-1.814l.768.093c1.575.185 3.8.914 5.27 1.735 3.905 2.184 7.414 6.395 9.903 11.876l.463 1.033H47.266v-1.311c0-1.496-.185-4.012-.463-6.157-.225-1.681-.45-2.065-1.245-2.065-.913.013-1.258.596-1.072 1.814.225 1.443.53 5.124.53 6.421v1.298H19.858v-1.232c0-3.045.794-9.082 1.589-11.982l.145-.556h12.964v-2.12h-6.157c-3.946 0-6.157-.053-6.157-.132 0-.265.914-2.767 1.523-4.13 1.906-4.357 4.581-7.376 7.203-8.144 1.178-.344 2.66-.198 3.866.384a9.267 9.267 0 0 1 1.694 1.073c.583.49.821.622 1.205.622.649 0 1.06-.437 1.06-1.125 0-.464-.093-.596-.755-1.232-.86-.794-2.45-1.628-3.681-1.946-.98-.252-4.21-.252-6.05 0Zm-3.15 3.668c-1.974 2.343-3.51 5.243-4.834 9.148l-.595 1.748-5.773.04-5.76.027.834-1.086C12.22 9.948 16.695 6.599 21.7 4.599c1.126-.45 3.774-1.284 4.158-1.31.053-.014-.265.41-.702.94Zm17.94 2.979c.106.45.476.569 2.158.715 3.694.29 6.633 1.655 9.228 4.29 2.767 2.793 4.595 6.315 6.236 12.048.053.146-.291-.278-.741-.927-2.728-3.906-6.064-6.713-9.586-8.076-1.814-.689-3.257-.993-5.124-1.086-1.589-.066-1.681-.066-1.96.212-.238.238-.278.437-.278 1.297v1.033l-2.873-2.873-2.886-2.886 2.846-2.847 2.847-2.847.04.821c.013.464.053.967.093 1.126Zm-23.952 10.3c-.12.318-.715 3.47-.94 4.992-.291 2.052-.596 5.64-.596 7.216v1.364H2.872l.092-1.258c.186-2.622.914-5.826 1.88-8.302.49-1.218 1.682-3.733 1.934-4.051.106-.12 1.522-.16 6.289-.16 5.375 0 6.143.027 6.077.2ZM61.91 34.416c-.252 3.708-1.47 7.931-3.23 11.294l-.623 1.192-6.196.04c-5.866.026-6.197.013-6.13-.2.608-1.972 1.363-7.731 1.495-11.333l.08-2.21h14.697l-.093 1.217ZM6.738 43.314c3.667 4.303 8.633 6.832 13.399 6.832 1.576 0 1.708-.133 1.708-1.55v-1.032l2.873 2.886 2.887 2.873-2.887 2.873-2.873 2.887V58.05c0-1.523.013-1.51-2.873-1.748-.517-.04-1.47-.225-2.119-.397-4.925-1.324-8.712-5.203-11.254-11.519-.49-1.231-.768-2.065-1.443-4.37-.053-.145.291.266.742.928a41.002 41.002 0 0 0 1.84 2.37Zm49.796 5.878c0 .186-1.734 2.304-2.833 3.443-3.562 3.72-8.341 6.58-13.28 7.97-.768.226-1.43.398-1.456.398-.027 0 .317-.424.754-.954 2-2.37 3.827-5.892 4.965-9.533.186-.609.371-1.178.398-1.27.04-.12 1.31-.16 5.76-.16 3.124 0 5.692.04 5.692.106Z"
            fill="#000" />
    </svg>
    <svg fill="none" viewBox="0 0 871 410" id="decor--infinity" xmlns="http://www.w3.org/2000/svg">
        <path fill-rule="evenodd" clip-rule="evenodd"
            d="M446.291 136.522C495.552 79.542 564.319 0 666.797 0c96.275 0 206.814 78.31 203.248 206.451-3.368 121.023-96.275 202.892-203.248 202.892-92.543 0-166.405-77.255-221.587-134.971-8.604-9-16.754-17.524-24.45-25.207-10.444-10.425-21.723-22.519-33.664-35.322-53.293-57.145-119.76-128.415-183.848-128.415-78.446 0-114.104 66.919-114.104 121.023 0 67.631 57.052 121.023 114.104 121.023 67.888 0 103.564-39.635 119.543-64.071l57.052 64.071c-11.886 18.984-85.311 81.869-176.595 81.869C89.144 409.343 0 302.558 0 206.451 0 110.345 67.75 0 203.248 0c108.399 0 198.494 102.039 231.775 149.499 3.64-4.153 7.394-8.495 11.268-12.977Zm68.938 54.327c39.423-47.743 86.692-104.986 158.699-101.86 82.013 3.559 110.539 64.071 110.539 121.023s-35.658 121.023-110.539 121.023c-59.904 0-141.441-80.682-174.722-121.023 5.22-6.08 10.546-12.53 16.023-19.163Z"
            fill="#F1F1F1" />
    </svg>
    <svg fill="none" viewBox="0 0 219 226" id="decor--symbol" xmlns="http://www.w3.org/2000/svg">
        <path fill-rule="evenodd" clip-rule="evenodd"
            d="M394.935 120.399C438.527 70.149 499.38 0 590.066 0c85.197 0 183.015 69.06 179.86 182.07C766.945 288.8 684.729 361 590.066 361c-81.893 0-147.256-68.131-196.088-119.031-7.614-7.937-14.826-15.455-21.637-22.23-9.241-9.193-19.223-19.859-29.789-31.151-47.161-50.396-105.98-113.249-162.692-113.249-69.42 0-100.974 59.016-100.974 106.731 0 59.643 50.487 106.73 100.974 106.73 60.076 0 91.646-34.955 105.786-56.504l50.487 56.504C325.615 305.542 260.639 361 179.86 361 78.886 361 0 266.826 0 182.07 0 97.313 59.953 0 179.86 0c95.925 0 175.652 89.988 205.103 131.843 3.221-3.662 6.543-7.491 9.972-11.444Zm61.005 47.911c34.887-42.104 76.715-92.587 140.437-89.83 72.575 3.138 97.818 56.503 97.818 106.73 0 50.226-31.554 106.73-97.818 106.73-53.012 0-125.166-71.154-154.616-106.73 4.619-5.362 9.332-11.05 14.179-16.9Z"
            fill="#fff" />
    </svg>
    <svg fill="none" viewBox="0 0 40 29" id="logistic--airplain" xmlns="http://www.w3.org/2000/svg">
        <path
            d="M12.454 1.367c-.195.195-.263.323-.263.518 0 .158.654 2.007 1.601 4.54L15.4 10.7l-3.42.023c-3.156.015-3.434.008-3.652-.12-.248-.136-.293-.256-1.623-4.427-.248-.767-.466-1.3-.677-1.631-.571-.902-1.466-1.518-2.555-1.744-1.03-.218-1.767-.007-2.218.631l-.225.331-.023 5.081c-.022 5.765-.03 5.69.55 6.84.563 1.12 1.352 1.924 2.442 2.487 1.15.594.804.564 6.403.61l5.006.037-1.608 4.284c-.88 2.352-1.609 4.382-1.609 4.494 0 .263.18.624.368.73.09.044.933.075 2.173.075 1.803 0 2.082-.015 2.502-.15a4.07 4.07 0 0 0 1.76-1.083c.217-.24 1.405-2.074 2.855-4.397l2.48-3.983 6.727-.023 6.727-.022.353-.173a2.717 2.717 0 0 0 1.128-1.128c.225-.473.278-1.353.097-1.886-.262-.804-1.585-2.338-2.69-3.12a10.161 10.161 0 0 0-2.526-1.255c-1.27-.405-1.758-.443-5.982-.443h-3.834L21.813 6.71c-1.383-2.217-2.661-4.17-2.834-4.351a4.362 4.362 0 0 0-1.563-1.03c-.421-.158-.594-.173-2.578-.195L12.71 1.11l-.256.256Zm4.517 1.615c.21.098.519.316.692.489.173.173 1.285 1.879 2.488 3.796l2.172 3.472-2.556-.015-2.555-.023-1.383-3.682c-.76-2.03-1.436-3.811-1.496-3.969l-.12-.293 1.188.03c1.037.023 1.232.045 1.57.195ZM3.585 4.606c.496.225.827.511 1.053.91.105.172.556 1.488 1.007 2.916.85 2.713 1.007 3.066 1.533 3.464.135.106.383.248.549.324.278.127 1.007.135 12.469.18 10.95.038 12.228.053 12.664.165a8.377 8.377 0 0 1 2.743 1.203c.985.661 2.218 2.127 2.218 2.63 0 .15-.083.301-.256.474l-.255.256h-5.946c-3.269 0-5.945-.015-5.945-.038 0-.015.233-.406.526-.864.64-1.015.752-1.225.752-1.428 0-.263-.218-.647-.42-.744-.264-.12-.722-.106-.91.03-.09.06-1.812 2.758-3.833 5.99-3.991 6.388-3.939 6.313-4.773 6.561-.27.075-.722.113-1.458.113h-1.067l2.21-5.885c1.217-3.232 2.209-5.975 2.209-6.088 0-.263-.18-.624-.368-.729a1.527 1.527 0 0 0-.496-.075c-.444 0-.624.173-.887.864-.113.293-.346.917-.526 1.39l-.324.865h-5.103c-5.11 0-5.11 0-5.6-.173-1.142-.39-2.059-1.3-2.502-2.473-.166-.428-.166-.496-.188-5.23l-.023-4.788h.286c.158 0 .458.082.661.18Z"
            fill="#000" stroke="#000" stroke-width=".6" />
    </svg>
    <svg fill="none" viewBox="0 0 37 40" id="logistic--cargo" xmlns="http://www.w3.org/2000/svg">
        <path
            d="M8.55.1c-.469.234-.68.97-.39 1.407.32.484.148.469 4.713.492l4.165.024V5.39l.258.258c.172.172.368.274.57.305.97.149 1.439.383 1.775.891.563.86.469 1.79-.25 2.509l-.36.36-.039-.548c-.047-.61-.133-.813-.437-1.016-.243-.156-.782-.18-1.032-.047-.305.164-.485.547-.485 1.04 0 .531-.086.57-.445.195-.305-.312-.563-.867-.57-1.211 0-.657-.423-1.11-1.025-1.11-.969 0-1.25.977-.695 2.438.39 1.056 1.446 2.01 2.602 2.36.118.04.133.165.133 1.251v1.204l-.328.117C13.67 15.442.578 20.085.461 20.147c-.086.047-.227.204-.305.337-.148.242-.156.476-.156 9.511 0 9.05.008 9.27.156 9.512.32.531-1.188.492 17.836.492 16.24 0 17.233-.008 17.484-.14.148-.07.336-.258.414-.407.133-.258.14-.695.14-9.441 0-10.028.024-9.52-.437-9.825-.14-.093-11.45-4.126-16.265-5.799l-.336-.117v-1.204c0-1.078.016-1.211.14-1.25a4.455 4.455 0 0 0 1.72-1.079c1.384-1.446 1.524-3.58.344-5.15a3.924 3.924 0 0 0-1.672-1.29l-.532-.211V2.015l4.049-.008c2.915 0 4.119-.023 4.314-.094.367-.125.625-.531.625-.969 0-.273-.047-.39-.265-.633l-.266-.29-9.332-.015C9.926-.009 8.76-.002 8.55.1Zm15.03 17.914 5.487 1.938-5.503.023c-3.024.008-7.995.008-11.051 0l-5.55-.023 5.448-1.93c2.994-1.063 5.503-1.931 5.565-1.931.063-.008 2.587.86 5.604 1.923ZM34 29.995v7.972H2.032V22.023h31.966v7.972Z"
            fill="#000" />
    </svg>
    <svg fill="none" viewBox="0 0 40 40" id="logistic--document" xmlns="http://www.w3.org/2000/svg">
        <path
            d="M8.952 3.483c-1.107.378-1.98 1.341-2.207 2.442-.104.494-.104 27.669 0 28.15.24 1.12 1.159 2.123 2.259 2.461.41.13.625.13 11.21.13 10.587 0 10.802 0 11.212-.13.814-.247 1.588-.904 1.966-1.653.384-.768.364-.176.364-11.374 0-6.986-.02-10.332-.065-10.456-.078-.208-9.31-9.479-9.583-9.628-.15-.079-1.25-.092-7.454-.092l-7.279.007-.423.143Zm13.62 6.179c.02 4.134.026 4.257.15 4.427.07.097.234.234.364.306.234.136.312.136 4.381.136h4.141v9.538c0 9.401 0 9.544-.13 9.798-.163.326-.475.56-.847.645-.403.09-20.43.09-20.833 0a1.246 1.246 0 0 1-.846-.645c-.13-.254-.13-.403-.13-13.867 0-13.463 0-13.613.13-13.867.156-.313.482-.567.82-.645.143-.032 2.95-.058 6.517-.065l6.27-.006.013 4.245Zm4.837.052 2.67 2.669h-5.372v-2.67c0-1.47.006-2.669.02-2.669.006 0 1.217 1.198 2.682 2.67Z"
            fill="#000" />
        <path
            d="M13.503 19.603a1.091 1.091 0 0 0-.756 1.159c.033.332.19.573.502.781l.214.15h13.503l.215-.15c.313-.208.469-.45.501-.781.046-.397-.162-.834-.488-1.035l-.24-.15-6.642-.013c-3.652-.006-6.718.013-6.81.039Zm-.163 7.168c-.215.085-.534.502-.586.749-.091.488.182 1.022.605 1.198.137.052 2.005.071 6.973.058l6.79-.02.254-.266c.43-.462.43-1.022 0-1.484l-.254-.267-6.823-.013c-3.75-.007-6.881.013-6.96.045Z"
            fill="#000" />
    </svg>
    <svg fill="none" viewBox="0 0 38 33" id="logistic--risk" xmlns="http://www.w3.org/2000/svg">
        <path
            d="M16.545 1.196c-.128.13-.805 1.4-1.782 3.367l-1.575 3.164v9.521l-.406.044c-.784.087-1.853.262-2.388.392l-.542.13-.163-.355c-.193-.413-.72-.943-1.105-1.11-.328-.138-6.508-1.415-6.857-1.415-.178 0-.306.065-.485.247L1 15.427v6.35c0 4.333.021 6.416.078 6.568a.874.874 0 0 0 .264.356c.178.123.4.13 2.937.13 2.658 0 2.75-.007 3.079-.16.406-.188.912-.652 1.097-1 .072-.139.157-.255.179-.255.028 0 .506.218 1.069.48 3.906 1.828 7.534 3.214 9.872 3.773.727.174 1.005.203 1.917.203.933.007 1.169-.022 1.853-.196 2.081-.53 4.647-1.575 8.518-3.462.962-.471 2.53-1.233 3.492-1.705.962-.465 1.825-.929 1.924-1.023l.179-.174V7.64l-1.59-3.157C34.991 2.75 34.193 1.254 34.1 1.16L33.922 1h-17.17l-.207.196Zm4.968 3.65-.57 2.323H15.17l1.169-2.323L17.5 2.524h4.583l-.57 2.322Zm5.567-2.053c.043.152.285 1.139.542 2.198.256 1.06.484 1.982.506 2.047.035.123-.129.13-2.78.13-1.554 0-2.823-.014-2.823-.036 0-.05 1.062-4.398 1.105-4.52.021-.066.428-.088 1.704-.088h1.675l.07.269Zm7.249 2.053 1.147 2.286-2.85.022c-1.569.007-2.866 0-2.888-.014-.02-.03-1.14-4.485-1.154-4.601 0-.008 1.033-.008 2.295 0l2.295.021 1.155 2.286Zm-13.586 5.748c0 1.089.036 2.025.072 2.177a.981.981 0 0 0 .263.421c.179.145.264.145 4.27.145h4.077l.22-.225.222-.217.014-2.083.021-2.083h6.059l.021 6.909c.007 4.775-.007 6.916-.057 6.916-.043 0-.2-.066-.35-.145-.919-.472-2.58-.632-4.062-.37-1.14.195-2.26.457-3.535.812a24.43 24.43 0 0 1-1.09.283c-.036 0-.108-.152-.15-.34-.114-.458-.25-.705-.599-1.096-.763-.842-2.095-1.416-4.683-2.01-1.475-.335-2.18-.581-3.52-1.213-1.547-.733-2.253-1.001-2.944-1.11l-.307-.05V8.692h6.058v1.901Zm7.627-.341v1.56h-6.06v-3.12h6.06v1.56Zm-22.994 6.96c2.809.573 2.901.61 3.001 1.06.064.297-1.09 8.403-1.226 8.642a.797.797 0 0 1-.285.276c-.114.051-.912.08-2.267.08H2.497v-5.298c0-5.101.007-5.297.128-5.297.078 0 1.312.239 2.751.537Zm9.558 1.705c.6.145 1.055.334 2.709 1.118 1.176.551 1.981.827 3.386 1.139 2.95.668 4.276 1.35 4.276 2.213 0 .313-.121.45-.527.61-1.19.45-4.113.102-7.67-.907-1.575-.45-1.703-.472-1.974-.341-.25.116-.449.413-.449.675 0 .21.185.558.342.646.2.108 2.552.762 3.685 1.023 3.635.842 5.88.863 7.17.072.457-.283 3.051-1.023 5.232-1.495 1.996-.428 3.806-.181 4.555.617.114.124.2.232.178.247-.05.044-5.36 2.649-6.016 2.954-4.29 2.017-7.128 2.975-8.546 2.88-1.967-.13-6.272-1.676-11.411-4.1-.82-.391-.927-.457-.912-.61.02-.268.805-5.885.84-6.059.036-.167.293-.261 1.32-.493 1.532-.334 2.921-.407 3.812-.189Z"
            fill="#000" stroke="#000" stroke-width=".5" />
    </svg>
    <svg fill="none" viewBox="0 0 40 40" id="products--icon-1" xmlns="http://www.w3.org/2000/svg">
        <g clip-path="url(#aka)" fill="#000">
            <path
                d="M34.4 2.34c.351.305.477.619.422 1.073-.055.501-.478.916-1.026.994-.329.055-.368.079-.337.227.024.094.33 2.749.69 5.905l.65 5.731.712.243c1.55.533 3.915 1.903 4.37 2.537.125.172.172.36.172.65a1.136 1.136 0 0 1-1.817.94c-1.848-1.308-3.1-1.903-4.824-2.287-.892-.203-3.14-.243-4.142-.086-4.103.681-7.548 3.579-8.903 7.494-.525 1.511-.744 3.477-.564 4.949.118.9.055 1.182-.344 1.534-.36.314-.729.376-1.175.204-.477-.18-.665-.47-.775-1.198l-.094-.603-1.073-.023-1.065-.024.04.885c.038.712.015 1.033-.11 1.636-.533 2.553-2.467 4.566-4.973 5.16-.877.212-2.208.212-3.085 0-2.505-.594-4.44-2.607-4.972-5.136-.125-.627-.149-.94-.11-1.66l.04-.877h-.65c-.549 0-.69-.032-.917-.18-.563-.376-.54-.07-.54-6.359 0-6.287-.023-5.982.54-6.358.259-.172.314-.18 2.287-.18h2.028v-2.255c0-1.684-.024-2.287-.102-2.38-.07-.102-.282-.134-.892-.157-.65-.024-.838-.055-1.018-.188-.729-.548-.744-1.488-.032-1.966.243-.164.36-.18 1.23-.18.775 0 1.049.032 1.393.157.478.18 1.065.666 1.34 1.096.39.619.43.948.43 3.5v2.373h6.17l.157-.61c.274-1.026 3.148-12.38 3.148-12.428 0-.023-.165-.039-.376-.039-.603-.008-.955-.125-1.26-.423-.267-.266-.283-.313-.283-.798 0-.501.008-.517.33-.822l.328-.306h18.715l.266.235Zm-11.065 8.653v6.538h.509c.454 0 .595-.04 1.237-.36 1.762-.893 3.845-1.363 5.974-1.363h1.285v-.188c0-.188-1.128-10.156-1.222-10.837l-.047-.329h-7.736v6.539Zm-4.229-6.507c0 .015-.744 2.944-1.644 6.507-.908 3.563-1.644 6.491-1.644 6.507 0 .015 1.158.031 2.584.031h2.584V4.454h-.94c-.517 0-.94.016-.94.032ZM2.35 24.069v4.19h.368c.36-.008.384-.016.642-.392.54-.799 1.606-1.652 2.647-2.13 1.668-.751 3.876-.72 5.544.094 1.01.486 2.169 1.465 2.6 2.2l.133.228h3.178v-.18c0-.337.25-1.66.446-2.326.58-2.02 1.723-4.087 3.023-5.466l.391-.407H2.35v4.19Zm5.207 3.61c-1.793.462-3.17 2.263-3.17 4.143 0 1.95 1.48 3.79 3.358 4.197.619.133 1.825.054 2.396-.15 1.903-.696 3.086-2.654 2.796-4.658-.235-1.637-1.52-3.117-3.07-3.532-.571-.156-1.73-.156-2.31 0Z" />
            <path
                d="M9.326 30.866c.306.204.54.619.54.956 0 .125-.062.36-.14.509-.416.837-1.653.837-2.068 0-.391-.768.165-1.645 1.034-1.645.25 0 .454.055.634.18Zm23.633-10.195c3.531.76 6.272 3.563 6.984 7.157.141.69.141 2.655.008 3.289-.392 1.832-1.245 3.437-2.498 4.682-1.8 1.778-3.868 2.64-6.366 2.64-2.506 0-4.565-.854-6.358-2.632-2.271-2.255-3.156-5.528-2.334-8.66.799-3.062 3.313-5.568 6.398-6.382 1.08-.282 3.077-.329 4.166-.094Zm-3.422 2.341c-3.438.822-5.638 4.22-4.98 7.682.477 2.553 2.458 4.636 4.964 5.238.9.212 2.224.212 3.109 0 1.996-.477 3.602-1.8 4.479-3.695.947-2.044.806-4.3-.4-6.304-.814-1.362-2.412-2.521-4.017-2.913-.877-.211-2.278-.22-3.155-.008Z" />
            <path
                d="M32.144 25.291c1.112.266 2.24 1.19 2.78 2.287a4.294 4.294 0 0 1-2.389 5.943c-.571.203-1.785.282-2.396.148-1.887-.407-3.359-2.239-3.359-4.197 0-1.895 1.37-3.68 3.171-4.15.51-.133 1.692-.148 2.193-.031Zm-1.824 2.388c-.658.274-1.19 1.073-1.19 1.793s.532 1.52 1.19 1.794c.36.156 1.158.164 1.503.015.368-.148.814-.571 1.01-.94.235-.446.235-1.291 0-1.73-.211-.392-.61-.775-.963-.932-.36-.156-1.183-.156-1.55 0Z" />
        </g>
        <defs>
            <clipPath id="aka">
                <path fill="#fff" d="M0 0h40v40H0z" />
            </clipPath>
        </defs>
    </svg>
    <svg fill="none" viewBox="0 0 40 40" id="products--icon-10" xmlns="http://www.w3.org/2000/svg">
        <path
            d="M18.146 4.017c-.935.084-2.128.252-2.805.387C9.58 5.572 4.983 9.08 3.538 13.421c-.458 1.373-.496 1.69-.529 4.282-.032 2.49.013 3.36.245 4.495.613 2.98 2.541 6.095 5.115 8.262 1.386 1.174 2.78 1.987 5.134 3.012 2.78 1.213 3.521 1.638 4.805 2.793 1.096.98 1.29.98 2.386 0 1.283-1.155 2.025-1.58 4.805-2.793 2.354-1.025 3.747-1.838 5.134-3.012 2.573-2.167 4.501-5.282 5.114-8.262.226-1.122.277-1.999.252-4.456-.026-2.077-.046-2.387-.175-3.012-1.122-5.476-6.61-9.68-13.808-10.59-.768-.103-3.257-.174-3.87-.123Zm2.935 1.96c3.354.291 6.346 1.362 8.758 3.142.67.496 2.2 1.973 2.36 2.283.084.168.072.187-.186.42-1.439 1.315-3.786 2.444-6.405 3.089-2.173.535-3.618.703-6.107.703-2.49 0-3.935-.168-6.108-.704-2.619-.645-4.966-1.773-6.404-3.089-.258-.232-.271-.251-.187-.42.16-.309 1.69-1.786 2.373-2.289 3.173-2.34 7.578-3.502 11.906-3.134ZM6.163 13.66c.987.813 2.69 1.761 4.224 2.341 4.309 1.626 9.707 2.013 14.564 1.039 3.23-.652 6.03-1.858 7.945-3.425l.432-.355.18.458c.24.6.42 1.322.504 2 .084.716.084 4.276-.006 5.082-.29 2.663-1.664 5.314-3.877 7.468-.8.78-1.244 1.142-2.05 1.69-.923.62-1.607.968-3.677 1.883-.974.433-2.018.916-2.322 1.077a18.081 18.081 0 0 0-2.205 1.484l-.374.296-.368-.296c-.58-.465-1.606-1.155-2.212-1.484-.303-.16-1.348-.645-2.322-1.077-.974-.432-2.05-.928-2.386-1.109-3.47-1.832-6.218-5.243-7.017-8.726-.213-.929-.271-1.71-.271-3.786 0-2.535.07-3.147.529-4.386.122-.341.232-.541.27-.516.04.02.24.175.44.342Z"
            fill="#000" stroke="#000" stroke-width=".5" />
    </svg>
    <svg fill="none" viewBox="0 0 40 40" id="products--icon-11" xmlns="http://www.w3.org/2000/svg">
        <path
            d="M19.464 2.148c-.431.223-1.33 1.17-1.732 1.832-.2.323-.46.862-.574 1.2-.115.337-.238.618-.273.618-.036 0-.23-.094-.432-.209-1.3-.74-3.556-1.372-4.9-1.372-.761 0-1.25.46-1.25 1.178 0 .862.338 1.911.913 2.838.402.654 1.573 1.854 2.292 2.35.273.194.51.38.517.416.014.036-.33.144-.754.23-2.292.482-3.873 1.236-5.109 2.429-1.71 1.645-2.4 3.987-2.09 7.127.467 4.82 3.182 10.195 7.156 14.154 1.86 1.853 3.6 3.039 5.266 3.592.539.173.718.201 1.509.201.79 0 .97-.028 1.509-.2 3.8-1.258 8.406-6.23 10.77-11.647 1.551-3.55 2.105-7.357 1.444-9.958-.51-1.983-1.797-3.578-3.665-4.548-1.106-.575-1.932-.855-3.362-1.157-.402-.086-.733-.187-.719-.223.008-.036.245-.222.518-.416 1.15-.798 2.364-2.235 2.802-3.32.208-.51.402-1.408.402-1.86 0-.726-.481-1.186-1.25-1.186-1.322 0-3.614.64-4.907 1.372-.209.115-.403.209-.431.209-.036 0-.151-.28-.266-.618-.28-.82-.812-1.667-1.473-2.335-.833-.84-1.308-1.013-1.911-.697Zm.805 2.701a4.65 4.65 0 0 1 .704 3.571c-.115.546-.496 1.38-.79 1.724l-.18.216-.18-.216c-.294-.344-.675-1.178-.79-1.724a4.65 4.65 0 0 1 .704-3.57c.13-.195.244-.346.266-.346.021 0 .136.151.266.345Zm-6.41 1.976c.777.252 1.926.812 2.508 1.221l.424.302.158.647a12 12 0 0 0 .273.912l.115.266-.352-.136c-1.767-.697-3.405-1.976-4.052-3.162l-.194-.359.237.05c.13.022.532.137.884.26Zm13.214.043c-.396.726-1.207 1.545-2.185 2.199-.495.33-1.516.855-1.947 1.005l-.258.094.165-.446c.086-.244.201-.646.251-.898.08-.416.115-.474.417-.697.424-.308 1.746-.998 2.285-1.185.41-.15 1.293-.41 1.408-.417.036-.007-.029.151-.136.345Zm-2.939 6.143c2.184.244 3.449.553 4.67 1.157 2.012.977 2.917 2.4 3.032 4.742.158 3.37-1.315 7.644-3.923 11.352-1.042 1.494-2.672 3.297-3.887 4.31-1.48 1.236-3.075 2.048-4.023 2.048-1.2 0-3.154-1.164-5.044-3.003-3.75-3.65-6.287-8.564-6.746-13.055-.259-2.593.309-4.447 1.724-5.611 1.408-1.164 3.686-1.81 7.163-2.04 1.415-.094 5.848-.03 7.034.1Z"
            fill="#000" stroke="#000" stroke-width=".5" />
        <path
            d="M10.864 17.3c-.489.252-.56.51-.56 2.005 0 1.157.014 1.33.143 1.58.165.324.575.576.934.576.36 0 .769-.252.934-.575.13-.252.144-.424.144-1.58 0-1.158-.015-1.33-.144-1.581-.266-.525-.912-.712-1.451-.424Zm8.621 0c-.488.252-.56.51-.56 2.005 0 1.157.014 1.33.144 1.58.165.324.575.576.934.576.359 0 .768-.252.934-.575.13-.252.143-.424.143-1.58 0-1.158-.014-1.33-.143-1.581-.266-.525-.913-.712-1.452-.424Zm8.622 0c-.488.252-.56.51-.56 2.005 0 1.157.014 1.33.143 1.58.166.324.575.576.934.576.36 0 .77-.252.934-.575.13-.252.144-.424.144-1.58 0-1.158-.014-1.33-.144-1.581-.265-.525-.912-.712-1.45-.424Zm-12.932 6.467c-.489.252-.56.51-.56 2.005 0 1.156.014 1.329.143 1.58.165.323.575.575.934.575.36 0 .769-.252.934-.575.13-.251.144-.424.144-1.58 0-1.157-.015-1.33-.144-1.581-.266-.524-.913-.711-1.451-.424Zm8.621 0c-.488.252-.56.51-.56 2.005 0 1.156.014 1.329.144 1.58.165.323.574.575.934.575.359 0 .768-.252.934-.575.129-.251.143-.424.143-1.58 0-1.157-.014-1.33-.143-1.581-.266-.524-.913-.711-1.452-.424Zm-4.311 6.466c-.495.259-.56.503-.56 2.04 0 1.193.014 1.366.144 1.617.165.324.575.575.934.575.359 0 .768-.251.934-.575.13-.251.143-.424.143-1.616 0-1.193-.014-1.365-.143-1.617-.266-.524-.913-.711-1.452-.424Z"
            fill="#000" stroke="#000" stroke-width=".5" />
    </svg>
    <svg fill="none" viewBox="0 0 40 40" id="products--icon-12" xmlns="http://www.w3.org/2000/svg">
        <path
            d="M33.277 33.533c.471 1.168.58 1.509.58 1.82 0 .458-.174.791-.522 1.002-.24.145-.4.145-13.406.145-13.008 0-13.167 0-13.407-.145l.035-.057m26.72-2.765-26.635.054c-.228.57-.373.948-.46 1.22-.087.272-.115.433-.115.569 0 .406.17.725.49.922m26.72-2.765-.58-1.444m.58 1.444-.58-1.444m-26.14 4.209c.027.016.05.029.094.04.047.013.119.024.243.034.25.02.696.034 1.544.043 1.695.018 4.987.018 11.49.018 6.505 0 9.796 0 11.49-.018.85-.009 1.296-.023 1.545-.043.124-.01.197-.021.243-.034a.312.312 0 0 0 .094-.04c.326-.197.49-.507.49-.944 0-.296-.102-.623-.575-1.796l-.58-1.444-.005-.012V8.398l.005-.012.58-1.444c.473-1.173.575-1.5.575-1.796 0-.437-.164-.747-.49-.944a.31.31 0 0 0-.093-.04 1.469 1.469 0 0 0-.244-.034c-.25-.02-.696-.034-1.544-.043-1.695-.018-4.986-.018-11.49-.018-6.504 0-9.795 0-11.49.018-.849.009-1.296.022-1.545.043a1.47 1.47 0 0 0-.243.034.31.31 0 0 0-.094.04c-.32.197-.49.516-.49.922 0 .135.028.297.115.569.087.272.232.65.46 1.22l.58 1.444.005.012V32.13l-.004.012-.58 1.444-.086 2.711Zm26.14-4.209V8.41m0 23.68V8.41m0 0 .58-1.443-.58 1.444ZM9.166 33.408l.248-.62V7.713l-.249-.62a23.025 23.025 0 0 1-.235-.621 1.222 1.222 0 0 1-.02-.07.108.108 0 0 1-.003-.023.067.067 0 0 1 .044-.063.192.192 0 0 1 .03-.006l.046-.003.169-.005a378.713 378.713 0 0 1 3.003-.03c1.99-.01 4.736-.017 7.758-.017h11.09l-.038.092-.29.703-.278.685v25.03l.278.684.29.704.038.092h-11.09c-3.022 0-5.768-.007-7.758-.018-.996-.005-1.802-.012-2.36-.018a57.348 57.348 0 0 1-.812-.016 1.112 1.112 0 0 1-.062-.006.07.07 0 0 1-.031-.013.067.067 0 0 1-.027-.053.316.316 0 0 1 .008-.042c.003-.014.009-.03.015-.05l.056-.157c.047-.125.11-.29.18-.465Z"
            fill="#000" stroke="#000" stroke-width=".133" />
        <path
            d="M12.326 8.788c-.348.218-.522.544-.522 1.016 0 .471.174.798.522 1.015.232.145.384.145 7.603.145 7.218 0 7.37 0 7.602-.145.349-.217.523-.544.523-1.015 0-.472-.174-.798-.523-1.016-.232-.145-.384-.145-7.602-.145-7.219 0-7.37 0-7.603.145Zm5.876 4.622c-.457.224-.675.76-.559 1.37.037.21.182.414.588.827l.537.552v.994c0 .544-.015.993-.036.993-.073 0-1.705-.965-1.763-1.044-.037-.044-.138-.356-.225-.697-.181-.674-.356-.965-.646-1.117-.544-.268-1.088-.181-1.48.232-.319.341-.406.704-.283 1.16.044.175.066.342.044.37-.015.037-.181.102-.363.153-.442.124-.805.53-.87.972-.044.269-.022.4.116.675.333.675.798.805 1.893.522l.58-.145.864.494c.471.268.863.507.863.53 0 .02-.392.26-.863.529l-.864.493-.602-.152c-1.044-.269-1.574-.13-1.878.479-.175.355-.182.652-.03 1.044.138.334.4.552.842.682.268.073.312.116.29.268a7.383 7.383 0 0 0-.036.588c-.015.464.109.697.537.987.203.145.319.166.682.145.703-.044.986-.349 1.233-1.328.073-.283.16-.544.196-.587.058-.08 1.69-1.045 1.763-1.045.021 0 .036.45.036 1.001v1.001l-.479.464c-.53.523-.682.791-.682 1.241 0 1.06 1.226 1.545 2.039.813l.29-.262.232.218c.334.32.5.384.936.384.704 0 1.146-.442 1.146-1.146 0-.493-.102-.667-.682-1.248l-.479-.464v-1.001c0-.551.015-1.001.037-1.001.072 0 1.704.965 1.762 1.045.037.043.124.304.196.587.247.98.53 1.284 1.234 1.328.55.036.863-.153 1.117-.668.167-.326.174-.384.094-.754-.044-.218-.065-.42-.05-.45.021-.029.173-.094.348-.138.435-.108.82-.53.884-.98.044-.268.022-.398-.115-.674-.334-.674-.799-.805-1.894-.522l-.58.145-.864-.493c-.471-.269-.863-.508-.863-.53 0-.022.392-.261.87-.537l.871-.493.566.152c1.074.29 1.552.153 1.893-.522.138-.276.16-.406.117-.675a1.244 1.244 0 0 0-.871-.972c-.181-.05-.348-.116-.363-.145-.022-.036 0-.225.051-.428.24-1.052-.783-1.835-1.77-1.342-.29.152-.464.443-.646 1.117-.087.341-.188.653-.225.697-.058.08-1.69 1.044-1.762 1.044-.022 0-.037-.45-.037-1v-1.002l.48-.464c.26-.261.521-.559.58-.668.137-.26.13-.812-.015-1.117-.326-.682-1.313-.82-1.922-.268l-.29.261-.233-.225c-.13-.123-.326-.261-.435-.297-.298-.116-.776-.095-1.052.043Zm5.731 16.27c-.348.218-.522.545-.522 1.017 0 .471.174.797.522 1.015.218.13.37.145 1.8.145 1.428 0 1.58-.014 1.798-.145.349-.218.523-.544.523-1.015 0-.472-.174-.799-.523-1.016-.217-.13-.37-.145-1.799-.145-1.429 0-1.581.014-1.799.145Z"
            fill="#000" />
    </svg>
    <svg fill="none" viewBox="0 0 40 40" id="products--icon-13" xmlns="http://www.w3.org/2000/svg">
        <path
            d="M4.393 2.081a3.234 3.234 0 0 0-2.126 1.76C2 4.389 2 4.396 2 5.29c0 .887.007.923.24 1.413a3.253 3.253 0 0 0 2.484 1.84c.282.035 1.035.071 1.675.071h1.169l.077.556c.542 3.72 3.358 7.045 6.92 8.17 1.344.425 1.611.454 5.595.505 3.9.05 3.864.05 4.618.432 1.119.584 1.879 1.479 2.287 2.705a4.425 4.425 0 0 1 0 2.668c-.486 1.45-1.415 2.408-2.858 2.935-.295.115-.682.158-1.654.209-.697.029-1.33.08-1.415.1-.12.037-.168-.006-.274-.252-.486-1.11-1.696-2.192-2.956-2.646l-.563-.202-2.957-.022c-2.871-.014-2.963-.014-3.188.13-.423.267-.507.584-.507 1.983 0 .67.035 1.435.077 1.688a5.23 5.23 0 0 0 1.373 2.812l.45.49-.443.47c-1.126 1.203-1.485 2.357-1.443 4.672.021 1.406.042 1.478.507 1.832.19.144.274.151 3.055.151 3.195 0 3.287-.007 4.272-.52 1.02-.518 1.739-1.232 2.238-2.213l.183-.353 2.133.014c1.647.014 2.316-.014 2.936-.1a13.807 13.807 0 0 0 6.834-3.044c.627-.52 1.81-1.752 2.26-2.365a14.394 14.394 0 0 0 2.766-6.736c.14-1.03.148-3.035.007-4.045-.789-5.711-4.97-10.47-10.404-11.855-1.463-.375-.802-.354-12.085-.397C5.048 6.343 4.879 6.343 4.654 6.2c-.704-.433-.67-1.486.056-1.854.232-.122.71-.13 6.961-.13h6.708l.275-.158c.359-.21.591-.67.535-1.082-.043-.324-.197-.584-.5-.807-.19-.152-.246-.152-7.067-.166-5.244-.008-6.961.007-7.229.079Zm18.618 10.03v3.498h-2.78c-2.999 0-3.802-.057-4.745-.332-.718-.209-1.731-.692-2.337-1.117-.584-.404-1.464-1.27-1.886-1.86-.401-.549-.852-1.385-1.056-1.955-.155-.425-.43-1.471-.43-1.637 0-.08 1.134-.094 6.617-.094h6.617v3.498Zm3.871-3.165c2.766.7 5.237 2.452 6.898 4.91.197.282.352.542.352.578 0 .029-1.478.743-3.287 1.579l-3.294 1.514-.352-.303c-.472-.403-1.126-.829-1.612-1.045l-.394-.173v-7.37l.479.065c.26.036.802.144 1.21.245Zm8.51 8.408c.359 1.356.45 2.135.415 3.656-.028 1.125-.063 1.479-.225 2.2-.324 1.442-.9 2.877-1.57 3.901l-.246.382-.746-.339a374.921 374.921 0 0 1-4.16-1.925c-.014-.014.042-.188.127-.382.605-1.45.605-3.613 0-5.063-.085-.194-.141-.367-.127-.382.063-.065 6.159-2.848 6.23-2.855.049 0 .182.367.302.807ZM17.19 26.13a3.01 3.01 0 0 1 1.717 1.572c.17.383.17.39.042.577-.352.512-.52.808-.633 1.125l-.12.346-1.555-.021-1.549-.022-.479-.23c-1.126-.549-1.738-1.616-1.738-3.022v-.462h1.957c1.76 0 2.006.015 2.358.137Zm14.324 2.798c.394.18.71.368.697.411-.043.13-.95.895-1.598 1.342-1.485 1.03-3.203 1.68-5.153 1.968l-.267.044v-4.075l.387-.166c.443-.187 1.274-.728 1.682-1.103l.282-.252 1.619.75c.894.41 1.95.901 2.35 1.081Zm-8.503 1.983v1.883l-.697-.044c-.838-.05-1.225-.209-1.612-.67-.31-.354-.436-.721-.436-1.248 0-.469.148-.83.478-1.183.458-.49.789-.605 1.69-.62l.577-.007v1.89Zm-4.787 1.161c0 .159.465 1.09.662 1.334l.197.231-.12.303c-.274.714-.922 1.356-1.675 1.666-.338.144-.52.158-2.386.18l-2.027.022v-.527c0-.627.14-1.247.401-1.73.373-.7 1.225-1.342 2.006-1.493.17-.036.894-.065 1.626-.072 1.028-.007 1.316.014 1.316.086Z"
            fill="#000" />
        <path
            d="M14.473 10.085c-.36.137-.472.246-.627.606-.323.743.176 1.529.965 1.529.415 0 .746-.18.957-.52.218-.36.162-.987-.12-1.29a2.162 2.162 0 0 0-.31-.281c-.218-.116-.605-.137-.865-.043Z"
            fill="#000" />
    </svg>
    <svg fill="none" viewBox="0 0 40 40" id="products--icon-14" xmlns="http://www.w3.org/2000/svg">
        <path
            d="M10.726 2.63c-.505.327-1.093 1.312-1.257 2.111-.273 1.278.04 2.426.963 3.54.82.984.841 1.798.062 2.755-.212.26-.24.341-.24.683 0 .663.37 1.039 1.012 1.039.472 0 .697-.137 1.087-.65.923-1.216 1.087-2.795.437-4.148-.109-.239-.403-.67-.656-.97-.827-.991-.847-1.805-.068-2.761.212-.26.24-.342.24-.684 0-.437-.13-.697-.452-.909-.26-.17-.882-.177-1.128-.007Zm6.151 0c-.512.334-1.086 1.305-1.257 2.118-.274 1.271.04 2.426.957 3.527.826.99.847 1.804.068 2.76-.212.26-.24.342-.24.684 0 .663.37 1.039 1.012 1.039.472 0 .697-.137 1.087-.65.922-1.216 1.086-2.795.437-4.148-.11-.239-.403-.67-.656-.97-.827-.991-.847-1.805-.068-2.761.212-.26.239-.342.239-.684 0-.437-.13-.697-.451-.909-.26-.17-.882-.177-1.128-.007Zm6.151 0c-.512.334-1.086 1.305-1.257 2.118-.274 1.271.04 2.426.956 3.527.827.99.848 1.804.069 2.76-.212.26-.24.342-.24.684 0 .663.37 1.039 1.012 1.039.472 0 .697-.137 1.087-.65.922-1.216 1.086-2.795.437-4.148-.11-.239-.403-.67-.656-.97-.827-.991-.848-1.805-.068-2.761.212-.26.239-.342.239-.684 0-.437-.13-.697-.451-.909-.26-.17-.882-.177-1.128-.007ZM3.462 15.006c-.11.075-.26.226-.335.349-.13.198-.13.294-.096 1.592.041 1.531.157 2.584.465 4.114.758 3.793 2.262 7.067 4.456 9.65l.533.636H6.113c-2.617 0-2.658.007-2.952.43-.328.493-.164 1.108.58 2.16 1.272 1.798 3.295 3.082 5.448 3.458.909.157 15.575.157 16.484 0 2.508-.437 4.818-2.112 5.98-4.319.253-.485.273-.964.048-1.299-.294-.423-.335-.43-2.96-.43h-2.378l.321-.355c.171-.199.554-.677.841-1.053l.52-.69 1.1-.041c1.613-.055 2.863-.397 4.182-1.155 2.27-1.299 3.8-3.329 4.45-5.898.232-.943.3-2.508.123-3.048a3.174 3.174 0 0 0-1.996-2.05c-.342-.117-.581-.13-2.221-.13H31.85v-.704c0-.766-.075-.964-.45-1.217-.192-.123-.596-.13-13.97-.13-13.436 0-13.778.007-13.97.13Zm26.27 2.174c0 .423-.198 2.05-.348 2.89-.8 4.511-2.905 8.53-5.672 10.84l-.527.437H11.676l-.485-.403c-2.747-2.242-4.907-6.356-5.72-10.874-.137-.785-.342-2.5-.342-2.925v-.218h24.604v.253Zm5.68 1.981c.417.267.499.5.45 1.36-.136 2.481-1.721 4.812-4.018 5.898-.642.308-1.537.581-2.132.657l-.396.047.102-.232c.055-.123.253-.567.438-.977.71-1.579 1.36-3.766 1.653-5.604.076-.492.158-.991.178-1.114l.034-.233 1.723.028c1.64.02 1.735.027 1.968.17ZM28.598 33.61c-.56.595-1.9 1.353-2.795 1.593-.827.211-1.886.245-8.372.245s-7.545-.034-8.372-.245c-.895-.24-2.235-.998-2.795-1.593l-.205-.212h22.744l-.205.212Z"
            fill="#000" />
    </svg>
    <svg fill="none" viewBox="0 0 40 40" id="products--icon-2" xmlns="http://www.w3.org/2000/svg">
        <path
            d="M12.19 5.035C10.64 5.6 9.312 6.12 9.227 6.2c-.086.071-1.65 1.463-3.477 3.084a299.036 299.036 0 0 0-3.727 3.341c-.414.407-.535.664-.442.957.028.085 1.428 1.556 3.105 3.255l3.063 3.099v8.367c0 7.81.014 8.367.128 8.51a.961.961 0 0 0 .279.235c.221.114 23.095.114 23.316 0a.96.96 0 0 0 .279-.235c.114-.143.128-.7.128-8.51v-8.367l3.063-3.099c1.678-1.699 3.077-3.17 3.105-3.255.093-.286-.028-.55-.406-.921-.207-.2-1.964-1.77-3.906-3.491l-3.534-3.141-2.855-1.014C25.776 4.457 24.433 4 24.362 4c-.35 0-.693.378-.693.742 0 .086-.064.4-.135.693-.5 1.956-1.835 3.063-3.706 3.063-1.106 0-1.92-.293-2.627-.95-.642-.592-1.128-1.592-1.278-2.62-.093-.642-.335-.935-.764-.92-.093 0-1.428.463-2.97 1.027Zm2.527 1.071c.242.95 1.02 2.106 1.827 2.713 1.064.807 2.128 1.142 3.484 1.092 1.292-.05 2.342-.471 3.291-1.335.722-.65 1.35-1.663 1.571-2.534.043-.179.114-.329.164-.329a76.41 76.41 0 0 1 2.263.807l2.192.8 3.363 3.027c1.856 1.663 3.355 3.048 3.348 3.077-.014.028-.992 1.042-2.178 2.256l-2.163 2.206V16.15c0-1.8-.021-1.935-.314-2.17-.171-.143-.55-.165-.764-.058-.364.2-.35-.335-.35 11.102v10.602H9.105v-21.36l-.207-.208c-.407-.407-1.063-.2-1.178.371-.021.129-.042.943-.042 1.814v1.592L5.52 15.658c-1.192-1.192-2.17-2.199-2.184-2.227-.007-.029 1.506-1.414 3.37-3.084L10.09 7.32l2.163-.8c1.192-.435 2.213-.792 2.27-.785.064.007.143.164.193.371Z"
            fill="#000" stroke="#000" />
    </svg>
    <svg fill="none" viewBox="0 0 40 40" id="products--icon-3" xmlns="http://www.w3.org/2000/svg">
        <path
            d="M12.75 2.121c-.37.178-.547.492-.547.947 0 .762.413 1.068 1.452 1.068h.648V15.7l-3.86 7.541c-2.128 4.151-3.958 7.776-4.072 8.053-.84 2.08-.221 4.494 1.538 5.96.484.406 1.502.919 2.122 1.069.32.085 2.129.1 9.969.1 10.83 0 9.961.042 11.186-.585 2.364-1.203 3.44-4.087 2.443-6.544-.114-.277-1.944-3.902-4.066-8.046L25.696 15.7V4.136h.648c.74 0 1.047-.106 1.296-.455.22-.307.22-.919 0-1.225-.342-.484.093-.456-7.655-.456-6.301 0-7.02.014-7.234.121Zm10.817 7.975c0 4.358.029 6.039.086 6.224.05.135.733 1.524 1.53 3.069.79 1.552 1.439 2.84 1.439 2.862 0 .022-2.977.043-6.622.043-3.639 0-6.623-.021-6.623-.043 0-.028.648-1.31 1.446-2.862.79-1.552 1.474-2.934 1.524-3.07.057-.184.085-1.865.085-6.223l.007-5.96h7.121l.007 5.96ZM28.53 25.94c2.4 4.635 3.233 6.358 3.304 6.814.256 1.553-.861 3.162-2.42 3.49-.535.113-18.294.113-18.828 0-1.552-.328-2.663-1.923-2.42-3.476.07-.47.825-2.029 3.339-6.9l.74-1.438h15.509l.776 1.51Z"
            fill="#000" />
    </svg>
    <svg fill="none" viewBox="0 0 40 40" id="products--icon-4" xmlns="http://www.w3.org/2000/svg">
        <path
            d="M13.475 4.035c-4.177.541-7.67 3.403-8.985 7.361-.413 1.238-.484 1.753-.49 3.423 0 1.663.07 2.146.49 3.442 1.128 3.442 4.1 6.207 7.632 7.084.85.212 1.373.29 2.372.341l.831.045-.032.2c-.052.348.077 1.818.219 2.469.213.973.47 1.714.928 2.63 1.49 2.984 4.177 5.053 7.51 5.781.599.13.857.142 2.19.142 1.664 0 2.205-.07 3.45-.483.811-.265 2.14-.941 2.868-1.457.786-.56 1.972-1.747 2.533-2.533.825-1.16 1.476-2.662 1.798-4.145.13-.573.142-.844.142-2.172 0-1.334-.013-1.592-.142-2.192-.49-2.243-1.553-4.15-3.171-5.691a10.577 10.577 0 0 0-7.11-2.959l-.818-.019v-.419a10.843 10.843 0 0 0-1.167-4.866c-.554-1.128-1.122-1.928-1.992-2.804-1.72-1.74-3.841-2.817-6.22-3.159-.425-.058-2.417-.077-2.836-.019Zm.335 19.588c-.051.052-1.199-.206-1.766-.393a8.905 8.905 0 0 1-5.981-6.955c-.13-.754-.123-2.165.006-2.945.47-2.733 2.275-5.163 4.77-6.414.754-.38 1.701-.696 2.443-.818l.515-.084.02 8.792c.006 4.84.006 8.805-.007 8.818ZM16.608 6.15c3.461.729 6.194 3.5 6.884 6.987.154.76.225 1.696.167 2.121l-.038.31-.497.148a10.684 10.684 0 0 0-4.815 2.92c-.354.367-.812.908-1.018 1.198-.419.58-1.006 1.67-1.283 2.366l-.174.451-.006-8.302V6.053h.155c.09 0 .367.045.625.096Zm11.067 11.287c1.186.2 2.636.799 3.52 1.45l.444.329-6.207 6.207c-3.416 3.416-6.24 6.2-6.265 6.181-.11-.07-.69-.986-.948-1.502a9.656 9.656 0 0 1-.818-2.455c-.136-.78-.136-2.218 0-2.985.625-3.487 3.235-6.284 6.632-7.103a8.89 8.89 0 0 1 3.642-.122Zm5.84 3.822c.65.98 1.166 2.282 1.353 3.416.13.78.136 2.198.007 2.946a8.908 8.908 0 0 1-5.988 6.955c-1.76.573-3.758.573-5.498 0-.929-.31-2.082-.916-2.617-1.373-.11-.097.283-.503 6.09-6.31 4.81-4.81 6.22-6.188 6.285-6.13.046.038.213.257.368.496Z"
            fill="#000" />
    </svg>
    <svg fill="none" viewBox="0 0 40 40" id="products--icon-5" xmlns="http://www.w3.org/2000/svg">
        <path
            d="M9.42 4.06c-.406.057-.688.226-.831.501-.132.263-.213 1.056-.213 2.157 0 3.876 1.232 6.783 3.526 8.308 1.6 1.063 3.632 1.6 6.145 1.62l1.02.005v7.452l-.445.044c-1.669.156-3.694.963-5.176 2.063l-.45.331-.825.038c-1.676.069-3.101.531-4.483 1.45-.612.407-1.838 1.626-2.231 2.22C4.53 31.636 4 33.287 4 34.78c0 .688.069.875.413 1.1.175.113.6.119 15.591.119s15.416-.006 15.591-.119c.338-.225.413-.412.413-1.069 0-1.525-.525-3.17-1.457-4.563-.412-.62-1.631-1.826-2.263-2.245-1.363-.894-2.8-1.356-4.45-1.425l-.826-.038-.45-.33c-1.482-1.107-3.501-1.908-5.177-2.064l-.443-.044V16.65l1.019-.006c4.188-.031 7.083-1.506 8.514-4.345.57-1.119.95-2.544 1.1-4.088.088-.87.038-3.057-.075-3.438-.08-.288-.406-.62-.662-.682-.344-.087-3.05-.119-3.72-.044-1.913.22-3.513.77-4.782 1.645-.788.543-1.8 1.706-2.182 2.5-.063.131-.131.238-.15.238-.019 0-.088-.107-.15-.238-.381-.794-1.394-1.957-2.182-2.5-1.219-.844-2.707-1.37-4.501-1.607-.8-.1-3.107-.119-3.75-.025Zm3.551 1.97c3 .413 4.77 1.707 5.595 4.089.363 1.056.45 1.638.482 3.138l.03 1.419-.174.044c-.244.062-1.813-.019-2.557-.132-1.838-.28-3.12-.85-4.095-1.837-1.257-1.27-1.838-2.989-1.92-5.646l-.037-1.169.4-.018c.663-.032 1.55.012 2.276.112Zm16.404-.1h.338l-.038 1.17c-.062 2.03-.394 3.4-1.131 4.675-.307.532-1.238 1.476-1.738 1.77-.844.5-1.938.862-3.145 1.043-.731.113-2.313.194-2.55.132l-.17-.038v-1.181c0-2.445.595-4.301 1.782-5.564.838-.894 2.238-1.557 3.926-1.857.582-.1 2.032-.212 2.263-.175.07.013.276.025.463.025Zm-7.62 20.224c1.469.319 2.919 1.006 3.97 1.888.58.481.562.475 1.75.487.931.013 1.137.032 1.681.175 1.52.407 2.926 1.4 3.795 2.676.487.725 1.056 2.132 1.056 2.632 0 .106-.525.112-14.003.112S6 34.118 6 34.012c0-.5.57-1.907 1.057-2.632.869-1.275 2.276-2.27 3.795-2.676.544-.143.75-.162 1.681-.175 1.188-.012 1.17-.006 1.75-.487 1.245-1.038 2.889-1.744 4.69-2.007.418-.063 2.325.019 2.781.119Z"
            fill="#000" />
    </svg>
    <svg fill="none" viewBox="0 0 40 40" id="products--icon-6" xmlns="http://www.w3.org/2000/svg">
        <path
            d="M18.095 1.092c-3.665.528-6.81 2.082-9.355 4.634-2.61 2.603-4.222 5.936-4.67 9.645-.109.925-.087 3.036.043 4.063.68 5.307 4.077 10.035 8.957 12.471 1.692.846 3.312 1.338 5.358 1.627.369.05 3.152.094 7.837.123 7.1.043 7.273.043 7.504.188.333.195.52.528.52.904s-.187.708-.52.903c-.231.138-.405.145-3.853.181-3.246.029-3.63.05-3.789.16-.303.216-.44.498-.44.925 0 .448.144.723.477.947.195.13.404.137 3.976.137 3.542 0 3.788-.007 4.172-.137 1.373-.477 2.22-1.663 2.22-3.116 0-1.454-.847-2.64-2.22-3.116-.376-.13-.622-.138-3.225-.138h-2.82l.622-.39a15.236 15.236 0 0 0 2.314-1.772c2.935-2.682 4.728-6.116 5.227-9.991.166-1.316.115-3.716-.109-4.924-.462-2.559-1.453-4.85-2.971-6.89-2.502-3.361-6.08-5.566-10.266-6.34-1.07-.195-3.919-.253-4.989-.094Zm3.883 2.205a14.325 14.325 0 0 1 6.224 2.371c.203.138.37.268.355.282-.015.008-.253-.028-.528-.086-1.526-.318-3.926-.383-5.451-.152-2.35.354-4.606 1.178-6.42 2.357-.37.238-.695.434-.716.434-.08 0 .043-2.083.159-2.733.13-.723.397-1.837.463-1.909.072-.08 1.438-.412 2.176-.52.824-.123 2.95-.145 3.738-.044Zm-8.626 2.278c-.151.86-.21 3.188-.1 4.171.411 3.796 2.002 7.129 4.699 9.818 2.436 2.444 5.299 3.926 8.784 4.562.744.137 1.128.16 2.71.16 1.353 0 2.01-.03 2.459-.11.34-.064.622-.108.629-.1.007.007-.065.144-.159.303-.152.253-.304.362-1.135.774-2.133 1.07-3.933 1.489-6.377 1.504-3.774.007-7.251-1.425-9.912-4.093-2.668-2.66-4.099-6.138-4.092-9.912.015-2.443.434-4.243 1.504-6.376.412-.832.52-.983.774-1.135.159-.094.296-.167.303-.16.007.008-.036.275-.087.594Zm12.826 2.277c1.793.195 3.37.658 4.989 1.46.903.449 1.055.55 1.207.81.094.16.166.296.159.304a6.164 6.164 0 0 1-.629-.101c-.925-.167-3.911-.16-4.916.007-3.478.592-6.355 2.017-8.871 4.417l-.658.63-.513-1.028c-.449-.889-.984-2.32-1.121-3-.043-.202-.014-.246.369-.55 2.827-2.212 6.55-3.31 9.984-2.95ZM8.841 9.71c-1.36 7.027 2.277 14.308 8.748 17.525 1.092.542 1.598.745 2.617 1.041 2.704.788 5.451.882 8.213.282l.195-.043-.18.151c-.658.557-2.321 1.454-3.456 1.858-1.583.579-3 .825-4.743.825-3.63 0-7.013-1.396-9.731-4.02a14.349 14.349 0 0 1-4.02-7.288c-.231-1.091-.318-3.297-.173-4.432.231-1.836.882-3.853 1.713-5.263.333-.564.904-1.417.933-1.388.014.014-.036.354-.116.752Zm22.911 2.877c.376.073.962.196 1.302.282l.621.16.152.542c.087.303.18.68.203.838.05.26.036.297-.116.34a4.72 4.72 0 0 1-.709.043c-.73 0-2.277.239-3.275.5-2.682.7-5.14 2.082-7.2 4.04l-.687.651-.412-.274a15.213 15.213 0 0 1-2.14-1.793c-.326-.333-.6-.637-.6-.673 0-.13 1.402-1.453 2.089-1.973 2.003-1.504 4.403-2.466 6.97-2.791.773-.094 3.007-.029 3.802.108Zm2.516 5.401c-.036 1.034-.224 2.248-.47 3.051l-.13.434-.614.159a14.157 14.157 0 0 1-7.91-.239 17.304 17.304 0 0 1-.853-.289c-.173-.101 1.395-1.38 2.552-2.082 1.974-1.2 4.287-1.894 6.688-2.01.238-.015.513-.029.607-.036l.174-.015-.044 1.027Z"
            fill="#000" />
    </svg>
    <svg fill="none" viewBox="0 0 40 40" id="products--icon-7" xmlns="http://www.w3.org/2000/svg">
        <path
            d="M6.985 5.819c-1.23.372-2.151 1.19-2.524 2.27-.253.707-.176 1.693.176 2.438.042.099-.007.111-.507.111-.485 0-.618.025-.99.193-.486.21-.732.44-.971.893-.162.297-.169.366-.169 1.842v1.525l.232.391c.26.447.64.738 1.174.906l.352.111v12.964l-.352.112c-.534.168-.914.46-1.174.906L2 30.87v3.071l.218.378c.239.428.5.645 1.012.856l.352.149h32.85l.429-.192c.485-.211.731-.44.97-.894.162-.297.169-.366.169-1.842V30.87l-.232-.39c-.26-.447-.64-.738-1.174-.906l-.352-.112V16.5l.352-.111c.534-.168.914-.46 1.174-.906l.232-.39V12.02l-.218-.378c-.225-.403-.464-.614-.935-.837l-.288-.137-14.38-.03-14.378-.032-.352-.167c-.64-.298-.949-.738-.949-1.352 0-.62.323-1.067.984-1.371.303-.137.394-.143 2.075-.161 1.947-.025 2.095-.05 2.355-.422.19-.267.19-.8.007-1.048-.302-.403-.33-.41-2.503-.41-1.85.007-1.997.013-2.433.143Zm28.906 7.734v1.055H4.11v-2.109h31.78v1.054Zm-1.758 9.428v6.512H5.867V16.469h28.266v6.513Zm1.758 9.428v1.054H4.11v-2.109h31.78v1.055Z"
            fill="#000" />
        <path
            d="M16.133 18.676c-2.306.366-4.416 1.607-5.766 3.38-.394.528-.422.584-.422.925 0 .34.028.397.422.924 1.378 1.817 3.488 3.033 5.878 3.393 1.034.155 2.778.093 3.72-.124 1.483-.354 2.777-.993 3.895-1.936l.633-.527.738.974c.401.533.823 1.023.935 1.085.176.106.352.118 1.709.118 1.666 0 1.75-.018 2.046-.41.127-.173.134-.353.134-3.497 0-3.145-.007-3.325-.134-3.498-.295-.391-.38-.41-2.046-.41-1.357 0-1.533.013-1.709.118-.112.062-.534.552-.935 1.092l-.738.973-.612-.52a9.17 9.17 0 0 0-4.542-2.066c-.766-.118-2.46-.112-3.206.006Zm2.728 1.892c.893.112 1.793.434 2.65.943.444.267 1.33 1.01 1.54 1.296.12.168.12.18.008.335-.218.298-1.118 1.055-1.575 1.327-2.265 1.34-5.21 1.34-7.468-.006-.47-.273-1.357-1.017-1.568-1.315-.126-.161-.126-.173 0-.34.211-.292 1.097-1.037 1.568-1.31a7.39 7.39 0 0 1 3.122-.992c.633-.043.95-.037 1.723.062Zm9.084 2.413v2.047h-.597l-.767-1.024-.766-1.023.766-1.024.767-1.023h.597v2.047Z"
            fill="#000" />
        <path
            d="M15.472 22.168c-.324.193-.464.428-.464.813 0 .384.14.62.464.812.267.155.879.162 1.167.007.661-.341.661-1.297 0-1.644-.288-.149-.9-.143-1.167.012Z"
            fill="#000" />
    </svg>
    <svg fill="none" viewBox="0 0 40 40" id="products--icon-8" xmlns="http://www.w3.org/2000/svg">
        <path
            d="M11.33 2.117c-2.385.672-4.333 3.337-5.171 7.06-.136.612-.159.959-.159 2.34 0 1.518.015 1.67.204 2.379.513 1.903 1.586 3.368 3.11 4.228l.454.257-.287 9.25c-.325 10.321-.332 9.702.196 10.404.287.378.846.778 1.246.891.362.099 2.537.099 2.9 0 .4-.113.958-.513 1.245-.89.529-.703.521-.084.197-10.398l-.287-9.257.46-.257c2.167-1.215 3.353-3.563 3.353-6.644 0-4.085-2.19-8.162-4.953-9.22-.657-.256-1.873-.324-2.507-.143Zm2.236 1.79c1.502.732 2.876 2.952 3.428 5.52.219 1.041.241 2.982.038 3.842-.19.793-.454 1.435-.861 2.039-.536.816-.99 1.155-2.432 1.827-.43.197-.422-.31-.098 10.05.325 10.39.332 9.876-.128 10.11-.325.174-1.956.174-2.28 0-.461-.234-.461.295-.129-10.11.264-8.389.287-9.536.189-9.74-.113-.234-.136-.25-.959-.627-1.299-.589-2.19-1.782-2.62-3.526-.196-.808-.181-2.847.038-3.866.294-1.367.86-2.733 1.548-3.76.641-.96 1.691-1.805 2.491-2.009.484-.12 1.223-.022 1.775.25Zm8.774-1.82c-.28.113-.59.438-.672.702-.046.128-.333 2.114-.65 4.417-.498 3.692-.566 4.32-.566 5.346 0 1.412.113 1.986.566 2.93.566 1.178 1.367 1.97 2.567 2.574l.68.34-.287 9.242c-.325 10.314-.332 9.695.196 10.397.287.378.846.778 1.246.891.363.099 2.537.099 2.9 0 .4-.113.959-.513 1.245-.89.53-.703.521-.144.22-9.854-.151-4.78-.28-8.94-.287-9.242l-.015-.544.671-.34c1.17-.588 1.986-1.389 2.537-2.499.469-.951.597-1.593.597-2.982 0-1.057-.06-1.646-.566-5.369-.317-2.303-.59-4.25-.62-4.334-.075-.272-.415-.657-.671-.762a1.28 1.28 0 0 0-1.662.58c-.052.114-.271 1.45-.483 2.983a191.414 191.414 0 0 1-.4 2.802c-.015.007-.189-1.208-.385-2.719-.393-2.937-.468-3.239-.899-3.54-.347-.25-.981-.273-1.366-.046-.529.31-.59.528-.997 3.586-.196 1.51-.37 2.726-.385 2.719-.008-.015-.189-1.276-.4-2.802-.212-1.532-.423-2.854-.468-2.944a1.588 1.588 0 0 0-.605-.62c-.233-.12-.762-.128-1.041-.022Zm.906 6.682c.204 1.533.407 2.915.453 3.066.136.475.362.589 1.178.589.619 0 .724-.023.898-.174.25-.211.257-.226.687-3.473.204-1.48.385-2.696.408-2.696.023 0 .211 1.216.408 2.696.43 3.231.438 3.262.687 3.473.173.151.28.174.898.174.816 0 1.042-.114 1.178-.59.046-.15.25-1.532.453-3.065.212-1.533.393-2.801.4-2.816.016-.008.204 1.298.416 2.907.536 3.941.528 4.817-.068 5.995-.265.513-.838 1.163-1.352 1.518-.189.136-.664.362-1.057.505-1.132.43-1.05-.845-.695 10.307.325 10.397.333 9.876-.128 10.11-.325.174-1.956.174-2.28 0-.46-.234-.453.287-.129-10.11.355-11.152.438-9.876-.694-10.306-1.057-.393-1.707-.899-2.235-1.707-.43-.672-.582-1.23-.62-2.348-.03-.899.008-1.291.37-3.942.22-1.623.408-2.937.424-2.93.007.016.188 1.284.4 2.817Z"
            fill="#000" stroke="#000" stroke-width=".2" />
    </svg>
    <svg fill="none" viewBox="0 0 40 40" id="products--icon-9" xmlns="http://www.w3.org/2000/svg">
        <path
            d="M29.704 3.068c-1.54.165-2.99.575-4.31 1.218a9.91 9.91 0 0 0-2.708 1.922c-.78.773-1.293 1.437-1.868 2.449l-.43.752-.322-.663c-.67-1.348-1.977-3.078-2.586-3.413-.349-.185-.547-.192-.916-.007a.829.829 0 0 0-.431.43c-.267.548-.198.787.472 1.52 1.238 1.374 2.107 3.064 2.462 4.801.069.363.123.664.11.677-.007.007-.322-.11-.698-.26-3.188-1.3-6.8-.793-9.638 1.368-1.901 1.45-3.194 3.502-3.653 5.787-.191.978-.232 1.833-.143 3.037.205 2.873 1.04 5.507 2.558 8.065 2.23 3.755 5.807 6.703 8.728 7.196.588.095 1.491.061 2.223-.096.493-.103 1.348-.383 1.594-.513.11-.055.219-.034.54.103a6.151 6.151 0 0 0 2.497.513c1.259 0 2.189-.226 3.44-.828 1.294-.63 2.333-1.416 3.626-2.743 3.96-4.077 6.074-10.274 5.103-14.94-.39-1.867-1.231-3.453-2.497-4.712-.814-.8-1.56-1.334-2.674-1.888l-.896-.451.369-.41c1.382-1.52 2.36-4.03 2.613-6.697.103-1.081.089-1.389-.068-1.71-.22-.445-.527-.582-1.307-.575-.356.007-.89.034-1.19.068Zm.479 2.436c-.185 1.586-.773 3.297-1.498 4.384-.41.616-1.15 1.313-1.662 1.58-.452.226-1.06.342-1.772.35-.862 0-2.387.362-3.372.793l-.363.164.041-.26c.027-.137.123-.52.212-.842.972-3.427 3.564-5.739 7.217-6.423.355-.068.786-.13.95-.13l.295-.006-.048.39ZM16.33 13.979a7.38 7.38 0 0 1 2.976 1.292c.875.636 1.156.643 1.915.069.588-.445 1.806-1.026 2.6-1.245.635-.178.772-.192 1.983-.192 1.21 0 1.348.014 1.977.192a7.68 7.68 0 0 1 3.345 1.888c1.327 1.265 2.14 2.845 2.38 4.637.212 1.574-.116 4.009-.793 5.951-1.355 3.9-4.378 7.531-7.443 8.947-1.347.623-2.62.568-4.186-.17-.321-.151-.663-.274-.76-.274-.102 0-.478.137-.84.3-1.546.705-2.73.76-4.002.2-2.681-1.191-5.54-4.29-7.032-7.62-1.272-2.86-1.717-6.075-1.142-8.373.191-.773.848-2.066 1.395-2.75 1.19-1.484 3.037-2.572 4.925-2.887.595-.102 2.1-.082 2.702.035Z"
            fill="#000" stroke="#000" stroke-width=".2" />
        <path
            d="M13.732 16.29a5.34 5.34 0 0 0-2.23 1.04c-1.265.958-2.073 2.545-2.08 4.07 0 .431.028.561.158.753.41.615 1.238.608 1.703-.014.082-.11.15-.37.192-.746.075-.684.123-.868.369-1.354.24-.479.664-.93 1.156-1.252.506-.328.924-.465 1.628-.533.581-.062.787-.158 1.04-.493.321-.438.13-1.204-.363-1.443-.28-.144-.992-.157-1.573-.027Z"
            fill="#000" stroke="#000" stroke-width=".2" />
    </svg>
    <svg fill="none" viewBox="0 0 281 394" id="services--police" xmlns="http://www.w3.org/2000/svg">
        <path
            d="M166 239.06c0 5.468-4.458 9.94-9.91 9.94H11.91C6.458 249 2 244.528 2 239.06V33.797c0-5.468 4.458-9.94 9.91-9.94h144.18c5.452 0 9.91 4.472 9.91 9.94V239.06Z"
            fill="#C99C6C" />
        <path
            d="M166 239.06c0 5.468-4.458 9.94-9.91 9.94H11.91C6.458 249 2 244.528 2 239.06V33.797c0-5.468 4.458-9.94 9.91-9.94h144.18c5.452 0 9.91 4.472 9.91 9.94V239.06Z"
            stroke="#C99C6C" stroke-width="3.025" stroke-miterlimit="10" />
        <path d="M156.95 36.281H11.05v200.295h145.9V36.281Z" fill="#F9F9F9" />
        <path d="M146.97 70.946h-21.387v22.882h21.387V70.946Z" stroke="#B6B9BA" stroke-width="4.897"
            stroke-miterlimit="10" />
        <path
            d="M112.773 70.946H21.878v1.813h90.895v-1.813Zm0 8.938H21.878v1.813h90.895v-1.813Zm0 8.938H21.878v1.814h90.895v-1.814Z"
            fill="#B6B9BA" stroke="#B6B9BA" stroke-width="1.632" stroke-miterlimit="10" />
        <path d="M67.328 97.76h-45.45v1.814h45.45v-1.813Z" fill="#B6B9BA" stroke="#B6B9BA"
            stroke-width="1.154" stroke-miterlimit="10" />
        <path d="m130.932 78.095 4.99 10.727L146.97 68.44" stroke="#ABD26C" stroke-width="4.897"
            stroke-miterlimit="10" stroke-linecap="round" stroke-linejoin="round" />
        <path d="M146.97 128.331h-21.387v22.881h21.387v-22.881Z" stroke="#B6B9BA"
            stroke-width="4.897" stroke-miterlimit="10" />
        <path
            d="M112.773 128.331H21.878v1.813h90.895v-1.813Zm0 8.938H21.878v1.813h90.895v-1.813Zm0 8.938H21.878v1.813h90.895v-1.813Z"
            fill="#B6B9BA" stroke="#B6B9BA" stroke-width="1.632" stroke-miterlimit="10" />
        <path d="M67.328 155.145h-45.45v1.814h45.45v-1.814Z" fill="#B6B9BA" stroke="#B6B9BA"
            stroke-width="1.154" stroke-miterlimit="10" />
        <path d="m130.932 135.48 4.99 10.727 11.048-20.376" stroke="#ABD26C" stroke-width="4.897"
            stroke-miterlimit="10" stroke-linecap="round" stroke-linejoin="round" />
        <path d="M146.97 185.721h-21.387v22.882h21.387v-22.882Z" stroke="#B6B9BA"
            stroke-width="4.897" stroke-miterlimit="10" />
        <path
            d="M112.773 185.721H21.878v1.813h90.895v-1.813Zm0 8.938H21.878v1.813h90.895v-1.813Zm0 8.938H21.878v1.814h90.895v-1.814Z"
            fill="#B6B9BA" stroke="#B6B9BA" stroke-width="1.632" stroke-miterlimit="10" />
        <path d="M67.328 212.536h-45.45v1.813h45.45v-1.813Z" fill="#B6B9BA" stroke="#B6B9BA"
            stroke-width="1.154" stroke-miterlimit="10" />
        <path d="m130.932 192.871 4.99 10.727 7.299-13.47" stroke="#ABD26C" stroke-width="4.897"
            stroke-miterlimit="10" stroke-linecap="round" stroke-linejoin="round" />
        <path
            d="M110.426 15.404H95.349c.236-.96.376-1.95.376-2.98C95.725 5.571 90.171 0 83.339 0c-6.832 0-12.385 5.57-12.385 12.424 0 1.03.14 2.026.376 2.98h-15.9c-5.451 0-9.91 4.471-9.91 9.94v6.46c0 5.468 4.459 9.94 9.91 9.94h55c5.452 0 9.91-4.472 9.91-9.94v-6.46c-.006-5.463-4.464-9.94-9.915-9.94Zm-31.545-2.98c0-2.467 2.004-4.472 4.458-4.472 2.46 0 4.458 2.005 4.458 4.472a4.436 4.436 0 0 1-1.16 2.98h-6.6a4.457 4.457 0 0 1-1.156-2.98Z"
            fill="#CC4333" />
        <path d="M119.116 36.459H46.741v6.82h72.375v-6.82Z" fill="#CC4333" />
        <path
            d="M49.05 36.594h-.902v6.686h.902v-6.686Zm2.219 0h-.902v6.686h.902v-6.686Zm2.213 0h-.903v6.686h.903v-6.686Zm2.213 0h-.903v6.686h.903v-6.686Zm2.212 0h-.902v6.686h.902v-6.686Zm2.219 0h-.903v6.686h.903v-6.686Zm2.213 0h-.903v6.686h.903v-6.686Zm2.212 0h-.902v6.686h.902v-6.686Zm2.219 0h-.903v6.686h.903v-6.686Zm2.213 0h-.903v6.686h.903v-6.686Zm2.212 0h-.902v6.686h.902v-6.686Zm2.219 0h-.903v6.686h.903v-6.686Zm2.213 0h-.903v6.686h.903v-6.686Zm2.213 0h-.903v6.686h.903v-6.686Zm2.218 0h-.903v6.686h.903v-6.686Zm2.212 0h-.902v6.686h.903v-6.686Zm2.213 0h-.902v6.686h.902v-6.686Zm2.219 0h-.903v6.686h.903v-6.686Zm2.213 0h-.903v6.686h.903v-6.686Zm2.212 0h-.902v6.686h.902v-6.686Zm2.213 0h-.902v6.686h.902v-6.686Zm2.219 0h-.903v6.686h.903v-6.686Zm2.212 0h-.902v6.686h.902v-6.686Zm2.219 0h-.903v6.686h.903v-6.686Zm2.213 0h-.903v6.686h.903v-6.686Zm2.212 0h-.902v6.686h.902v-6.686Zm2.219 0h-.903v6.686h.903v-6.686Zm2.213 0h-.903v6.686h.903v-6.686Zm2.212 0h-.902v6.686h.902v-6.686Zm2.213 0h-.902v6.686h.902v-6.686Zm2.219 0h-.903v6.686h.903v-6.686Zm2.212 0h-.902v6.686h.902v-6.686Z"
            fill="#A51B1B" />
        <path d="M213.55 89.005h-26.892v9.398h26.892v-9.398Z" fill="#212121" />
        <path
            d="M228.188 150.345c5.061-15.524 18.109-42.082 10.497-46.739-9.953-6.042-38.518-9.776-38.518-9.776v.503s-28.858 2.392-38.812 8.392c-7.653 4.615 5.604 32.516 10.623 48.04 1.213 3.734 1.548 20.475 1.046 35.244-.126 3.65-3.597 20.391-3.095 27.355.167 2.056 23.504 14.937 30.029 15.273v-.504c6.566-.336 29.945-13.09 30.07-15.188.502-6.923-2.844-23.706-2.927-27.356-.46-14.769-.126-31.509 1.087-35.244Z"
            fill="#FFCBAC" />
        <path
            d="M171.351 106.081c-4.224-4.07-12.296-2.433-19.699 5.538-7.444 8.014-11.626 14.266-13.508 16.405-1.924 2.182-14.136 14.098-16.855 17.79-2.76 3.692-3.346 8.685.042 11.874 2.844 2.643 11.041.797 17.44-3.86 6.399-4.657 43.914-36.796 32.58-47.747Z"
            fill="#FFCBAC" />
        <path
            d="M171.686 100.291s-8.198-.377-13.467 2.811c-5.27 3.189-26.391 28.195-26.391 28.195s12.004 17.58 12.84 18.209c.836.63 20.911-14.727 20.911-14.727s12.505-27.733 6.107-34.488Z"
            fill="#403D3D" />
        <path
            d="M212.086 89.215c-.669-2.937-2.258-17.58-2.258-17.58h-9.661v.503h-9.661s-1.673 14.601-2.301 17.58c-.627 2.98-8.615 7.385-8.615 7.385l20.535.041v-.503l20.535.042c.042 0-7.905-4.49-8.574-7.468Z"
            fill="#FFCBAC" />
        <path
            d="M211.459 85.103a757.904 757.904 0 0 1-1.548-12.839l-.627-.63h-9.117v.504h-9.661s-1.673 14.601-2.301 17.58c-.627 2.98-8.615 7.385-8.615 7.385h.962c9.159-2.434 18.318-4.867 19.531-5.203 2.551-.755 11.376-6.797 11.376-6.797Z"
            fill="#D88E65" />
        <path
            d="M215.683 197.295c11.71-1.259 17.147 6.461 19.448 31.635 2.3 25.174 1.422 52.866.209 56.936-1.213 4.069-17.817 5.915-19.699 3.818-1.882-2.098-11.417-53.873-12.254-62.054-.836-8.14-.46-28.95 12.296-30.335Z"
            fill="#FFCBAC" />
        <path
            d="m226.306 307.179 3.095-.419c4.642-.588 7.946-4.909 7.361-9.566l-1.338-10.406c-.586-4.657-4.894-7.971-9.536-7.384l-3.095.42c-4.642.587-7.946 4.909-7.361 9.566l1.339 10.405c.585 4.657 4.893 7.972 9.535 7.384Zm4.099-201.811c4.349-3.902 12.379-1.972 19.489 6.293 7.11 8.266 11.083 14.685 12.882 16.909 1.84 2.266 13.592 14.601 16.185 18.419 2.593 3.776 3.011 8.811-.502 11.874-2.927 2.559-11.041.377-17.273-4.532-6.231-4.909-42.492-38.474-30.781-48.963Z"
            fill="#FFCBAC" />
        <path
            d="M226.39 291.614c3.596-.378 12.505-.126 14.47 23.369 1.966 23.496-4.6 56.642-4.6 56.642l-8.448.881s-8.658-42.964-9.578-51.313c-2.049-18.88-3.178-28.405 8.156-29.579Z"
            fill="#FFCBAC" />
        <path
            d="M241.153 103.899c-1.087-2.265-8.239-3.944-14.68-5.957-5.646-1.763-10.706-3.986-10.706-3.986l-15.726 8.978-15.683-9.02s-5.061 2.224-10.707 3.986c-6.399 1.972-13.592 3.65-14.68 5.916-1.129 2.307 10.331 46.529 11.585 50.264 1.297 3.776-2.049 30.041 1.213 37.928l28.105.923h.042l28.105-.839c2.593-9.02 0-34.656 1.296-38.432 1.38-3.734 12.965-47.453 11.836-49.761Z"
            fill="#403D3D" />
        <path
            d="M227.854 191.421s6.398 20.265 8.197 31.468c1.84 11.202 1.505 61.046 2.049 66.459.544 5.412 2.677 22.027 4.015 38.432 1.38 16.363.46 48.964.46 48.964l-20.911 1.678s-7.194-69.061-8.323-79.928c-1.129-10.866-13.802-68.683-13.802-68.683l.419-36.88 27.896-1.51Zm11.835 185.574s7.989 7.594 7.821 9.86c-.083 1.259-2.635 6.126-8.03 7.049-4.14.671-11.292-2.392-12.337-2.392-2.468 0-3.806-13.174-3.806-13.174l16.352-1.343Z"
            fill="#212121" />
        <path
            d="M195.357 184.246c-1.84-2.223-1.129-15.356-.083-17.873 1.422-3.483 7.486-7.804 12.547-9.65 5.06-1.846 13.843-1.175 15.892-4.741 2.05-3.567-3.387-6.965-5.73-6.965-2.383 0-17.565-4.448-19.949-4.112-2.384.336-20.284 2.182-23.128-.042-2.886-2.224-17.106-35.285-17.106-35.285 3.179 13.929 11.962 46.068 12.798 48.46 1.297 3.776-2.175 29.789 1.088 37.635l28.23 1.216h.042l28.105-.839s-6.106-.881-8.658-1.636c-2.467-.755-19.573-.797-24.048-6.168Z"
            fill="#212121" />
        <path
            d="M225.428 233.881c1.171 7.427 2.509 57.313 2.718 60.124.209 2.769 7.278 79.718 7.612 83.284l6.859-.545s.878-32.601-.46-48.964c-1.38-16.363-3.471-32.978-4.015-38.432-.544-5.413-.209-55.257-2.049-66.459-1.84-11.203-8.198-31.468-8.198-31.468l-16.603 1.175c-.042 0 12.965 33.859 14.136 41.285Z"
            fill="#403D3D" />
        <path
            d="M183.982 197.295c-11.711-1.259-17.148 6.461-19.448 31.635-2.3 25.174-1.422 52.866-.209 56.936 1.213 4.069 17.816 5.915 19.698 3.818 1.882-2.098 11.418-53.873 12.254-62.054.837-8.14.46-28.95-12.295-30.335Z"
            fill="#FFCBAC" />
        <path
            d="m173.359 307.179-3.095-.419c-4.643-.588-7.947-4.909-7.361-9.566l1.338-10.406c.586-4.657 4.893-7.971 9.536-7.384l3.095.42c4.642.587 7.946 4.909 7.36 9.566l-1.338 10.405c-.585 4.657-4.893 8.014-9.535 7.384Z"
            fill="#FFCBAC" />
        <path
            d="M173.275 291.614c-3.597-.378-12.505-.126-14.471 23.369-1.966 23.496 4.601 56.642 4.601 56.642l8.448.881s8.657-42.964 9.577-51.313c2.049-18.88 3.179-28.405-8.155-29.579Z"
            fill="#FFCBAC" />
        <path
            d="M171.811 191.421s-6.399 20.265-8.197 31.468c-1.841 11.202-1.506 61.046-2.05 66.459-.543 5.412-2.676 22.027-4.015 38.432-1.38 16.363-.46 48.964-.46 48.964l20.912 1.678s7.193-69.061 8.322-79.928c1.13-10.866 13.551-68.095 13.551-68.095l.167-37.51-28.23-1.468Zm-11.836 185.574s-7.988 7.594-7.821 9.86c.084 1.259 2.635 6.126 8.03 7.049 4.141.671 11.292-2.392 12.338-2.392 2.468 0 3.806-13.174 3.806-13.174l-16.353-1.343Z"
            fill="#212121" />
        <path
            d="M217.732 58.167c0 12.46-9.41 24.88-17.398 24.838-7.612 0-17.356-12.42-17.314-24.922 0-12.461 7.82-22.573 17.398-22.53 9.577.041 17.314 10.153 17.314 22.614Z"
            fill="#FFCBAC" />
        <path
            d="M183.02 60.642c-.753-1.343-3.346-7.133-2.803-9.734.586-2.601 3.639-8.265 4.643-9.944 1.004-1.678 10.037-6.21 11.376-6.293 1.338-.126 4.976-.462 7.779 0 2.802.462 7.779 2.392 8.908 4.657 1.129 2.266 3.931 4.867 4.81 6.671.92 1.804 2.467 6.462 2.258 7.133-.209.671-1.464 6.335-1.589 6.797-.126.461-.92 1.72-.92 1.72s-4.685-11.916-4.768-13.049c-.126-1.132-23.756-1.51-25.219-.713-1.464.797-4.475 12.755-4.475 12.755Z"
            fill="#9B5644" />
        <path
            d="M230.279 99.578s6.817 1.007 11.961 4.363c5.145 3.399 26.725 28.111 26.725 28.111s-12.672 17.119-13.509 17.706c-.836.587-20.325-15.524-20.325-15.524s-11.502-28.153-4.852-34.656Zm-48.472 129.017c-1.632 7.468-2.468 12.67-2.259 16.237.544 8.979-2.593 52.068-3.095 53.117-.46 1.049-6.231 77.242-6.566 79.843l8.03.63s7.194-69.061 8.323-79.928c.878-8.475 8.657-45.313 12.003-60.963l.711-3.986-2.593-6.209c-2.802-6.881-12.923-6-14.554 1.259Z"
            fill="#403D3D" />
        <path
            d="M229.903 202.372h-60.35a3.183 3.183 0 0 1-3.179-3.189v-8.643a3.183 3.183 0 0 1 3.179-3.189h60.35a3.182 3.182 0 0 1 3.178 3.189v8.643a3.182 3.182 0 0 1-3.178 3.189ZM198.912 97.9l1.213 5.076-9.034-3.44 5.228-2.475 2.593.839Z"
            fill="#212121" />
        <path d="m201.212 97.9-1.171 5.076 9.076-3.44-5.228-2.475-2.677.839Z" fill="#212121" />
        <path
            d="m181.388 95.172 5.27-6.167 12.254 8.895-4.433 8.349-13.091-11.077Zm37.39 0-5.27-6.167-12.295 8.895 4.475 8.349 13.09-11.077Z"
            fill="#424242" />
        <path
            d="M180.928 45.244s-7.444-1.217-7.444-5.119c0-4.195 19.029-18.125 26.474-18.125v23.286l-19.03-.042Zm38.059 0s7.445-1.217 7.445-5.119c0-4.195-19.03-18.125-26.474-18.125v23.286l19.029-.042Z"
            fill="#312F2F" />
        <path d="M219.196 44.657h-38.519v5.035h38.519v-5.035Z" fill="#292929" />
        <path d="M183.396 49.691s5.813 7.469 16.645 7.469c10.791 0 16.73-7.469 16.73-7.469h-33.375Z"
            fill="#212121" />
        <path d="M219.196 48.013h-38.519v1.678h38.519v-1.678Zm0-3.315h-38.519v.756h38.519v-.756Z"
            fill="#D1D1D1" />
        <path
            d="M196.528 42.852c0 2.392 2.51 4.322 3.513 4.322 1.339 0 3.514-1.93 3.514-4.322 0-2.391-.837-4.321-3.514-4.321-2.676-.042-3.513 1.93-3.513 4.321Z"
            fill="#D1D1D1" />
        <path
            d="M121.624 146.695c-3.472 3.105-4.643 7.427 3.931 17.245 8.574 9.817 31.493 30.082 31.493 30.082l5.646-5.034s-12.254-23.286-16.646-28.783c-4.433-5.538-15.307-21.691-24.424-13.51Zm53.574 51.607c.335-.797-.125-1.72-.92-2.014l-6.482-2.391c-.837-.294-1.757.084-2.091.881-.293.797.125 1.678.92 2.014l6.482 2.391c.837.294 1.757-.084 2.091-.881Z"
            fill="#FFCBAC" />
        <path
            d="M176.537 195.659c.334-.797-.126-1.72-.92-2.014l-6.483-2.392c-.836-.293-1.756.084-2.091.923-.293.798.125 1.679.92 2.014l6.483 2.392a1.676 1.676 0 0 0 2.091-.923Z"
            fill="#FFCBAC" />
        <path
            d="M177.666 193.058c.335-.798-.125-1.721-.92-2.014l-6.483-2.392c-.836-.294-1.756.084-2.091.923-.292.797.126 1.678.92 2.014l6.483 2.392c.836.293 1.798-.126 2.091-.923Z"
            fill="#FFCBAC" />
        <path
            d="M178.544 190.414c.335-.797-.125-1.72-.92-2.014l-6.482-2.391c-.837-.294-1.757.084-2.091.923-.293.797.125 1.678.92 2.014l6.482 2.391a1.675 1.675 0 0 0 2.091-.923Z"
            fill="#FFCBAC" />
        <path
            d="M154.998 183.911s11.418-.588 13.593-.084c2.174.503 9.577 4.951 9.577 4.951s-3.513 1.72-3.973 3.566c-.46 1.888-1.129 6.797-1.129 6.797s-7.529-.755-10.749-2.182c-3.22-1.384-6.064-3.482-6.064-3.482l-1.255-9.566Zm123.378-37.174c3.471 3.147 4.6 7.468-4.057 17.202-8.658 9.734-31.702 29.874-31.702 29.874l-5.604-5.077s12.421-23.202 16.854-28.699c4.475-5.496 15.475-21.523 24.509-13.3Zm-54.245 51.565c-.334-.797.126-1.72.92-2.014l6.483-2.391c.836-.294 1.756.084 2.091.881.293.797-.126 1.678-.92 2.014l-6.483 2.391c-.836.294-1.756-.084-2.091-.881Z"
            fill="#FFCBAC" />
        <path
            d="M222.793 195.659c-.335-.797.125-1.72.92-2.014l6.482-2.392c.837-.293 1.757.084 2.092.923.292.798-.126 1.679-.921 2.014l-6.482 2.392a1.675 1.675 0 0 1-2.091-.923Z"
            fill="#FFCBAC" />
        <path
            d="M221.664 193.058c-.335-.798.125-1.721.92-2.014l6.482-2.392c.837-.294 1.757.084 2.092.923.292.797-.126 1.678-.921 2.014l-6.482 2.392c-.837.293-1.798-.126-2.091-.923Z"
            fill="#FFCBAC" />
        <path
            d="M220.785 190.414c-.334-.797.126-1.72.921-2.014l6.482-2.391c.837-.294 1.757.084 2.091.923.293.797-.125 1.678-.92 2.014l-6.482 2.391a1.676 1.676 0 0 1-2.092-.923Z"
            fill="#FFCBAC" />
        <path
            d="M244.332 183.911s-11.418-.588-13.593-.084c-2.175.503-9.577 4.951-9.577 4.951s3.513 1.72 3.973 3.566c.46 1.888 1.129 6.797 1.129 6.797s7.528-.755 10.749-2.182c3.22-1.384 6.064-3.482 6.064-3.482l1.255-9.566Z"
            fill="#FFCBAC" />
        <path
            d="M224.8 111.326a.75.75 0 0 0-.752-.756c-.544-.042-1.38-.083-2.05-.209-.92-.168-2.007-.588-2.509-.798a.625.625 0 0 0-.544 0c-.502.21-1.589.63-2.509.798-.711.126-1.506.209-2.049.209a.811.811 0 0 0-.753.756c-.084 1.51-.126 5.076.836 7.174 1.548 3.315 3.806 4.28 4.517 4.532a.852.852 0 0 0 .46 0c.711-.252 3.011-1.217 4.517-4.532.92-2.056.878-5.622.836-7.174Z"
            fill="#D1D1D1" />
    </svg>
    <svg fill="none" viewBox="0 0 36 36" id="solutions--icon-1" xmlns="http://www.w3.org/2000/svg">
        <path
            d="M17.405.134c-.105.07-.26.225-.33.33-.127.19-.134.387-.134 3.319v3.115l-.611-.056a27.652 27.652 0 0 0-1.955-.05c-1.379.008-2.16.1-3.305.387A14.673 14.673 0 0 0 .065 19.62c-.098.843-.084 2.854.035 3.733.865 6.505 6.048 11.687 12.538 12.545.921.12 2.883.14 3.74.035 4.628-.577 8.685-3.29 11.005-7.383.802-1.414 1.42-3.193 1.695-4.915.134-.823.176-2.996.077-4.002l-.056-.576h3.115c2.932 0 3.13-.007 3.319-.134.105-.07.26-.225.33-.33.127-.197.134-.5.134-9.064 0-8.565-.007-8.867-.133-9.064a1.473 1.473 0 0 0-.331-.33C35.336.007 35.033 0 26.469 0s-8.867.007-9.064.134Zm5.162 4.408c0 2.37.007 2.44.154 2.708.099.175.26.323.443.415.274.133.436.14 3.305.14 2.87 0 3.03-.007 3.305-.14.183-.092.345-.24.443-.415.148-.268.155-.338.155-2.708V2.11h3.516v14.836H19.05V2.11h3.516v2.432Zm5.625-.675v1.758h-3.446V2.11h3.446v1.757ZM15.605 9.22c.246.126.647.436.893.675l.443.435v4.297h-3.34c-1.835 0-3.34-.014-3.34-.028 0-.162.661-1.864.964-2.482 1.28-2.644 2.875-3.7 4.38-2.897Zm-5.942 1.11c-.527.894-1.244 2.673-1.547 3.819l-.126.478H4.137l.288-.408a13.147 13.147 0 0 1 3.2-3.129c.604-.415 2.207-1.28 2.263-1.217.015.015-.084.219-.225.457Zm-2.172 6.807c-.373 2.644-.373 6.167.007 8.55l.042.26-2.278-.013-2.279-.021-.225-.696c-.45-1.364-.548-2.068-.548-3.875.007-1.406.028-1.709.162-2.348.14-.633.534-1.983.625-2.138.014-.028 1.048-.05 2.286-.05H7.54l-.05.331Zm9.45.457c0 .872.07 1.07.464 1.33.176.112.345.133 1.266.133h1.062l.042.471c.134 1.35.007 4.465-.232 5.892-.035.233-.07.444-.07.472 0 .035-2.18.056-4.845.056-4.557 0-4.852-.007-4.887-.127-.099-.316-.253-1.807-.324-3.058a20.79 20.79 0 0 1-.007-2.729c.07-1.237.24-2.812.33-3.108.036-.112.268-.12 3.622-.12h3.58v.788Zm9.943 1.653c.359 1.75.197 4.015-.422 5.942l-.246.759h-4.535l.084-.647c.183-1.294.253-2.799.232-4.507l-.028-1.737h4.873l.042.19ZM8.046 28.352c.148.724.816 2.51 1.301 3.473.295.598.527 1.083.513 1.083-.02 0-.323-.14-.675-.31-1.835-.878-3.698-2.481-4.823-4.14l-.225-.331h3.86l.05.225Zm10.646.597c-.584 1.702-1.35 3.066-2.208 3.924-1.055 1.069-2.123 1.245-3.157.535-.78-.542-1.547-1.555-2.18-2.898-.302-.64-.886-2.186-.886-2.348 0-.021 1.962-.035 4.36-.035h4.352l-.28.822Zm6.336-.766c0 .028-.211.337-.471.682-.886 1.181-2.187 2.37-3.432 3.13-.485.302-1.73.927-1.765.892-.007-.007.225-.506.52-1.104a18.77 18.77 0 0 0 1.245-3.256l.113-.4h1.891c1.048 0 1.899.02 1.899.056Z"
            fill="#000" />
    </svg>
    <svg fill="none" viewBox="0 0 40 40" id="solutions--icon-2" xmlns="http://www.w3.org/2000/svg">
        <path
            d="M19.532 2.135c-.936.45-8.54 4.655-8.695 4.81l-.176.168-.021 4.387c-.014 2.408 0 4.514.021 4.682.042.296.056.31 4.492 3.937 2.45 1.999 4.534 3.668 4.647 3.71.134.05.246.05.387 0 .261-.098 8.809-7.083 9.013-7.365l.155-.225-.014-4.57-.021-4.57-.211-.183c-.282-.253-8.745-4.858-9.013-4.908-.141-.028-.324.015-.564.127Zm4.056 3.338c1.972 1.077 3.584 1.971 3.584 1.992 0 .07-7.076 4.535-7.182 4.535-.105 0-7.182-4.464-7.182-4.534 0-.029 7.105-3.937 7.168-3.944.014 0 1.64.88 3.612 1.95Zm-7.766 5.647 3.464 2.204v8.301l-.4-.317a605.432 605.432 0 0 1-3.613-2.95l-3.204-2.626-.02-3.506-.015-3.507.155.099a1702.5 1702.5 0 0 1 3.633 2.302Zm12.096 4.556c-.014.042-1.59 1.359-3.506 2.915-1.908 1.563-3.527 2.886-3.591 2.943-.12.099-.127-.099-.127-4.049v-4.16l3.612-2.296 3.605-2.296.021 3.436c.008 1.887 0 3.464-.014 3.507Z"
            fill="#000" stroke="#000" stroke-width=".6" />
        <path
            d="M3.957 8.522c-.725.155-1.429.726-1.753 1.43L2 10.388v6.373c0 5.893.007 6.414.127 6.97.197.901.507 1.486 1.253 2.33.866.98 2.183 2.557 4.563 5.486l1.978 2.43v3.554l.204.226c.275.31.69.323.98.035l.19-.19.02-2.014c.014-1.577 0-2.05-.077-2.197-.127-.268-4.802-6.013-6.098-7.506-1.134-1.303-1.225-1.415-1.387-1.767-.33-.719-.345-1.007-.345-7.394 0-5.907 0-5.985.148-6.231.443-.754 1.5-.754 1.873 0 .12.225.126.577.126 4.175v3.929l-.274.33a3.634 3.634 0 0 0-.374.543c-.316.655-.337 1.493-.055 2.253.148.402.33.599 3.302 3.57 2.239 2.246 3.197 3.162 3.344 3.197.324.077.69-.148.803-.493.05-.148.07-.338.042-.422-.021-.085-1.4-1.514-3.056-3.176-1.654-1.669-3.048-3.105-3.097-3.204-.141-.26-.113-.866.049-1.133.07-.134.267-.331.422-.444.24-.162.366-.204.67-.204.21 0 .457.042.548.091.24.12 6.471 6.33 6.929 6.9.803 1.008 1.204 1.916 1.457 3.31.05.289.099 1.83.127 4.169l.042 3.717.19.19c.296.289.705.275.986-.042l.204-.232-.02-3.88c-.03-3.668-.036-3.922-.184-4.555-.296-1.338-.753-2.366-1.436-3.288-.465-.62-6.964-7.147-7.38-7.415-.394-.246-.978-.423-1.422-.423h-.338v-3.471c0-1.901-.028-3.647-.07-3.88-.19-1.176-1.12-2.027-2.317-2.12a3.132 3.132 0 0 0-.69.036Zm30.904.035c-.528.148-.767.289-1.134.662a2.44 2.44 0 0 0-.71 1.338c-.043.226-.071 1.81-.071 3.887v3.513h-.338c-.444 0-1.028.176-1.423.423-.415.268-6.914 6.795-7.378 7.414-.683.922-1.141 1.95-1.436 3.288-.148.634-.155.887-.184 4.556l-.02 3.88.203.232c.282.317.69.33.986.042l.19-.19.043-3.718c.028-2.337.077-3.88.126-4.168.254-1.394.655-2.302 1.458-3.31.457-.57 6.689-6.78 6.928-6.9.092-.05.338-.091.55-.091.69 0 1.232.542 1.232 1.246 0 .204-.043.443-.092.535-.049.098-1.443 1.535-3.098 3.204-3.253 3.267-3.224 3.239-2.978 3.717.127.254.507.437.767.373.141-.035 1.162-1.006 3.345-3.196 2.971-2.972 3.155-3.169 3.302-3.57.282-.76.261-1.598-.056-2.253a3.635 3.635 0 0 0-.373-.543l-.274-.33v-3.929c0-3.598.007-3.95.126-4.175.373-.754 1.43-.754 1.873 0 .148.246.148.324.148 6.231 0 6.386-.014 6.675-.345 7.393-.162.353-.253.465-1.387 1.768-1.338 1.549-5.929 7.196-6.084 7.492-.098.183-.105.493-.091 2.218l.021 2.007.19.19c.289.288.705.275.98-.035l.203-.226v-3.556l1.979-2.43c2.38-2.928 3.696-4.505 4.563-5.484.746-.845 1.056-1.43 1.253-2.33.12-.557.127-1.078.127-6.971v-6.373l-.204-.436c-.502-1.092-1.79-1.712-2.917-1.395Z"
            fill="#000" stroke="#000" stroke-width=".6" />
    </svg>
    <svg fill="none" viewBox="0 0 40 40" id="solutions--icon-3" xmlns="http://www.w3.org/2000/svg">
        <g clip-path="url(#bba)">
            <path
                d="M29.835 28.767c.906.188 1.785.4 2.675.543 3.676.59 4.444 2.27 4.968 5.018.248 1.567.416 3.147.502 4.731a.769.769 0 0 1-.727.94c-.477.014-.78-.345-.786-.94a16.99 16.99 0 0 0-.597-5.003c-.219-.59-.414-1.633-1.178-2.286-.598-.511-1.693-.776-1.693-.776-1.999-.494-3.374-.717-5.427-.88-1.261-.083-3.222 0-3.222 0-1.952.126-3.85.604-4.486.922-.76.38-1.364.664-1.81 1.2a5.154 5.154 0 0 0-1.142 2.583c-.192 1.33-.275 2.678-.401 4.02-.015.159.012.324-.015.48a.74.74 0 0 1-.748.677.712.712 0 0 1-.748-.671c-.008-2.439.14-4.858 1.247-7.096a5.227 5.227 0 0 1 3.889-2.829c.997-.207 1.994-.41 3.027-.622a.896.896 0 0 0-.103-.176 7.157 7.157 0 0 1-1.932-4.896 1.516 1.516 0 0 1 0-.193 9.562 9.562 0 0 0-1.175-4.984c-.326-.68-.678-1.347-1.006-2.026a.734.734 0 0 1 .321-1.1 25.37 25.37 0 0 1 6.515-2.339 5.234 5.234 0 0 1 2.69.282c1.726.618 3.427 1.306 5.127 1.996.582.237.689.64.41 1.216-.249.52-.498 1.044-.777 1.548a22.204 22.204 0 0 0-1.03 2.829c-.444 1.128-.256 2.264-.396 3.39a7.111 7.111 0 0 1-1.89 4.274.719.719 0 0 0-.082.168Zm-7.137-6.51a8.686 8.686 0 0 0 .386 3.836 3.64 3.64 0 0 0 6.771.078 9.149 9.149 0 0 0 .453-3.93c-2.442.98-5.164.986-7.61.016Zm-2.087-5.814c.305.613.569 1.179.873 1.723a.542.542 0 0 0 .403.229c3.069.013 6.137.014 9.205.003a.472.472 0 0 0 .363-.145c.316-.587.602-1.19.963-1.92-1.683-.578-3.284-1.17-4.914-1.66a3.942 3.942 0 0 0-1.702-.059c-1.802.38-3.547.995-5.19 1.829Zm1.574 3.51a.682.682 0 0 0 .612.779c.249.046.486.15.733.216 1.155.303 2.318.699 3.522.5 1.142-.19 2.262-.52 3.387-.806.404-.104.442-.21.364-.686l-8.618-.003Zm5.387 10.161c-1.261-.083-3.222 0-3.222 0 .848-.055 2.064-.09 3.222 0Z"
                fill="#000" />
            <path
                d="M27.572 30.114c2.053.163 3.428.386 5.427.88 0 0 1.095.265 1.693.776.764.652.96 1.696 1.178 2.286a16.99 16.99 0 0 1 .597 5.003c.006.595.309.954.786.94a.769.769 0 0 0 .728-.94 46.692 46.692 0 0 0-.503-4.731c-.524-2.749-1.292-4.428-4.968-5.018-.89-.143-1.769-.355-2.675-.543a.719.719 0 0 1 .082-.168 7.111 7.111 0 0 0 1.89-4.274c.14-1.126-.048-2.262.396-3.39.28-.965.623-1.91 1.03-2.829.279-.504.528-1.028.777-1.548.279-.576.172-.979-.41-1.216-1.7-.69-3.401-1.378-5.127-1.996a5.234 5.234 0 0 0-2.69-.282 25.37 25.37 0 0 0-6.515 2.339.73.73 0 0 0-.32 1.1c.327.68.679 1.346 1.005 2.026a9.562 9.562 0 0 1 1.175 4.984 1.516 1.516 0 0 0 0 .193c0 1.82.691 3.571 1.932 4.896a.837.837 0 0 1 .103.176c-1.033.211-2.03.415-3.027.622a5.227 5.227 0 0 0-3.89 2.83c-1.107 2.238-1.254 4.656-1.246 7.095a.712.712 0 0 0 .748.671.74.74 0 0 0 .748-.677c.027-.156 0-.321.015-.48.126-1.342.209-2.69.4-4.02a5.154 5.154 0 0 1 1.142-2.582c.447-.537 1.052-.822 1.811-1.201.636-.318 2.534-.796 4.486-.922m3.222 0c-1.261-.083-3.222 0-3.222 0m3.222 0c-1.158-.09-2.374-.055-3.222 0m-1.652-7.857a8.686 8.686 0 0 0 .386 3.836 3.64 3.64 0 0 0 6.771.078 9.149 9.149 0 0 0 .453-3.93c-2.442.98-5.164.986-7.61.016Zm-2.087-5.814c.305.613.569 1.179.873 1.723a.542.542 0 0 0 .403.229c3.069.013 6.137.014 9.205.003a.472.472 0 0 0 .363-.145c.316-.587.602-1.19.963-1.92-1.683-.578-3.284-1.17-4.914-1.66a3.942 3.942 0 0 0-1.702-.059c-1.802.38-3.547.995-5.19 1.829Zm1.574 3.51a.682.682 0 0 0 .612.779c.249.046.486.15.733.216 1.155.303 2.318.699 3.522.5 1.142-.19 2.262-.52 3.387-.806.404-.104.442-.21.364-.686l-8.618-.003Z"
                stroke="#000" stroke-width=".3" />
            <path
                d="M24.483 4.542H1.543v15.747h16.443c.143-.01.287-.005.429.014a.753.753 0 0 1 .026 1.482 2.017 2.017 0 0 1-.476.02H1.006c-.746 0-1.006-.253-1.006-1V3.955C0 3.268.267 3 .953 3H25c.746 0 1 .258 1 1.005v6.555c-.005.683-.274 1.048-.774 1.039-.482-.008-.746-.362-.746-1.019V5.125l.003-.583Z"
                fill="#000" stroke="#000" stroke-width=".3" />
            <path
                d="M8.026 8.008c.999 0 1.998-.004 2.997 0 .686.004.975.292.975.97.003 1.998.003 3.997 0 5.995 0 .756-.268 1.023-1.02 1.024-1.998.004-3.997.004-5.995 0-.681 0-.975-.287-.975-.971a1547.37 1547.37 0 0 1 0-6.094.816.816 0 0 1 .921-.924c1.033-.006 2.065 0 3.097 0Zm-2.412 6.37h4.765v-4.75H5.614v4.75Zm11.739-3.933H14.49c-.563-.003-.905-.297-.903-.76.002-.462.347-.753.91-.753 1.94-.004 3.88-.004 5.82 0 .559 0 .905.3.903.759-.002.46-.347.752-.91.754-.988.006-1.974 0-2.957 0Zm-1.103 3.064c-.604 0-1.208.005-1.812 0a.763.763 0 1 1 .008-1.514 312.53 312.53 0 0 1 3.623 0 .764.764 0 1 1-.007 1.515c-.604.005-1.207-.001-1.812-.001Z"
                fill="#000" stroke="#000" stroke-width=".3" />
        </g>
        <defs>
            <clipPath id="bba">
                <path fill="#fff" d="M0 0h40v40H0z" />
            </clipPath>
        </defs>
    </svg>
    <svg fill="none" viewBox="0 0 40 40" id="solutions--icon-4" xmlns="http://www.w3.org/2000/svg">
        <path
            d="M4.817 7.054c-.306.075-.518.25-.674.561L4 7.889v11.364c0 7.884.019 11.42.069 11.545.087.237.355.518.598.618.169.075 1.616.087 8.651.087h8.451l.02 1.983.018 1.99.174.224c.225.3.493.43.855.43.237 0 .505-.111 1.684-.698l1.397-.698 1.41.698c1.185.587 1.453.699 1.696.699.393 0 .711-.169.91-.468l.17-.25.018-1.958.019-1.952h2.463c1.952 0 2.501-.019 2.663-.087.244-.1.512-.38.6-.618.049-.125.068-3.661.068-11.545V7.89l-.137-.274c-.169-.324-.375-.486-.711-.561-.3-.075-29.97-.069-30.269 0Zm28.934 12.193V29.32h-3.618v-2.096l.312-.305c.686-.674 1.316-1.803 1.572-2.813.187-.73.2-2.32.031-2.957-.35-1.278-.904-2.232-1.778-3.068a6.372 6.372 0 0 0-2.756-1.56c-.468-.124-.668-.143-1.622-.137-.998 0-1.141.019-1.64.169-2.526.773-4.266 2.85-4.522 5.407-.187 1.815.405 3.543 1.703 4.977l.343.375v2.008H6.183V9.174h27.568v10.073Zm-6.643-.592c.686.212 1.192.523 1.747 1.085.81.817 1.172 1.703 1.172 2.844 0 1.99-1.36 3.636-3.324 4.03-1.902.38-3.842-.693-4.572-2.533-.923-2.345.487-4.952 2.981-5.514.562-.124 1.41-.087 1.996.088ZM24.77 28.734c.867.168 2.37.087 3.038-.169l.143-.056v4.797l-.854-.418c-1.13-.555-1.192-.555-2.308.006-.455.23-.842.418-.86.418-.044 0-.038-4.71.006-4.76.018-.018.112-.005.206.026.087.037.374.106.63.156Z"
            fill="#000" />
        <path
            d="M8.297 12.748c-.393.206-.567.53-.536.998.031.53.337.88.86.986.394.074 12.936.068 13.335-.007.406-.075.662-.25.818-.561a1.079 1.079 0 0 0-.356-1.372l-.23-.156-6.805-.019-6.805-.012-.28.143Zm.263 5.47c-.462.112-.762.474-.805.96-.038.456.174.836.567 1.03.268.13.337.13 4.18.13 4.165 0 4.16 0 4.49-.299.499-.455.38-1.353-.231-1.703l-.256-.15-3.867-.012c-2.127-.006-3.96.013-4.079.044Zm-.256 5.695c-.4.205-.574.53-.543.997.037.6.393.942 1.06 1.01.212.026 1.61.032 3.1.02 2.7-.02 2.713-.02 2.963-.163.704-.405.767-1.303.118-1.796l-.23-.18-3.1-.02-3.094-.018-.274.15Z"
            fill="#000" />
    </svg>
    <svg fill="none" viewBox="0 0 40 40" id="solutions--icon-5" xmlns="http://www.w3.org/2000/svg">
        <path
            d="M11.527 7.151c-6.43 3.215-8.33 4.191-8.422 4.33-.107.167-.113.665-.1 8.396l.02 8.223.166.16c.266.252 16.591 8.74 16.81 8.74.107 0 .44-.133.745-.292.299-.16 3.998-2.092 8.216-4.29 4.217-2.2 7.744-4.072 7.837-4.159l.166-.16.02-8.202c.013-7.3.007-8.23-.086-8.402-.093-.18-1.17-.73-8.409-4.35C23.33 4.56 20.121 2.993 20.008 3c-.1 0-3.845 1.833-8.481 4.151Zm15.854 1.03 7.326 3.66-3.108 1.554-3.102 1.554-7.353-3.68-7.36-3.673 3.056-1.534c1.68-.844 3.095-1.534 3.142-1.534.04-.007 3.374 1.64 7.399 3.653Zm-.545 7.565c0 .02-1.54.803-3.42 1.747l-3.42 1.707-7.353-3.68-7.36-3.673 3.454-1.733 3.454-1.727 7.32 3.666c4.03 2.012 7.325 3.673 7.325 3.693Zm-14.977.976 7.406 3.706v7.32c0 4.031-.02 7.326-.04 7.326s-3.368-1.74-7.44-3.866L4.388 27.35v-7.166c0-3.939.013-7.16.033-7.16.02 0 3.367 1.667 7.439 3.7Zm23.745 3.467v7.16l-7.4 3.866c-4.064 2.119-7.412 3.859-7.439 3.859-.02 0-.04-3.294-.04-7.326v-7.32l3.488-1.746c1.92-.957 3.5-1.74 3.52-1.74.02 0 .033 1.494.033 3.32 0 3.647 0 3.68.392 3.88.252.132.425.132.677 0 .392-.2.392-.193.392-4.258v-3.706l3.142-1.575c1.72-.863 3.155-1.574 3.188-1.574.027-.006.047 3.215.047 7.16Z"
            fill="#000" stroke="#000" stroke-width=".6" />
    </svg>
</svg>