<?xml version="1.0" encoding="utf-8"?><svg viewBox="0 0 871 410" xmlns="http://www.w3.org/2000/svg" xmlns:xlink="http://www.w3.org/1999/xlink"><style>:root>svg{display:none}:root>svg:target{display:block}</style><svg viewBox="0 0 16 13" id="arrow" xmlns="http://www.w3.org/2000/svg"><path d="M1 6.5h14m0 0L9.457 1M15 6.5 9.457 12"/></svg><svg fill="none" viewBox="0 0 62 66" id="business--box" xmlns="http://www.w3.org/2000/svg"><path d="M42.731 24.108 13.646 9.784l7.814-3.907 28.65 14.325v12.155l-7.38 3.473V24.109Z" fill="#FECA57"/><path d="M15.9 7.47C7.682 11.44.89 14.797.788 14.925c-.14.19-.165 3.383-.165 17.872 0 16.613.012 17.656.229 17.898.241.292 29.956 14.654 30.313 14.654.343 0 30.045-14.362 30.287-14.654.216-.242.229-1.285.229-17.91 0-16.627-.013-17.67-.216-17.911C61.172 14.543 31.482.22 31.114.232 30.96.232 24.117 3.49 15.9 7.47Zm29.079 1.438c7.416 3.587 13.484 6.538 13.458 6.55-.025.026-1.793.904-3.943 1.934L50.6 19.288l-1.997-.992c-1.094-.535-7.225-3.499-13.598-6.577-6.386-3.066-11.614-5.622-11.614-5.66 0-.153 7.696-3.791 7.887-3.728.102.038 6.271 2.99 13.7 6.577Zm-10.19 4.82c7.442 3.588 13.535 6.552 13.535 6.59 0 .064-5.355 2.671-5.495 2.671-.063 0-6.424-3.053-21.892-10.532l-5.444-2.633.42-.191c.229-.102 1.45-.687 2.696-1.298 1.26-.623 2.366-1.12 2.468-1.12.102 0 6.271 2.94 13.713 6.514Zm-7.135 4.084L41.9 24.707l.038 5.915c.025 5.851.025 5.902.305 6.194.153.166.407.293.585.293.356 0 7.709-3.51 7.938-3.79.127-.14.178-1.642.229-6.17l.063-5.979 4.313-2.073c2.378-1.145 4.337-2.086 4.363-2.086.025 0 .038 7.314.038 16.256v16.257l-13.687 6.602a5475.705 5475.705 0 0 1-13.802 6.653c-.064.025-.115-6.793-.115-16.219V30.29l3.015-1.45c1.667-.8 3.193-1.551 3.41-1.653.533-.267.762-.789.546-1.234a1.288 1.288 0 0 0-.521-.521c-.344-.166-.484-.115-2.926 1.056a256.892 256.892 0 0 1-3.562 1.691l-.98.458-1.182-.547a35.64 35.64 0 0 0-1.514-.687c-.496-.203-1.005.013-1.196.497-.267.648-.025.915 1.501 1.704l1.374.7V46.56c0 8.943-.05 16.244-.102 16.22-.063-.014-6.27-3.016-13.801-6.654l-13.7-6.614V33.267c0-8.942.025-16.256.05-16.256.026 0 4.783 2.29 10.584 5.088 6.182 2.99 10.672 5.088 10.889 5.088.19 0 .47-.114.61-.254.318-.318.331-1.03.038-1.31-.127-.102-2.862-1.463-6.08-3.015-10.264-4.948-10.9-5.254-12.871-6.233l-1.934-.954 4.669-2.252c2.57-1.234 4.732-2.251 4.796-2.251.076 0 6.538 3.103 14.374 6.894Zm21.434 9.35v4.948l-2.532 1.221c-1.399.687-2.57 1.234-2.607 1.234-.039 0-.077-2.226-.077-4.961v-4.948l2.455-1.209c1.336-.661 2.519-1.208 2.608-1.208.114-.013.153 1.056.153 4.923Z" fill="#000"/><path d="M4.96 39.475c-.305.382-.343.79-.102 1.107.217.305 8.74 4.414 9.134 4.414.788 0 1.22-.992.674-1.526-.382-.382-8.663-4.325-9.083-4.325-.241 0-.445.114-.623.33Zm.242 4.287a.892.892 0 0 0-.382 1.208c.255.446 4.542 2.608 5.203 2.608.801.026 1.209-.98.623-1.526-.292-.28-4.376-2.277-4.859-2.392-.153-.038-.407.013-.585.102Z" fill="#000"/></svg><svg fill="none" viewBox="0 0 81 54" id="business--ship" xmlns="http://www.w3.org/2000/svg"><path d="M32.295 11.651v20h31.627v-10H53.225v-10h-20.93Z" fill="#FECA57"/><path d="m15.448.953-.406.406v6.266h-5.75l-.47.453c-.265.281-.5.703-.546 1.063-.062.328-.11 2.437-.11 4.687v4.078l-2.03.063c-1.97.047-2.032.062-2.454.484-.437.422-.437.438-.437 2.547v2.125l.515.453c.282.25.61.453.735.453.203 0 .234.5.234 3.438v3.437H3.401c-1.547 0-2.125.22-2.516.97-.953 1.843 1.579 7.905 5.063 12.155.531.64.969 1.313.969 1.5 0 .172-.5 1.375-1.11 2.657-1 2.14-1.093 2.39-1.031 3.156.047.594.156.922.438 1.219.843.906-1.422.843 32.25.843 33.078 0 31.624.032 32.296-.718.141-.172 2.641-5.329 5.532-11.47 5.625-11.968 5.718-12.171 5.156-13.265-.156-.265-.484-.64-.766-.797-.469-.297-.828-.312-6.25-.312-5.39 0-5.781.015-6.344.312-.593.297-1.39 1.11-1.453 1.453-.015.11-.062-1.359-.109-3.25-.094-3.734-.125-3.859-1.063-4.468-.406-.266-.828-.297-5-.297h-4.578v-4.531c0-3.172-.062-4.641-.187-4.922-.39-.875-.14-.86-11.594-.86-7.562 0-10.656.047-10.937.172-.875.406-.875.344-.875 10.828v9.625h-3.438V27.47c0-2.938.031-3.438.235-3.438.125 0 .453-.203.734-.453l.515-.453V21c0-2.11 0-2.125-.437-2.547-.422-.422-.469-.437-2.531-.484l-2.11-.063V8.594l-.484-.485-.484-.484h-5.75v-3.11c0-3.5-.063-3.702-1.125-3.859-.47-.078-.641-.03-.97.297Zm6.312 13.078v3.907H10.667v-7.813H21.76v3.906Zm20.157 2.657v3.906h-8.125V12.78h8.125v3.907Zm10.468 0v3.906h-7.968V12.78h7.968v3.907Zm-25.468 4.296v.547h-6.72c-4.702 0-6.827.047-7.093.172-.562.266-.812 1.078-.5 1.672.125.25.36.5.485.563.14.046 2.968.093 6.265.093h6v6.875H7.23v-6.875h.703c1.172 0 1.75-.797 1.313-1.765-.25-.563-.781-.735-2.25-.735H5.667v-1.093h21.25v.546Zm15 6.016v3.906h-8.125v-7.812h8.125V27Zm10.468 0v3.906h-7.968v-7.812h7.968V27Zm10.625 0v3.906h-8.125v-7.812h8.125V27Zm14.97 2.469c-.017.078-1.563 3.344-3.407 7.265l-3.344 7.141H65.26c-5.797 0-5.968.016-6.375.328-.546.422-.562 1.344-.046 1.828.359.328.468.344 5.75.375l5.406.047-1.032 2.219-1.03 2.234H37.666c-16.657 0-30.282-.03-30.282-.047 0-.03.407-.937.907-2 .515-1.062.968-2.062 1.015-2.218.094-.25 1.313-.266 22.688-.266h22.594l.375-.39c.515-.5.515-1.22 0-1.72l-.375-.39H8.995l-.375-.531c-.203-.281-.922-1.25-1.594-2.125-1.375-1.813-3.047-5.031-3.516-6.797l-.296-1.094 30.453.047c20.468.031 30.75-.016 31.343-.125 1.516-.281 2.375-1.11 2.703-2.656.094-.469.25-.953.329-1.063.125-.14 1.328-.187 5.078-.187 2.703 0 4.89.062 4.86.125Z" fill="#000"/></svg><svg fill="none" viewBox="0 0 65 64" id="business--world" xmlns="http://www.w3.org/2000/svg"><path d="m35.5 10.766 8.134 8.134c0-1.808.452-3.615.452-3.615s10.62-1.356 18.527 14.46c2.061 4.122-.904-12.653-9.038-20.335-1.682-1.59-6.928-2.862-9.489-3.163V2.632L35.5 10.766Zm-6.145 42.667-8.134-8.134c0 1.808-.452 3.615-.452 3.615s-10.62 1.356-18.527-14.46c-2.061-4.122.904 12.653 9.037 20.335 1.683 1.589 6.93 2.862 9.49 3.163v3.615l8.586-8.134Z" fill="#FECA57"/><path d="M28.306.561c-4.938.675-9.347 2.33-13.452 5.058-7.308 4.846-12.247 12.42-13.81 21.158-.45 2.502-.45 6.765-.013 9.334 1.377 7.957 3.92 13.677 7.825 17.623 1.708 1.721 3.204 2.78 5.045 3.575 1.35.582 3.469 1.138 4.833 1.257l.993.093v1.827c0 1.669.026 1.867.264 2.105.186.186.437.265.821.265.57 0 .57 0 5.032-4.475l4.475-4.462v-1.192l-4.475-4.461c-4.462-4.476-4.462-4.476-5.032-4.476-.384 0-.635.08-.82.265-.239.239-.265.437-.265 2.066v1.813l-.755-.092c-6.05-.715-11.572-5.667-15.187-13.624l-.463-1.02h14.246l.08 2.211c.08 2.317.41 5.707.635 6.554.146.556.437.768 1.046.768 1.02 0 1.245-.503.993-2.343-.264-1.88-.463-4.502-.463-5.945v-1.245h25.156v1.218c0 3.059-.807 9.11-1.588 12.049l-.146.503h-6.21c-6.05 0-6.236.013-6.487.265-.173.172-.265.437-.265.794 0 .358.092.623.265.795.251.251.436.264 6.156.264 3.774 0 5.892.053 5.892.133 0 .516-1.483 4.224-2.317 5.799-2.502 4.7-5.521 7.017-8.606 6.62-.94-.119-2.423-.807-3.217-1.47-.424-.357-.702-.49-1.033-.49-.636 0-1.112.49-1.112 1.14 0 .397.092.569.543.979.754.689 1.999 1.404 3.032 1.748.662.225 1.284.291 2.753.344 3.893.106 8.104-.728 12.168-2.436 5.442-2.278 10.394-6.303 13.744-11.175.436-.622.913-1.258 1.085-1.417.172-.158.305-.384.305-.503 0-.106.265-.688.596-1.297 2.939-5.442 4.21-12.168 3.376-17.967-1.152-8.143-3.853-14.445-7.931-18.55-2.847-2.873-5.76-4.316-9.573-4.793l-1.297-.145V3.778c0-1.655-.027-1.853-.265-2.092-.185-.185-.437-.264-.82-.264-.57 0-.57 0-5.032 4.475l-4.475 4.462v1.191l4.475 4.462c4.462 4.476 4.462 4.476 5.031 4.476.384 0 .636-.08.821-.265.238-.239.265-.437.265-2.066v-1.814l.768.093c1.575.185 3.8.914 5.27 1.735 3.905 2.184 7.414 6.395 9.903 11.876l.463 1.033H47.266v-1.311c0-1.496-.185-4.012-.463-6.157-.225-1.681-.45-2.065-1.245-2.065-.913.013-1.258.596-1.072 1.814.225 1.443.53 5.124.53 6.421v1.298H19.858v-1.232c0-3.045.794-9.082 1.589-11.982l.145-.556h12.964v-2.12h-6.157c-3.946 0-6.157-.053-6.157-.132 0-.265.914-2.767 1.523-4.13 1.906-4.357 4.581-7.376 7.203-8.144 1.178-.344 2.66-.198 3.866.384a9.267 9.267 0 0 1 1.694 1.073c.583.49.821.622 1.205.622.649 0 1.06-.437 1.06-1.125 0-.464-.093-.596-.755-1.232-.86-.794-2.45-1.628-3.681-1.946-.98-.252-4.21-.252-6.05 0Zm-3.15 3.668c-1.974 2.343-3.51 5.243-4.834 9.148l-.595 1.748-5.773.04-5.76.027.834-1.086C12.22 9.948 16.695 6.599 21.7 4.599c1.126-.45 3.774-1.284 4.158-1.31.053-.014-.265.41-.702.94Zm17.94 2.979c.106.45.476.569 2.158.715 3.694.29 6.633 1.655 9.228 4.29 2.767 2.793 4.595 6.315 6.236 12.048.053.146-.291-.278-.741-.927-2.728-3.906-6.064-6.713-9.586-8.076-1.814-.689-3.257-.993-5.124-1.086-1.589-.066-1.681-.066-1.96.212-.238.238-.278.437-.278 1.297v1.033l-2.873-2.873-2.886-2.886 2.846-2.847 2.847-2.847.04.821c.013.464.053.967.093 1.126Zm-23.952 10.3c-.12.318-.715 3.47-.94 4.992-.291 2.052-.596 5.64-.596 7.216v1.364H2.872l.092-1.258c.186-2.622.914-5.826 1.88-8.302.49-1.218 1.682-3.733 1.934-4.051.106-.12 1.522-.16 6.289-.16 5.375 0 6.143.027 6.077.2ZM61.91 34.416c-.252 3.708-1.47 7.931-3.23 11.294l-.623 1.192-6.196.04c-5.866.026-6.197.013-6.13-.2.608-1.972 1.363-7.731 1.495-11.333l.08-2.21h14.697l-.093 1.217ZM6.738 43.314c3.667 4.303 8.633 6.832 13.399 6.832 1.576 0 1.708-.133 1.708-1.55v-1.032l2.873 2.886 2.887 2.873-2.887 2.873-2.873 2.887V58.05c0-1.523.013-1.51-2.873-1.748-.517-.04-1.47-.225-2.119-.397-4.925-1.324-8.712-5.203-11.254-11.519-.49-1.231-.768-2.065-1.443-4.37-.053-.145.291.266.742.928a41.002 41.002 0 0 0 1.84 2.37Zm49.796 5.878c0 .186-1.734 2.304-2.833 3.443-3.562 3.72-8.341 6.58-13.28 7.97-.768.226-1.43.398-1.456.398-.027 0 .317-.424.754-.954 2-2.37 3.827-5.892 4.965-9.533.186-.609.371-1.178.398-1.27.04-.12 1.31-.16 5.76-.16 3.124 0 5.692.04 5.692.106Z" fill="#000"/></svg><svg fill="none" viewBox="0 0 871 410" id="decor--infinity" xmlns="http://www.w3.org/2000/svg"><path fill-rule="evenodd" clip-rule="evenodd" d="M446.291 136.522C495.552 79.542 564.319 0 666.797 0c96.275 0 206.814 78.31 203.248 206.451-3.368 121.023-96.275 202.892-203.248 202.892-92.543 0-166.405-77.255-221.587-134.971-8.604-9-16.754-17.524-24.45-25.207-10.444-10.425-21.723-22.519-33.664-35.322-53.293-57.145-119.76-128.415-183.848-128.415-78.446 0-114.104 66.919-114.104 121.023 0 67.631 57.052 121.023 114.104 121.023 67.888 0 103.564-39.635 119.543-64.071l57.052 64.071c-11.886 18.984-85.311 81.869-176.595 81.869C89.144 409.343 0 302.558 0 206.451 0 110.345 67.75 0 203.248 0c108.399 0 198.494 102.039 231.775 149.499 3.64-4.153 7.394-8.495 11.268-12.977Zm68.938 54.327c39.423-47.743 86.692-104.986 158.699-101.86 82.013 3.559 110.539 64.071 110.539 121.023s-35.658 121.023-110.539 121.023c-59.904 0-141.441-80.682-174.722-121.023 5.22-6.08 10.546-12.53 16.023-19.163Z" fill="#F1F1F1"/></svg><svg fill="none" viewBox="0 0 40 29" id="logistic--airplain" xmlns="http://www.w3.org/2000/svg"><path d="M12.454 1.367c-.195.195-.263.323-.263.518 0 .158.654 2.007 1.601 4.54L15.4 10.7l-3.42.023c-3.156.015-3.434.008-3.652-.12-.248-.136-.293-.256-1.623-4.427-.248-.767-.466-1.3-.677-1.631-.571-.902-1.466-1.518-2.555-1.744-1.03-.218-1.767-.007-2.218.631l-.225.331-.023 5.081c-.022 5.765-.03 5.69.55 6.84.563 1.12 1.352 1.924 2.442 2.487 1.15.594.804.564 6.403.61l5.006.037-1.608 4.284c-.88 2.352-1.609 4.382-1.609 4.494 0 .263.18.624.368.73.09.044.933.075 2.173.075 1.803 0 2.082-.015 2.502-.15a4.07 4.07 0 0 0 1.76-1.083c.217-.24 1.405-2.074 2.855-4.397l2.48-3.983 6.727-.023 6.727-.022.353-.173a2.717 2.717 0 0 0 1.128-1.128c.225-.473.278-1.353.097-1.886-.262-.804-1.585-2.338-2.69-3.12a10.161 10.161 0 0 0-2.526-1.255c-1.27-.405-1.758-.443-5.982-.443h-3.834L21.813 6.71c-1.383-2.217-2.661-4.17-2.834-4.351a4.362 4.362 0 0 0-1.563-1.03c-.421-.158-.594-.173-2.578-.195L12.71 1.11l-.256.256Zm4.517 1.615c.21.098.519.316.692.489.173.173 1.285 1.879 2.488 3.796l2.172 3.472-2.556-.015-2.555-.023-1.383-3.682c-.76-2.03-1.436-3.811-1.496-3.969l-.12-.293 1.188.03c1.037.023 1.232.045 1.57.195ZM3.585 4.606c.496.225.827.511 1.053.91.105.172.556 1.488 1.007 2.916.85 2.713 1.007 3.066 1.533 3.464.135.106.383.248.549.324.278.127 1.007.135 12.469.18 10.95.038 12.228.053 12.664.165a8.377 8.377 0 0 1 2.743 1.203c.985.661 2.218 2.127 2.218 2.63 0 .15-.083.301-.256.474l-.255.256h-5.946c-3.269 0-5.945-.015-5.945-.038 0-.015.233-.406.526-.864.64-1.015.752-1.225.752-1.428 0-.263-.218-.647-.42-.744-.264-.12-.722-.106-.91.03-.09.06-1.812 2.758-3.833 5.99-3.991 6.388-3.939 6.313-4.773 6.561-.27.075-.722.113-1.458.113h-1.067l2.21-5.885c1.217-3.232 2.209-5.975 2.209-6.088 0-.263-.18-.624-.368-.729a1.527 1.527 0 0 0-.496-.075c-.444 0-.624.173-.887.864-.113.293-.346.917-.526 1.39l-.324.865h-5.103c-5.11 0-5.11 0-5.6-.173-1.142-.39-2.059-1.3-2.502-2.473-.166-.428-.166-.496-.188-5.23l-.023-4.788h.286c.158 0 .458.082.661.18Z" fill="#000" stroke="#000" stroke-width=".6"/></svg><svg fill="none" viewBox="0 0 37 40" id="logistic--cargo" xmlns="http://www.w3.org/2000/svg"><path d="M8.55.1c-.469.234-.68.97-.39 1.407.32.484.148.469 4.713.492l4.165.024V5.39l.258.258c.172.172.368.274.57.305.97.149 1.439.383 1.775.891.563.86.469 1.79-.25 2.509l-.36.36-.039-.548c-.047-.61-.133-.813-.437-1.016-.243-.156-.782-.18-1.032-.047-.305.164-.485.547-.485 1.04 0 .531-.086.57-.445.195-.305-.312-.563-.867-.57-1.211 0-.657-.423-1.11-1.025-1.11-.969 0-1.25.977-.695 2.438.39 1.056 1.446 2.01 2.602 2.36.118.04.133.165.133 1.251v1.204l-.328.117C13.67 15.442.578 20.085.461 20.147c-.086.047-.227.204-.305.337-.148.242-.156.476-.156 9.511 0 9.05.008 9.27.156 9.512.32.531-1.188.492 17.836.492 16.24 0 17.233-.008 17.484-.14.148-.07.336-.258.414-.407.133-.258.14-.695.14-9.441 0-10.028.024-9.52-.437-9.825-.14-.093-11.45-4.126-16.265-5.799l-.336-.117v-1.204c0-1.078.016-1.211.14-1.25a4.455 4.455 0 0 0 1.72-1.079c1.384-1.446 1.524-3.58.344-5.15a3.924 3.924 0 0 0-1.672-1.29l-.532-.211V2.015l4.049-.008c2.915 0 4.119-.023 4.314-.094.367-.125.625-.531.625-.969 0-.273-.047-.39-.265-.633l-.266-.29-9.332-.015C9.926-.009 8.76-.002 8.55.1Zm15.03 17.914 5.487 1.938-5.503.023c-3.024.008-7.995.008-11.051 0l-5.55-.023 5.448-1.93c2.994-1.063 5.503-1.931 5.565-1.931.063-.008 2.587.86 5.604 1.923ZM34 29.995v7.972H2.032V22.023h31.966v7.972Z" fill="#000"/></svg><svg fill="none" viewBox="0 0 28 34" id="logistic--document" xmlns="http://www.w3.org/2000/svg"><path d="M2.952.483C1.845.861.972 1.824.745 2.925c-.104.494-.104 27.669 0 28.15.24 1.12 1.159 2.123 2.259 2.461.41.13.625.13 11.21.13 10.587 0 10.802 0 11.212-.13.814-.247 1.588-.904 1.966-1.653.384-.768.364-.176.364-11.374 0-6.986-.02-10.332-.065-10.456-.078-.208-9.31-9.479-9.583-9.628-.15-.079-1.25-.092-7.454-.092L3.375.34l-.423.143Zm13.62 6.179c.02 4.134.026 4.257.15 4.427.07.097.234.234.364.306.234.136.312.136 4.381.136h4.141v9.538c0 9.401 0 9.544-.13 9.798-.163.326-.475.56-.847.645-.403.09-20.43.09-20.833 0a1.246 1.246 0 0 1-.846-.645c-.13-.254-.13-.403-.13-13.867 0-13.463 0-13.613.13-13.867.156-.313.482-.567.82-.645.143-.032 2.95-.058 6.517-.065l6.27-.006.013 4.245Zm4.837.052 2.67 2.669h-5.372v-2.67c0-1.47.006-2.669.02-2.669.006 0 1.217 1.198 2.682 2.67Z" fill="#000"/></svg><svg fill="none" viewBox="0 0 38 33" id="logistic--risk" xmlns="http://www.w3.org/2000/svg"><path d="M16.545 1.196c-.128.13-.805 1.4-1.782 3.367l-1.575 3.164v9.521l-.406.044c-.784.087-1.853.262-2.388.392l-.542.13-.163-.355c-.193-.413-.72-.943-1.105-1.11-.328-.138-6.508-1.415-6.857-1.415-.178 0-.306.065-.485.247L1 15.427v6.35c0 4.333.021 6.416.078 6.568a.874.874 0 0 0 .264.356c.178.123.4.13 2.937.13 2.658 0 2.75-.007 3.079-.16.406-.188.912-.652 1.097-1 .072-.139.157-.255.179-.255.028 0 .506.218 1.069.48 3.906 1.828 7.534 3.214 9.872 3.773.727.174 1.005.203 1.917.203.933.007 1.169-.022 1.853-.196 2.081-.53 4.647-1.575 8.518-3.462.962-.471 2.53-1.233 3.492-1.705.962-.465 1.825-.929 1.924-1.023l.179-.174V7.64l-1.59-3.157C34.991 2.75 34.193 1.254 34.1 1.16L33.922 1h-17.17l-.207.196Zm4.968 3.65-.57 2.323H15.17l1.169-2.323L17.5 2.524h4.583l-.57 2.322Zm5.567-2.053c.043.152.285 1.139.542 2.198.256 1.06.484 1.982.506 2.047.035.123-.129.13-2.78.13-1.554 0-2.823-.014-2.823-.036 0-.05 1.062-4.398 1.105-4.52.021-.066.428-.088 1.704-.088h1.675l.07.269Zm7.249 2.053 1.147 2.286-2.85.022c-1.569.007-2.866 0-2.888-.014-.02-.03-1.14-4.485-1.154-4.601 0-.008 1.033-.008 2.295 0l2.295.021 1.155 2.286Zm-13.586 5.748c0 1.089.036 2.025.072 2.177a.981.981 0 0 0 .263.421c.179.145.264.145 4.27.145h4.077l.22-.225.222-.217.014-2.083.021-2.083h6.059l.021 6.909c.007 4.775-.007 6.916-.057 6.916-.043 0-.2-.066-.35-.145-.919-.472-2.58-.632-4.062-.37-1.14.195-2.26.457-3.535.812a24.43 24.43 0 0 1-1.09.283c-.036 0-.108-.152-.15-.34-.114-.458-.25-.705-.599-1.096-.763-.842-2.095-1.416-4.683-2.01-1.475-.335-2.18-.581-3.52-1.213-1.547-.733-2.253-1.001-2.944-1.11l-.307-.05V8.692h6.058v1.901Zm7.627-.341v1.56h-6.06v-3.12h6.06v1.56Zm-22.994 6.96c2.809.573 2.901.61 3.001 1.06.064.297-1.09 8.403-1.226 8.642a.797.797 0 0 1-.285.276c-.114.051-.912.08-2.267.08H2.497v-5.298c0-5.101.007-5.297.128-5.297.078 0 1.312.239 2.751.537Zm9.558 1.705c.6.145 1.055.334 2.709 1.118 1.176.551 1.981.827 3.386 1.139 2.95.668 4.276 1.35 4.276 2.213 0 .313-.121.45-.527.61-1.19.45-4.113.102-7.67-.907-1.575-.45-1.703-.472-1.974-.341-.25.116-.449.413-.449.675 0 .21.185.558.342.646.2.108 2.552.762 3.685 1.023 3.635.842 5.88.863 7.17.072.457-.283 3.051-1.023 5.232-1.495 1.996-.428 3.806-.181 4.555.617.114.124.2.232.178.247-.05.044-5.36 2.649-6.016 2.954-4.29 2.017-7.128 2.975-8.546 2.88-1.967-.13-6.272-1.676-11.411-4.1-.82-.391-.927-.457-.912-.61.02-.268.805-5.885.84-6.059.036-.167.293-.261 1.32-.493 1.532-.334 2.921-.407 3.812-.189Z" fill="#000" stroke="#000" stroke-width=".5"/></svg><svg fill="none" viewBox="0 0 36 36" id="solutions--icon-1" xmlns="http://www.w3.org/2000/svg"><path d="M17.405.134c-.105.07-.26.225-.33.33-.127.19-.134.387-.134 3.319v3.115l-.611-.056a27.652 27.652 0 0 0-1.955-.05c-1.379.008-2.16.1-3.305.387A14.673 14.673 0 0 0 .065 19.62c-.098.843-.084 2.854.035 3.733.865 6.505 6.048 11.687 12.538 12.545.921.12 2.883.14 3.74.035 4.628-.577 8.685-3.29 11.005-7.383.802-1.414 1.42-3.193 1.695-4.915.134-.823.176-2.996.077-4.002l-.056-.576h3.115c2.932 0 3.13-.007 3.319-.134.105-.07.26-.225.33-.33.127-.197.134-.5.134-9.064 0-8.565-.007-8.867-.133-9.064a1.473 1.473 0 0 0-.331-.33C35.336.007 35.033 0 26.469 0s-8.867.007-9.064.134Zm5.162 4.408c0 2.37.007 2.44.154 2.708.099.175.26.323.443.415.274.133.436.14 3.305.14 2.87 0 3.03-.007 3.305-.14.183-.092.345-.24.443-.415.148-.268.155-.338.155-2.708V2.11h3.516v14.836H19.05V2.11h3.516v2.432Zm5.625-.675v1.758h-3.446V2.11h3.446v1.757ZM15.605 9.22c.246.126.647.436.893.675l.443.435v4.297h-3.34c-1.835 0-3.34-.014-3.34-.028 0-.162.661-1.864.964-2.482 1.28-2.644 2.875-3.7 4.38-2.897Zm-5.942 1.11c-.527.894-1.244 2.673-1.547 3.819l-.126.478H4.137l.288-.408a13.147 13.147 0 0 1 3.2-3.129c.604-.415 2.207-1.28 2.263-1.217.015.015-.084.219-.225.457Zm-2.172 6.807c-.373 2.644-.373 6.167.007 8.55l.042.26-2.278-.013-2.279-.021-.225-.696c-.45-1.364-.548-2.068-.548-3.875.007-1.406.028-1.709.162-2.348.14-.633.534-1.983.625-2.138.014-.028 1.048-.05 2.286-.05H7.54l-.05.331Zm9.45.457c0 .872.07 1.07.464 1.33.176.112.345.133 1.266.133h1.062l.042.471c.134 1.35.007 4.465-.232 5.892-.035.233-.07.444-.07.472 0 .035-2.18.056-4.845.056-4.557 0-4.852-.007-4.887-.127-.099-.316-.253-1.807-.324-3.058a20.79 20.79 0 0 1-.007-2.729c.07-1.237.24-2.812.33-3.108.036-.112.268-.12 3.622-.12h3.58v.788Zm9.943 1.653c.359 1.75.197 4.015-.422 5.942l-.246.759h-4.535l.084-.647c.183-1.294.253-2.799.232-4.507l-.028-1.737h4.873l.042.19ZM8.046 28.352c.148.724.816 2.51 1.301 3.473.295.598.527 1.083.513 1.083-.02 0-.323-.14-.675-.31-1.835-.878-3.698-2.481-4.823-4.14l-.225-.331h3.86l.05.225Zm10.646.597c-.584 1.702-1.35 3.066-2.208 3.924-1.055 1.069-2.123 1.245-3.157.535-.78-.542-1.547-1.555-2.18-2.898-.302-.64-.886-2.186-.886-2.348 0-.021 1.962-.035 4.36-.035h4.352l-.28.822Zm6.336-.766c0 .028-.211.337-.471.682-.886 1.181-2.187 2.37-3.432 3.13-.485.302-1.73.927-1.765.892-.007-.007.225-.506.52-1.104a18.77 18.77 0 0 0 1.245-3.256l.113-.4h1.891c1.048 0 1.899.02 1.899.056Z" fill="#000"/></svg><svg fill="none" viewBox="0 0 40 40" id="solutions--icon-2" xmlns="http://www.w3.org/2000/svg"><path d="M19.532 2.135c-.936.45-8.54 4.655-8.695 4.81l-.176.168-.021 4.387c-.014 2.408 0 4.514.021 4.682.042.296.056.31 4.492 3.937 2.45 1.999 4.534 3.668 4.647 3.71.134.05.246.05.387 0 .261-.098 8.809-7.083 9.013-7.365l.155-.225-.014-4.57-.021-4.57-.211-.183c-.282-.253-8.745-4.858-9.013-4.908-.141-.028-.324.015-.564.127Zm4.056 3.338c1.972 1.077 3.584 1.971 3.584 1.992 0 .07-7.076 4.535-7.182 4.535-.105 0-7.182-4.464-7.182-4.534 0-.029 7.105-3.937 7.168-3.944.014 0 1.64.88 3.612 1.95Zm-7.766 5.647 3.464 2.204v8.301l-.4-.317a605.432 605.432 0 0 1-3.613-2.95l-3.204-2.626-.02-3.506-.015-3.507.155.099a1702.5 1702.5 0 0 1 3.633 2.302Zm12.096 4.556c-.014.042-1.59 1.359-3.506 2.915-1.908 1.563-3.527 2.886-3.591 2.943-.12.099-.127-.099-.127-4.049v-4.16l3.612-2.296 3.605-2.296.021 3.436c.008 1.887 0 3.464-.014 3.507Z" fill="#000" stroke="#000" stroke-width=".6"/><path d="M3.957 8.522c-.725.155-1.429.726-1.753 1.43L2 10.388v6.373c0 5.893.007 6.414.127 6.97.197.901.507 1.486 1.253 2.33.866.98 2.183 2.557 4.563 5.486l1.978 2.43v3.554l.204.226c.275.31.69.323.98.035l.19-.19.02-2.014c.014-1.577 0-2.05-.077-2.197-.127-.268-4.802-6.013-6.098-7.506-1.134-1.303-1.225-1.415-1.387-1.767-.33-.719-.345-1.007-.345-7.394 0-5.907 0-5.985.148-6.231.443-.754 1.5-.754 1.873 0 .12.225.126.577.126 4.175v3.929l-.274.33a3.634 3.634 0 0 0-.374.543c-.316.655-.337 1.493-.055 2.253.148.402.33.599 3.302 3.57 2.239 2.246 3.197 3.162 3.344 3.197.324.077.69-.148.803-.493.05-.148.07-.338.042-.422-.021-.085-1.4-1.514-3.056-3.176-1.654-1.669-3.048-3.105-3.097-3.204-.141-.26-.113-.866.049-1.133.07-.134.267-.331.422-.444.24-.162.366-.204.67-.204.21 0 .457.042.548.091.24.12 6.471 6.33 6.929 6.9.803 1.008 1.204 1.916 1.457 3.31.05.289.099 1.83.127 4.169l.042 3.717.19.19c.296.289.705.275.986-.042l.204-.232-.02-3.88c-.03-3.668-.036-3.922-.184-4.555-.296-1.338-.753-2.366-1.436-3.288-.465-.62-6.964-7.147-7.38-7.415-.394-.246-.978-.423-1.422-.423h-.338v-3.471c0-1.901-.028-3.647-.07-3.88-.19-1.176-1.12-2.027-2.317-2.12a3.132 3.132 0 0 0-.69.036Zm30.904.035c-.528.148-.767.289-1.134.662a2.44 2.44 0 0 0-.71 1.338c-.043.226-.071 1.81-.071 3.887v3.513h-.338c-.444 0-1.028.176-1.423.423-.415.268-6.914 6.795-7.378 7.414-.683.922-1.141 1.95-1.436 3.288-.148.634-.155.887-.184 4.556l-.02 3.88.203.232c.282.317.69.33.986.042l.19-.19.043-3.718c.028-2.337.077-3.88.126-4.168.254-1.394.655-2.302 1.458-3.31.457-.57 6.689-6.78 6.928-6.9.092-.05.338-.091.55-.091.69 0 1.232.542 1.232 1.246 0 .204-.043.443-.092.535-.049.098-1.443 1.535-3.098 3.204-3.253 3.267-3.224 3.239-2.978 3.717.127.254.507.437.767.373.141-.035 1.162-1.006 3.345-3.196 2.971-2.972 3.155-3.169 3.302-3.57.282-.76.261-1.598-.056-2.253a3.635 3.635 0 0 0-.373-.543l-.274-.33v-3.929c0-3.598.007-3.95.126-4.175.373-.754 1.43-.754 1.873 0 .148.246.148.324.148 6.231 0 6.386-.014 6.675-.345 7.393-.162.353-.253.465-1.387 1.768-1.338 1.549-5.929 7.196-6.084 7.492-.098.183-.105.493-.091 2.218l.021 2.007.19.19c.289.288.705.275.98-.035l.203-.226v-3.556l1.979-2.43c2.38-2.928 3.696-4.505 4.563-5.484.746-.845 1.056-1.43 1.253-2.33.12-.557.127-1.078.127-6.971v-6.373l-.204-.436c-.502-1.092-1.79-1.712-2.917-1.395Z" fill="#000" stroke="#000" stroke-width=".6"/></svg><svg fill="none" viewBox="0 0 40 40" id="solutions--icon-3" xmlns="http://www.w3.org/2000/svg"><g clip-path="url(#la)"><path d="M29.835 28.767c.906.188 1.785.4 2.675.543 3.676.59 4.444 2.27 4.968 5.018.248 1.567.416 3.147.502 4.731a.769.769 0 0 1-.727.94c-.477.014-.78-.345-.786-.94a16.99 16.99 0 0 0-.597-5.003c-.219-.59-.414-1.633-1.178-2.286-.598-.511-1.693-.776-1.693-.776-1.999-.494-3.374-.717-5.427-.88-1.261-.083-3.222 0-3.222 0-1.952.126-3.85.604-4.486.922-.76.38-1.364.664-1.81 1.2a5.154 5.154 0 0 0-1.142 2.583c-.192 1.33-.275 2.678-.401 4.02-.015.159.012.324-.015.48a.74.74 0 0 1-.748.677.712.712 0 0 1-.748-.671c-.008-2.439.14-4.858 1.247-7.096a5.227 5.227 0 0 1 3.889-2.829c.997-.207 1.994-.41 3.027-.622a.896.896 0 0 0-.103-.176 7.157 7.157 0 0 1-1.932-4.896 1.516 1.516 0 0 1 0-.193 9.562 9.562 0 0 0-1.175-4.984c-.326-.68-.678-1.347-1.006-2.026a.734.734 0 0 1 .321-1.1 25.37 25.37 0 0 1 6.515-2.339 5.234 5.234 0 0 1 2.69.282c1.726.618 3.427 1.306 5.127 1.996.582.237.689.64.41 1.216-.249.52-.498 1.044-.777 1.548a22.204 22.204 0 0 0-1.03 2.829c-.444 1.128-.256 2.264-.396 3.39a7.111 7.111 0 0 1-1.89 4.274.719.719 0 0 0-.082.168Zm-7.137-6.51a8.686 8.686 0 0 0 .386 3.836 3.64 3.64 0 0 0 6.771.078 9.149 9.149 0 0 0 .453-3.93c-2.442.98-5.164.986-7.61.016Zm-2.087-5.814c.305.613.569 1.179.873 1.723a.542.542 0 0 0 .403.229c3.069.013 6.137.014 9.205.003a.472.472 0 0 0 .363-.145c.316-.587.602-1.19.963-1.92-1.683-.578-3.284-1.17-4.914-1.66a3.942 3.942 0 0 0-1.702-.059c-1.802.38-3.547.995-5.19 1.829Zm1.574 3.51a.682.682 0 0 0 .612.779c.249.046.486.15.733.216 1.155.303 2.318.699 3.522.5 1.142-.19 2.262-.52 3.387-.806.404-.104.442-.21.364-.686l-8.618-.003Zm5.387 10.161c-1.261-.083-3.222 0-3.222 0 .848-.055 2.064-.09 3.222 0Z" fill="#000"/><path d="M27.572 30.114c2.053.163 3.428.386 5.427.88 0 0 1.095.265 1.693.776.764.652.96 1.696 1.178 2.286a16.99 16.99 0 0 1 .597 5.003c.006.595.309.954.786.94a.769.769 0 0 0 .728-.94 46.692 46.692 0 0 0-.503-4.731c-.524-2.749-1.292-4.428-4.968-5.018-.89-.143-1.769-.355-2.675-.543a.719.719 0 0 1 .082-.168 7.111 7.111 0 0 0 1.89-4.274c.14-1.126-.048-2.262.396-3.39.28-.965.623-1.91 1.03-2.829.279-.504.528-1.028.777-1.548.279-.576.172-.979-.41-1.216-1.7-.69-3.401-1.378-5.127-1.996a5.234 5.234 0 0 0-2.69-.282 25.37 25.37 0 0 0-6.515 2.339.73.73 0 0 0-.32 1.1c.327.68.679 1.346 1.005 2.026a9.562 9.562 0 0 1 1.175 4.984 1.516 1.516 0 0 0 0 .193c0 1.82.691 3.571 1.932 4.896a.837.837 0 0 1 .103.176c-1.033.211-2.03.415-3.027.622a5.227 5.227 0 0 0-3.89 2.83c-1.107 2.238-1.254 4.656-1.246 7.095a.712.712 0 0 0 .748.671.74.74 0 0 0 .748-.677c.027-.156 0-.321.015-.48.126-1.342.209-2.69.4-4.02a5.154 5.154 0 0 1 1.142-2.582c.447-.537 1.052-.822 1.811-1.201.636-.318 2.534-.796 4.486-.922m3.222 0c-1.261-.083-3.222 0-3.222 0m3.222 0c-1.158-.09-2.374-.055-3.222 0m-1.652-7.857a8.686 8.686 0 0 0 .386 3.836 3.64 3.64 0 0 0 6.771.078 9.149 9.149 0 0 0 .453-3.93c-2.442.98-5.164.986-7.61.016Zm-2.087-5.814c.305.613.569 1.179.873 1.723a.542.542 0 0 0 .403.229c3.069.013 6.137.014 9.205.003a.472.472 0 0 0 .363-.145c.316-.587.602-1.19.963-1.92-1.683-.578-3.284-1.17-4.914-1.66a3.942 3.942 0 0 0-1.702-.059c-1.802.38-3.547.995-5.19 1.829Zm1.574 3.51a.682.682 0 0 0 .612.779c.249.046.486.15.733.216 1.155.303 2.318.699 3.522.5 1.142-.19 2.262-.52 3.387-.806.404-.104.442-.21.364-.686l-8.618-.003Z" stroke="#000" stroke-width=".3"/><path d="M24.483 4.542H1.543v15.747h16.443c.143-.01.287-.005.429.014a.753.753 0 0 1 .026 1.482 2.017 2.017 0 0 1-.476.02H1.006c-.746 0-1.006-.253-1.006-1V3.955C0 3.268.267 3 .953 3H25c.746 0 1 .258 1 1.005v6.555c-.005.683-.274 1.048-.774 1.039-.482-.008-.746-.362-.746-1.019V5.125l.003-.583Z" fill="#000" stroke="#000" stroke-width=".3"/><path d="M8.026 8.008c.999 0 1.998-.004 2.997 0 .686.004.975.292.975.97.003 1.998.003 3.997 0 5.995 0 .756-.268 1.023-1.02 1.024-1.998.004-3.997.004-5.995 0-.681 0-.975-.287-.975-.971a1547.37 1547.37 0 0 1 0-6.094.816.816 0 0 1 .921-.924c1.033-.006 2.065 0 3.097 0Zm-2.412 6.37h4.765v-4.75H5.614v4.75Zm11.739-3.933H14.49c-.563-.003-.905-.297-.903-.76.002-.462.347-.753.91-.753 1.94-.004 3.88-.004 5.82 0 .559 0 .905.3.903.759-.002.46-.347.752-.91.754-.988.006-1.974 0-2.957 0Zm-1.103 3.064c-.604 0-1.208.005-1.812 0a.763.763 0 1 1 .008-1.514 312.53 312.53 0 0 1 3.623 0 .764.764 0 1 1-.007 1.515c-.604.005-1.207-.001-1.812-.001Z" fill="#000" stroke="#000" stroke-width=".3"/></g><defs><clipPath id="la"><path fill="#fff" d="M0 0h40v40H0z"/></clipPath></defs></svg><svg fill="none" viewBox="0 0 40 40" id="solutions--icon-4" xmlns="http://www.w3.org/2000/svg"><path d="M4.817 7.054c-.306.075-.518.25-.674.561L4 7.889v11.364c0 7.884.019 11.42.069 11.545.087.237.355.518.598.618.169.075 1.616.087 8.651.087h8.451l.02 1.983.018 1.99.174.224c.225.3.493.43.855.43.237 0 .505-.111 1.684-.698l1.397-.698 1.41.698c1.185.587 1.453.699 1.696.699.393 0 .711-.169.91-.468l.17-.25.018-1.958.019-1.952h2.463c1.952 0 2.501-.019 2.663-.087.244-.1.512-.38.6-.618.049-.125.068-3.661.068-11.545V7.89l-.137-.274c-.169-.324-.375-.486-.711-.561-.3-.075-29.97-.069-30.269 0Zm28.934 12.193V29.32h-3.618v-2.096l.312-.305c.686-.674 1.316-1.803 1.572-2.813.187-.73.2-2.32.031-2.957-.35-1.278-.904-2.232-1.778-3.068a6.372 6.372 0 0 0-2.756-1.56c-.468-.124-.668-.143-1.622-.137-.998 0-1.141.019-1.64.169-2.526.773-4.266 2.85-4.522 5.407-.187 1.815.405 3.543 1.703 4.977l.343.375v2.008H6.183V9.174h27.568v10.073Zm-6.643-.592c.686.212 1.192.523 1.747 1.085.81.817 1.172 1.703 1.172 2.844 0 1.99-1.36 3.636-3.324 4.03-1.902.38-3.842-.693-4.572-2.533-.923-2.345.487-4.952 2.981-5.514.562-.124 1.41-.087 1.996.088ZM24.77 28.734c.867.168 2.37.087 3.038-.169l.143-.056v4.797l-.854-.418c-1.13-.555-1.192-.555-2.308.006-.455.23-.842.418-.86.418-.044 0-.038-4.71.006-4.76.018-.018.112-.005.206.026.087.037.374.106.63.156Z" fill="#000"/><path d="M8.297 12.748c-.393.206-.567.53-.536.998.031.53.337.88.86.986.394.074 12.936.068 13.335-.007.406-.075.662-.25.818-.561a1.079 1.079 0 0 0-.356-1.372l-.23-.156-6.805-.019-6.805-.012-.28.143Zm.263 5.47c-.462.112-.762.474-.805.96-.038.456.174.836.567 1.03.268.13.337.13 4.18.13 4.165 0 4.16 0 4.49-.299.499-.455.38-1.353-.231-1.703l-.256-.15-3.867-.012c-2.127-.006-3.96.013-4.079.044Zm-.256 5.695c-.4.205-.574.53-.543.997.037.6.393.942 1.06 1.01.212.026 1.61.032 3.1.02 2.7-.02 2.713-.02 2.963-.163.704-.405.767-1.303.118-1.796l-.23-.18-3.1-.02-3.094-.018-.274.15Z" fill="#000"/></svg><svg fill="none" viewBox="0 0 40 40" id="solutions--icon-5" xmlns="http://www.w3.org/2000/svg"><path d="M11.527 7.151c-6.43 3.215-8.33 4.191-8.422 4.33-.107.167-.113.665-.1 8.396l.02 8.223.166.16c.266.252 16.591 8.74 16.81 8.74.107 0 .44-.133.745-.292.299-.16 3.998-2.092 8.216-4.29 4.217-2.2 7.744-4.072 7.837-4.159l.166-.16.02-8.202c.013-7.3.007-8.23-.086-8.402-.093-.18-1.17-.73-8.409-4.35C23.33 4.56 20.121 2.993 20.008 3c-.1 0-3.845 1.833-8.481 4.151Zm15.854 1.03 7.326 3.66-3.108 1.554-3.102 1.554-7.353-3.68-7.36-3.673 3.056-1.534c1.68-.844 3.095-1.534 3.142-1.534.04-.007 3.374 1.64 7.399 3.653Zm-.545 7.565c0 .02-1.54.803-3.42 1.747l-3.42 1.707-7.353-3.68-7.36-3.673 3.454-1.733 3.454-1.727 7.32 3.666c4.03 2.012 7.325 3.673 7.325 3.693Zm-14.977.976 7.406 3.706v7.32c0 4.031-.02 7.326-.04 7.326s-3.368-1.74-7.44-3.866L4.388 27.35v-7.166c0-3.939.013-7.16.033-7.16.02 0 3.367 1.667 7.439 3.7Zm23.745 3.467v7.16l-7.4 3.866c-4.064 2.119-7.412 3.859-7.439 3.859-.02 0-.04-3.294-.04-7.326v-7.32l3.488-1.746c1.92-.957 3.5-1.74 3.52-1.74.02 0 .033 1.494.033 3.32 0 3.647 0 3.68.392 3.88.252.132.425.132.677 0 .392-.2.392-.193.392-4.258v-3.706l3.142-1.575c1.72-.863 3.155-1.574 3.188-1.574.027-.006.047 3.215.047 7.16Z" fill="#000" stroke="#000" stroke-width=".6"/></svg></svg>